<?xml version="1.0" encoding="utf-8"?>
<!-- Generator: Adobe Illustrator 22.0.1, SVG Export Plug-In . SVG Version: 6.00 Build 0)  -->
<svg version="1.1" id="Layer_1" xmlns="http://www.w3.org/2000/svg" xmlns:xlink="http://www.w3.org/1999/xlink" x="0px" y="0px"
	 viewBox="0 0 1000 462" style="enable-background:new 0 0 1000 462;" xml:space="preserve">
<style type="text/css">
	.st0{fill:#E4E4E4;}
	.st1{filter:url(#Adobe_OpacityMaskFilter);}
	.st2{fill:#FFFFFF;}
	.st3{mask:url(#mask-2_1_);fill:#E4E4E4;}
</style>
<g id="Page-1" transform="translate(198.000000, 0)">
	<g id="Group-19">
		<path id="as-likely-to-own-a-h" class="st0" d="M416.2,321.1c0-1-0.3-1.8-0.9-2.3s-1.3-0.8-2.1-0.8s-1.4,0.2-2,0.6s-0.9,1-1.1,1.8
			h-1.8c0.2-1.5,0.7-2.6,1.7-3.2s2-0.9,3.1-0.9c2.1,0,3.6,0.9,4.4,2.6c0.3,0.6,0.4,1.4,0.4,2.3v7.9h-1.8v-1.3
			c-0.8,1-2.1,1.5-3.9,1.5c-1.1,0-2-0.3-2.8-0.9s-1.3-1.5-1.3-2.8c0-0.6,0.2-1.3,0.5-2s1.1-1.2,2.1-1.5s2.8-0.5,5.3-0.7V321.1z
			 M416.2,324.5v-1.6c-1.3,0.1-2.4,0.2-3.2,0.3s-1.4,0.3-1.9,0.5s-0.7,0.5-0.8,0.8c-0.1,0.3-0.2,0.7-0.2,1.1s0.2,0.9,0.7,1.3
			c0.4,0.4,1.1,0.6,2.1,0.6c0.9,0,1.7-0.2,2.4-0.8S416.2,325.5,416.2,324.5z M431.9,318.6c-0.5-0.4-1.1-0.6-1.8-0.6
			c-0.7,0-1.3,0.2-1.7,0.5s-0.7,0.8-0.7,1.3s0.2,0.9,0.5,1.2s0.7,0.4,1.2,0.6l2.3,0.6c0.9,0.2,1.7,0.6,2.3,1.2
			c0.6,0.6,0.9,1.4,0.9,2.6s-0.4,2-1.2,2.6c-0.8,0.5-1.9,0.8-3.2,0.8c-1.3,0-2.4-0.3-3.4-1c-1-0.7-1.5-1.7-1.6-3.2h1.9
			c0.1,0.9,0.4,1.5,1,1.9c0.6,0.4,1.3,0.6,2.1,0.6c0.8,0,1.5-0.2,1.9-0.5c0.4-0.3,0.6-0.7,0.6-1.2s-0.1-0.9-0.3-1.2
			c-0.2-0.3-0.7-0.6-1.4-0.7l-2.4-0.6c-0.7-0.2-1.3-0.5-2-1s-1-1.3-1-2.4c0-1.1,0.4-2,1.2-2.6c0.8-0.6,1.8-1,3-1
			c1.2,0,2.2,0.3,3.1,0.9c0.8,0.6,1.3,1.6,1.4,3h-1.8C432.6,319.5,432.3,319,431.9,318.6z M459.9,313.9v-1.7h5v15.1h4.4v1.7h-10.5
			v-1.7h4.4v-13.3H459.9z M476.9,318.3v-1.7h5v10.7h4.4v1.7h-10.5v-1.7h4.4v-8.9H476.9z M479.4,314.8v-2.6h2.6v2.6H479.4z
			 M495.2,312.2v10.3l5.4-5.9h2.2l-4.5,4.9l5.1,7.5h-2.1l-4.2-6.2l-1.9,2.1v4.1h-1.8v-16.8H495.2z M517.7,321.6v-0.5
			c0-1-0.3-1.8-0.9-2.3s-1.3-0.8-2.1-0.8c-0.8,0-1.5,0.3-2.1,0.8s-0.9,1.3-0.9,2.3v0.5H517.7z M511.6,324.4c0,1,0.3,1.8,0.9,2.3
			s1.3,0.8,2.1,0.8c0.8,0,1.4-0.2,2-0.6s0.9-1,1.1-1.8h1.8c-0.2,1.5-0.7,2.6-1.7,3.2s-2,0.9-3.1,0.9c-2.1,0-3.6-0.9-4.4-2.6
			c-0.3-0.6-0.4-1.4-0.4-2.3v-3.3c0-1.7,0.5-2.9,1.6-3.8c0.8-0.7,1.9-1.1,3.3-1.1c2.1,0,3.6,0.9,4.4,2.6c0.3,0.6,0.4,1.4,0.4,2.3
			v2.1h-7.9V324.4z M527.5,313.9v-1.7h5v15.1h4.4v1.7h-10.5v-1.7h4.4v-13.3H527.5z M544.5,333.4v-1.7h1.3c0.4,0,0.6-0.1,0.8-0.2
			c0.1-0.1,0.2-0.3,0.3-0.5l0.7-1.8l-4.5-12.6h1.9l3.6,10.1l3.6-10.1h1.9l-5.6,15.5c-0.2,0.5-0.5,0.8-0.9,1s-1.1,0.3-1.8,0.3H544.5z
			 M581.9,318.3v7.8c0,0.4,0.1,0.7,0.3,0.8s0.5,0.2,0.9,0.2h4.1v1.7h-4.1c-1.1,0-1.9-0.2-2.3-0.7s-0.6-1.2-0.6-2.3v-7.7h-3.5v-1.7
			h3.5v-2.8h1.8v2.8h5.2v1.7H581.9z M602.1,324.4v-3.3c0-1-0.3-1.8-0.9-2.3s-1.3-0.8-2.1-0.8c-0.8,0-1.5,0.3-2.1,0.8
			s-0.9,1.3-0.9,2.3v3.3c0,1,0.3,1.8,0.9,2.3s1.3,0.8,2.1,0.8c0.8,0,1.5-0.3,2.1-0.8C601.8,326.2,602.1,325.4,602.1,324.4z
			 M603.9,321.1v3.3c0,1.7-0.5,2.9-1.6,3.8c-0.8,0.7-1.9,1.1-3.3,1.1c-2.1,0-3.6-0.9-4.4-2.6c-0.3-0.6-0.4-1.4-0.4-2.3v-3.3
			c0-1.7,0.5-2.9,1.6-3.8c0.8-0.7,1.9-1.1,3.3-1.1c2.1,0,3.6,0.9,4.4,2.6C603.8,319.4,603.9,320.2,603.9,321.1z M416.3,357.4v-3.3
			c0-1-0.3-1.8-0.9-2.3s-1.3-0.8-2.1-0.8c-0.8,0-1.5,0.3-2.1,0.8s-0.9,1.3-0.9,2.3v3.3c0,1,0.3,1.8,0.9,2.3s1.3,0.8,2.1,0.8
			c0.8,0,1.5-0.3,2.1-0.8C416,359.2,416.3,358.4,416.3,357.4z M418.1,354.1v3.3c0,1.7-0.5,2.9-1.6,3.8c-0.8,0.7-1.9,1.1-3.3,1.1
			c-2.1,0-3.6-0.9-4.4-2.6c-0.3-0.6-0.4-1.4-0.4-2.3v-3.3c0-1.7,0.5-2.9,1.6-3.8c0.8-0.7,1.9-1.1,3.3-1.1c2.1,0,3.6,0.9,4.4,2.6
			C418,352.4,418.1,353.2,418.1,354.1z M431,351.5l2.1,7.1l1.3-9h1.8l-2,12.4h-1.6l-2.5-8.1l-2.5,8.1h-1.6l-2-12.4h1.8l1.3,9
			l2.1-7.1H431z M447.1,349.3c2.1,0,3.6,0.9,4.4,2.6c0.3,0.6,0.4,1.4,0.4,2.3v7.9h-1.8v-7.9c0-1-0.3-1.8-0.9-2.3s-1.3-0.8-2.1-0.8
			c-0.8,0-1.5,0.3-2.1,0.8s-0.9,1.3-0.9,2.3v7.9h-1.8v-12.4h1.8v1.2c0.3-0.5,0.7-0.9,1.3-1.1S446.6,349.3,447.1,349.3z M481.5,354.1
			c0-1-0.3-1.8-0.9-2.3s-1.3-0.8-2.1-0.8s-1.4,0.2-2,0.6s-0.9,1-1.1,1.8h-1.8c0.2-1.5,0.7-2.6,1.7-3.2s2-0.9,3.1-0.9
			c2.1,0,3.6,0.9,4.4,2.6c0.3,0.6,0.4,1.4,0.4,2.3v7.9h-1.8v-1.3c-0.8,1-2.1,1.5-3.9,1.5c-1.1,0-2-0.3-2.8-0.9s-1.3-1.5-1.3-2.8
			c0-0.6,0.2-1.3,0.5-2s1.1-1.2,2.1-1.5s2.8-0.5,5.3-0.7V354.1z M481.5,357.5v-1.6c-1.3,0.1-2.4,0.2-3.2,0.3s-1.4,0.3-1.9,0.5
			s-0.7,0.5-0.8,0.8c-0.1,0.3-0.2,0.7-0.2,1.1s0.2,0.9,0.7,1.3c0.4,0.4,1.1,0.6,2.1,0.6c0.9,0,1.7-0.2,2.4-0.8
			S481.5,358.5,481.5,357.5z M512.4,349.3c2.1,0,3.6,0.9,4.4,2.6c0.3,0.6,0.4,1.4,0.4,2.3v7.9h-1.8v-7.9c0-1-0.3-1.8-0.9-2.3
			s-1.3-0.8-2.1-0.8c-0.8,0-1.5,0.3-2.1,0.8s-0.9,1.3-0.9,2.3v7.9h-1.8v-16.8h1.8v5.6c0.3-0.5,0.7-0.9,1.3-1.1
			S511.8,349.3,512.4,349.3z M532.3,357.4v-3.3c0-1-0.3-1.8-0.9-2.3s-1.3-0.8-2.1-0.8c-0.8,0-1.5,0.3-2.1,0.8s-0.9,1.3-0.9,2.3v3.3
			c0,1,0.3,1.8,0.9,2.3s1.3,0.8,2.1,0.8c0.8,0,1.5-0.3,2.1-0.8C532,359.2,532.3,358.4,532.3,357.4z M534.1,354.1v3.3
			c0,1.7-0.5,2.9-1.6,3.8c-0.8,0.7-1.9,1.1-3.3,1.1c-2.1,0-3.6-0.9-4.4-2.6c-0.3-0.6-0.4-1.4-0.4-2.3v-3.3c0-1.7,0.5-2.9,1.6-3.8
			c0.8-0.7,1.9-1.1,3.3-1.1c2.1,0,3.6,0.9,4.4,2.6C533.9,352.4,534.1,353.2,534.1,354.1z M551.9,352.7v9.3h-1.8v-9.3
			c0-0.5-0.1-0.9-0.4-1.2c-0.2-0.3-0.6-0.5-1.1-0.5s-0.9,0.2-1.2,0.5s-0.4,0.7-0.4,1.2v9.3h-1.8v-9.3c0-0.5-0.1-0.9-0.4-1.2
			c-0.2-0.3-0.6-0.5-1.1-0.5s-0.9,0.2-1.1,0.5s-0.4,0.7-0.4,1.2v9.3h-1.8v-12.4h1.8v0.7c0.2-0.3,0.4-0.6,0.7-0.7s0.7-0.3,1.1-0.3
			c0.9,0,1.7,0.4,2.1,1.1c0.6-0.8,1.5-1.1,2.5-1.1s1.8,0.3,2.4,1S551.9,351.7,551.9,352.7z M566.1,354.6v-0.5c0-1-0.3-1.8-0.9-2.3
			s-1.3-0.8-2.1-0.8c-0.8,0-1.5,0.3-2.1,0.8s-0.9,1.3-0.9,2.3v0.5H566.1z M560,357.4c0,1,0.3,1.8,0.9,2.3s1.3,0.8,2.1,0.8
			c0.8,0,1.4-0.2,2-0.6s0.9-1,1.1-1.8h1.8c-0.2,1.5-0.7,2.6-1.7,3.2s-2,0.9-3.1,0.9c-2.1,0-3.6-0.9-4.4-2.6
			c-0.3-0.6-0.4-1.4-0.4-2.3v-3.3c0-1.7,0.5-2.9,1.6-3.8c0.8-0.7,1.9-1.1,3.3-1.1c2.1,0,3.6,0.9,4.4,2.6c0.3,0.6,0.4,1.4,0.4,2.3
			v2.1H560V357.4z M416.2,387.1c0-1-0.3-1.8-0.9-2.3s-1.3-0.8-2.1-0.8s-1.4,0.2-2,0.6s-0.9,1-1.1,1.8h-1.8c0.2-1.5,0.7-2.6,1.7-3.2
			s2-0.9,3.1-0.9c2.1,0,3.6,0.9,4.4,2.6c0.3,0.6,0.4,1.4,0.4,2.3v7.9h-1.8v-1.3c-0.8,1-2.1,1.5-3.9,1.5c-1.1,0-2-0.3-2.8-0.9
			s-1.3-1.5-1.3-2.8c0-0.6,0.2-1.3,0.5-2s1.1-1.2,2.1-1.5s2.8-0.5,5.3-0.7V387.1z M416.2,390.5v-1.6c-1.3,0.1-2.4,0.2-3.2,0.3
			s-1.4,0.3-1.9,0.5s-0.7,0.5-0.8,0.8c-0.1,0.3-0.2,0.7-0.2,1.1s0.2,0.9,0.7,1.3c0.4,0.4,1.1,0.6,2.1,0.6c0.9,0,1.7-0.2,2.4-0.8
			S416.2,391.5,416.2,390.5z M431.9,384.6c-0.5-0.4-1.1-0.6-1.8-0.6c-0.7,0-1.3,0.2-1.7,0.5s-0.7,0.8-0.7,1.3s0.2,0.9,0.5,1.2
			s0.7,0.4,1.2,0.6l2.3,0.6c0.9,0.2,1.7,0.6,2.3,1.2c0.6,0.6,0.9,1.4,0.9,2.6s-0.4,2-1.2,2.6c-0.8,0.5-1.9,0.8-3.2,0.8
			c-1.3,0-2.4-0.3-3.4-1c-1-0.7-1.5-1.7-1.6-3.2h1.9c0.1,0.9,0.4,1.5,1,1.9c0.6,0.4,1.3,0.6,2.1,0.6c0.8,0,1.5-0.2,1.9-0.5
			c0.4-0.3,0.6-0.7,0.6-1.2s-0.1-0.9-0.3-1.2c-0.2-0.3-0.7-0.6-1.4-0.7l-2.4-0.6c-0.7-0.2-1.3-0.5-2-1s-1-1.3-1-2.4
			c0-1.1,0.4-2,1.2-2.6c0.8-0.6,1.8-1,3-1c1.2,0,2.2,0.3,3.1,0.9c0.8,0.6,1.3,1.6,1.4,3h-1.8C432.6,385.5,432.3,385,431.9,384.6z
			 M460,399.4v-1.7h1.3c0.4,0,0.6-0.1,0.8-0.2c0.1-0.1,0.2-0.3,0.3-0.5l0.7-1.8l-4.5-12.6h1.9l3.6,10.1l3.6-10.1h1.9l-5.6,15.5
			c-0.2,0.5-0.5,0.8-0.9,1s-1.1,0.3-1.8,0.3H460z M483.9,390.4v-3.3c0-1-0.3-1.8-0.9-2.3c-0.6-0.5-1.3-0.8-2.1-0.8
			c-0.8,0-1.5,0.3-2.1,0.8c-0.6,0.5-0.9,1.3-0.9,2.3v3.3c0,1,0.3,1.8,0.9,2.3c0.6,0.5,1.3,0.8,2.1,0.8c0.8,0,1.5-0.3,2.1-0.8
			C483.6,392.2,483.9,391.4,483.9,390.4z M485.7,387.1v3.3c0,1.7-0.5,2.9-1.6,3.8c-0.8,0.7-1.9,1.1-3.3,1.1c-2.1,0-3.6-0.9-4.4-2.6
			c-0.3-0.6-0.4-1.4-0.4-2.3v-3.3c0-1.7,0.5-2.9,1.6-3.8c0.8-0.7,1.9-1.1,3.3-1.1c2.1,0,3.6,0.9,4.4,2.6
			C485.6,385.4,485.7,386.2,485.7,387.1z M497.7,395.2c-2.1,0-3.5-0.8-4.3-2.5c-0.3-0.6-0.5-1.4-0.5-2.3v-7.9h1.8v7.7
			c0,1.1,0.3,1.9,0.9,2.4s1.3,0.8,2.1,0.8s1.4-0.3,2.1-0.8c0.6-0.5,0.9-1.3,0.9-2.3v-7.8h1.8V395h-1.8v-1.3
			c-0.3,0.5-0.7,0.9-1.3,1.1S498.2,395.2,497.7,395.2z M514.7,382.3c2.1,0,3.6,0.9,4.4,2.6c0.3,0.6,0.4,1.4,0.4,2.3v7.9h-1.8v-7.9
			c0-1-0.3-1.8-0.9-2.3s-1.3-0.8-2.1-0.8c-0.8,0-1.5,0.3-2.1,0.8s-0.9,1.3-0.9,2.3v7.9h-1.8v-12.4h1.8v1.2c0.3-0.5,0.7-0.9,1.3-1.1
			S514.1,382.3,514.7,382.3z M529.5,397.3c0.6,0.4,1.3,0.6,2,0.6s1.4-0.3,2.1-0.8c0.6-0.5,0.9-1.3,0.9-2.3v-1.6
			c-0.3,0.5-0.8,0.9-1.3,1.1s-1.2,0.4-1.7,0.4c-2.1,0-3.6-0.9-4.4-2.6c-0.3-0.6-0.4-1.4-0.4-2.3v-2.8c0-1.7,0.5-2.9,1.6-3.8
			c0.8-0.7,1.9-1.1,3.3-1.1c0.6,0,1.1,0.1,1.7,0.4s1,0.6,1.3,1.1v-1.2h1.8v12.2c0,1.7-0.5,3-1.6,3.8c-0.9,0.7-1.9,1-3.3,1
			c-2,0-3.4-0.7-4.3-2.2c-0.3-0.5-0.5-1.2-0.6-2h1.8C528.5,396.2,528.9,396.9,529.5,397.3z M528.4,387.1v2.8c0,1,0.3,1.8,0.9,2.3
			c0.6,0.5,1.3,0.8,2.1,0.8s1.5-0.3,2.1-0.8c0.6-0.5,0.9-1.3,0.9-2.3v-2.8c0-1-0.3-1.8-0.9-2.3s-1.3-0.8-2.1-0.8
			c-0.8,0-1.5,0.3-2.1,0.8S528.4,386.1,528.4,387.1z M416.2,420.1c0-1-0.3-1.8-0.9-2.3s-1.3-0.8-2.1-0.8s-1.4,0.2-2,0.6
			s-0.9,1-1.1,1.8h-1.8c0.2-1.5,0.7-2.6,1.7-3.2s2-0.9,3.1-0.9c2.1,0,3.6,0.9,4.4,2.6c0.3,0.6,0.4,1.4,0.4,2.3v7.9h-1.8v-1.3
			c-0.8,1-2.1,1.5-3.9,1.5c-1.1,0-2-0.3-2.8-0.9s-1.3-1.5-1.3-2.8c0-0.6,0.2-1.3,0.5-2s1.1-1.2,2.1-1.5s2.8-0.5,5.3-0.7V420.1z
			 M416.2,423.5v-1.6c-1.3,0.1-2.4,0.2-3.2,0.3s-1.4,0.3-1.9,0.5s-0.7,0.5-0.8,0.8c-0.1,0.3-0.2,0.7-0.2,1.1s0.2,0.9,0.7,1.3
			c0.4,0.4,1.1,0.6,2.1,0.6c0.9,0,1.7-0.2,2.4-0.8S416.2,424.5,416.2,423.5z M430.1,428.2c-2.1,0-3.6-0.9-4.4-2.6
			c-0.3-0.6-0.4-1.4-0.4-2.3v-3.3c0-1.7,0.5-2.9,1.6-3.8c0.8-0.7,1.9-1.1,3.3-1.1c0.6,0,1.1,0.1,1.7,0.4s1,0.6,1.3,1.1v-5.6h1.8V428
			h-1.8v-1.3c-0.3,0.5-0.8,0.9-1.3,1.1C431.2,428.1,430.6,428.2,430.1,428.2z M427,420.1v3.3c0,1,0.3,1.8,0.9,2.3s1.3,0.8,2.1,0.8
			c0.8,0,1.5-0.3,2.1-0.8c0.6-0.5,0.9-1.3,0.9-2.3v-3.3c0-1-0.3-1.8-0.9-2.3c-0.6-0.5-1.3-0.8-2.1-0.8c-0.8,0-1.5,0.3-2.1,0.8
			S427,419.1,427,420.1z M447,428.2c-2.1,0-3.5-0.8-4.3-2.5c-0.3-0.6-0.5-1.4-0.5-2.3v-7.9h1.8v7.7c0,1.1,0.3,1.9,0.9,2.4
			s1.3,0.8,2.1,0.8s1.4-0.3,2.1-0.8c0.6-0.5,0.9-1.3,0.9-2.3v-7.8h1.8V428H450v-1.3c-0.3,0.5-0.7,0.9-1.3,1.1S447.6,428.2,447,428.2
			z M459.9,412.9v-1.7h5v15.1h4.4v1.7h-10.5v-1.7h4.4v-13.3H459.9z M480.6,417.3v7.8c0,0.4,0.1,0.7,0.3,0.8s0.5,0.2,0.9,0.2h4.1v1.7
			h-4.1c-1.1,0-1.9-0.2-2.3-0.7s-0.6-1.2-0.6-2.3v-7.7h-3.5v-1.7h3.5v-2.8h1.8v2.8h5.2v1.7H480.6z M499.4,417.6
			c-0.5-0.4-1.1-0.6-1.8-0.6s-1.3,0.2-1.7,0.5s-0.7,0.8-0.7,1.3s0.2,0.9,0.5,1.2s0.7,0.4,1.2,0.6l2.3,0.6c0.9,0.2,1.7,0.6,2.3,1.2
			c0.6,0.6,0.9,1.4,0.9,2.6s-0.4,2-1.2,2.6s-1.9,0.8-3.2,0.8c-1.3,0-2.4-0.3-3.4-1c-1-0.7-1.5-1.7-1.6-3.2h1.9
			c0.1,0.9,0.4,1.5,1,1.9c0.6,0.4,1.3,0.6,2.1,0.6s1.5-0.2,1.9-0.5c0.4-0.3,0.6-0.7,0.6-1.2s-0.1-0.9-0.3-1.2
			c-0.2-0.3-0.7-0.6-1.4-0.7l-2.4-0.6c-0.7-0.2-1.3-0.5-2-1s-1-1.3-1-2.4c0-1.1,0.4-2,1.2-2.6s1.8-1,3-1s2.2,0.3,3.1,0.9
			c0.8,0.6,1.3,1.6,1.4,3h-1.8C500.2,418.5,499.9,418,499.4,417.6z M532.4,417.5l2.1,7.1l1.3-9h1.8l-2,12.4H534l-2.5-8.1L529,428
			h-1.6l-2-12.4h1.8l1.3,9l2.1-7.1H532.4z M551.5,420.6v-0.5c0-1-0.3-1.8-0.9-2.3s-1.3-0.8-2.1-0.8c-0.8,0-1.5,0.3-2.1,0.8
			s-0.9,1.3-0.9,2.3v0.5H551.5z M545.4,423.4c0,1,0.3,1.8,0.9,2.3s1.3,0.8,2.1,0.8c0.8,0,1.4-0.2,2-0.6s0.9-1,1.1-1.8h1.8
			c-0.2,1.5-0.7,2.6-1.7,3.2s-2,0.9-3.1,0.9c-2.1,0-3.6-0.9-4.4-2.6c-0.3-0.6-0.4-1.4-0.4-2.3v-3.3c0-1.7,0.5-2.9,1.6-3.8
			c0.8-0.7,1.9-1.1,3.3-1.1c2.1,0,3.6,0.9,4.4,2.6c0.3,0.6,0.4,1.4,0.4,2.3v2.1h-7.9V423.4z M560.7,417.3v-1.7h4.5v1.3
			c0.3-0.5,0.8-0.9,1.3-1.1s1.2-0.4,1.7-0.4h3v1.7h-3c-0.8,0-1.5,0.3-2.1,0.8s-0.9,1.3-0.9,2.3v6.1h4.8v1.7h-10.5v-1.7h3.9v-8.9
			H560.7z M585.3,420.6v-0.5c0-1-0.3-1.8-0.9-2.3s-1.3-0.8-2.1-0.8c-0.8,0-1.5,0.3-2.1,0.8s-0.9,1.3-0.9,2.3v0.5H585.3z
			 M579.2,423.4c0,1,0.3,1.8,0.9,2.3s1.3,0.8,2.1,0.8c0.8,0,1.4-0.2,2-0.6s0.9-1,1.1-1.8h1.8c-0.2,1.5-0.7,2.6-1.7,3.2
			s-2,0.9-3.1,0.9c-2.1,0-3.6-0.9-4.4-2.6c-0.3-0.6-0.4-1.4-0.4-2.3v-3.3c0-1.7,0.5-2.9,1.6-3.8c0.8-0.7,1.9-1.1,3.3-1.1
			c2.1,0,3.6,0.9,4.4,2.6c0.3,0.6,0.4,1.4,0.4,2.3v2.1h-7.9V423.4z M409.3,450.3v-1.7h5v10.7h4.4v1.7h-10.5v-1.7h4.4v-8.9H409.3z
			 M411.9,446.8v-2.6h2.6v2.6H411.9z M430.2,448.3c2.1,0,3.6,0.9,4.4,2.6c0.3,0.6,0.4,1.4,0.4,2.3v7.9h-1.8v-7.9
			c0-1-0.3-1.8-0.9-2.3s-1.3-0.8-2.1-0.8c-0.8,0-1.5,0.3-2.1,0.8s-0.9,1.3-0.9,2.3v7.9h-1.8v-12.4h1.8v1.2c0.3-0.5,0.7-0.9,1.3-1.1
			C429.1,448.4,429.7,448.3,430.2,448.3z M459.1,459.3h4.4v-12.6l-2.6,2.6l-1.2-1.3l3.9-3.9h1.8v15.1h4.4v1.7h-10.5V459.3z
			 M478.1,448.8v1.2c0,0.8,0.3,1.6,0.9,2.2c0.6,0.6,1.3,0.9,2.2,0.9c0.8,0,1.6-0.3,2.2-0.9c0.6-0.6,0.9-1.4,0.9-2.2v-1.2
			c0-0.8-0.3-1.6-0.9-2.2c-0.6-0.6-1.3-0.9-2.2-0.9c-0.9,0-1.6,0.3-2.2,0.9S478.1,448,478.1,448.8z M476.3,450v-1.2
			c0-1.3,0.5-2.5,1.4-3.4c1-1,2.1-1.4,3.4-1.4c1.3,0,2.5,0.5,3.4,1.4c1,1,1.4,2.1,1.4,3.4v1.2c0,1.1-0.3,2-1,2.9l-6,8.2l-1.4-1
			l3.8-5.2c0,0-0.1,0-0.1,0h-0.2c-1.3,0-2.5-0.5-3.4-1.4C476.8,452.5,476.3,451.3,476.3,450z M493,444.2h9.6v1.7l-5.4,15.2l-1.6-0.6
			l5.1-14.6h-5.9v2.8H493V444.2z M514.8,450.3c1.2,0,2.2,0.5,3.2,1.4s1.4,2.1,1.4,3.4v1.2c0,1.3-0.5,2.5-1.4,3.4
			c-1,0.9-2.1,1.4-3.4,1.4s-2.5-0.5-3.4-1.4s-1.4-2.1-1.4-3.4h1.8c0,0.8,0.3,1.6,0.9,2.2s1.3,0.9,2.2,0.9s1.6-0.3,2.2-0.9
			c0.6-0.6,0.9-1.4,0.9-2.2v-1.2c0-0.8-0.3-1.6-0.9-2.2c-0.6-0.6-1.2-0.9-2-0.9s-1.3,0.2-1.8,0.5s-0.9,0.8-1.1,1.3l-1.9-1.1l1.9-8.6
			h6.7v1.7h-5.2l-1.1,5.2C512.8,450.6,513.7,450.3,514.8,450.3z"/>
		<path id="We_x2019_re-about" class="st0" d="M8,193.6l2.4,10.5l1.7-12.9h1.8L11.5,208H9.8l-2.5-10.9L4.8,208H3.1l-2.4-16.8h1.8
			l1.7,12.9l2.4-10.5H8z M27.3,200.6v-0.5c0-1-0.3-1.8-0.9-2.3c-0.6-0.5-1.3-0.8-2.1-0.8c-0.8,0-1.5,0.3-2.1,0.8
			c-0.6,0.5-0.9,1.3-0.9,2.3v0.5H27.3z M21.2,203.4c0,1,0.3,1.8,0.9,2.3c0.6,0.5,1.3,0.8,2.1,0.8c0.8,0,1.4-0.2,2-0.6
			c0.6-0.4,0.9-1,1.1-1.8H29c-0.2,1.5-0.7,2.6-1.7,3.2c-1,0.6-2,0.9-3.1,0.9c-2.1,0-3.6-0.9-4.4-2.6c-0.3-0.6-0.4-1.4-0.4-2.3v-3.3
			c0-1.7,0.5-2.9,1.6-3.8c0.8-0.7,1.9-1.1,3.3-1.1c2.1,0,3.6,0.9,4.4,2.6c0.3,0.6,0.4,1.4,0.4,2.3v2.1h-7.9V203.4z M42.7,191.5
			l-2.1,5.3l-1.1-0.5l2.1-5.3L42.7,191.5z M53.3,197.3v-1.7h4.5v1.3c0.3-0.5,0.7-0.9,1.3-1.1c0.6-0.3,1.2-0.4,1.7-0.4h3v1.7h-3
			c-0.8,0-1.5,0.3-2.1,0.8c-0.6,0.5-0.9,1.3-0.9,2.3v6.1h4.8v1.7H52.1v-1.7H56v-8.9H53.3z M77.9,200.6v-0.5c0-1-0.3-1.8-0.9-2.3
			c-0.6-0.5-1.3-0.8-2.1-0.8c-0.8,0-1.5,0.3-2.1,0.8c-0.6,0.5-0.9,1.3-0.9,2.3v0.5H77.9z M71.8,203.4c0,1,0.3,1.8,0.9,2.3
			c0.6,0.5,1.3,0.8,2.1,0.8c0.8,0,1.4-0.2,2-0.6c0.6-0.4,0.9-1,1.1-1.8h1.8c-0.2,1.5-0.7,2.6-1.7,3.2c-1,0.6-2,0.9-3.1,0.9
			c-2.1,0-3.6-0.9-4.4-2.6c-0.3-0.6-0.4-1.4-0.4-2.3v-3.3c0-1.7,0.5-2.9,1.6-3.8c0.8-0.7,1.9-1.1,3.3-1.1c2.1,0,3.6,0.9,4.4,2.6
			c0.3,0.6,0.4,1.4,0.4,2.3v2.1h-7.9V203.4z M10.2,233.1c0-1-0.3-1.8-0.9-2.3S8,230,7.2,230s-1.4,0.2-2,0.6s-0.9,1-1.1,1.8H2.4
			c0.2-1.5,0.7-2.6,1.7-3.2s2-0.9,3.1-0.9c2.1,0,3.6,0.9,4.4,2.6c0.3,0.6,0.4,1.4,0.4,2.3v7.9h-1.8v-1.3c-0.8,1-2.1,1.5-3.9,1.5
			c-1.1,0-2-0.3-2.8-0.9s-1.3-1.5-1.3-2.8c0-0.6,0.2-1.3,0.5-2s1.1-1.2,2.1-1.5s2.8-0.5,5.3-0.7V233.1z M10.2,236.5v-1.6
			c-1.3,0.1-2.4,0.2-3.2,0.3s-1.4,0.3-1.9,0.5s-0.7,0.5-0.8,0.8c-0.1,0.3-0.2,0.7-0.2,1.1s0.2,0.9,0.7,1.3c0.4,0.4,1.1,0.6,2.1,0.6
			c0.9,0,1.7-0.2,2.4-0.8S10.2,237.5,10.2,236.5z M27.3,236.4v-3.3c0-1-0.3-1.8-0.9-2.3c-0.6-0.5-1.3-0.8-2.1-0.8s-1.5,0.3-2.1,0.8
			c-0.6,0.5-0.9,1.3-0.9,2.3v3.3c0,1,0.3,1.8,0.9,2.3c0.6,0.5,1.3,0.8,2.1,0.8c0.8,0,1.5-0.3,2.1-0.8
			C27,238.2,27.3,237.4,27.3,236.4z M21.2,241h-1.8v-16.8h1.8v5.6c0.3-0.5,0.7-0.9,1.3-1.1c1-0.5,2.1-0.5,3.4-0.2
			c1.3,0.3,2.2,1.1,2.8,2.3c0.3,0.6,0.4,1.4,0.4,2.3v3.3c0,0.9-0.1,1.7-0.4,2.3c-0.8,1.7-2.3,2.6-4.4,2.6c-0.6,0-1.1-0.1-1.7-0.4
			c-0.6-0.2-1-0.6-1.3-1.1V241z M44.1,236.4v-3.3c0-1-0.3-1.8-0.9-2.3c-0.6-0.5-1.3-0.8-2.1-0.8c-0.8,0-1.5,0.3-2.1,0.8
			c-0.6,0.5-0.9,1.3-0.9,2.3v3.3c0,1,0.3,1.8,0.9,2.3c0.6,0.5,1.3,0.8,2.1,0.8c0.8,0,1.5-0.3,2.1-0.8
			C43.8,238.2,44.1,237.4,44.1,236.4z M45.9,233.1v3.3c0,1.7-0.5,2.9-1.6,3.8c-0.8,0.7-1.9,1.1-3.3,1.1c-2.1,0-3.6-0.9-4.4-2.6
			c-0.3-0.6-0.4-1.4-0.4-2.3v-3.3c0-1.7,0.5-2.9,1.6-3.8c0.8-0.7,1.9-1.1,3.3-1.1c2.1,0,3.6,0.9,4.4,2.6
			C45.8,231.4,45.9,232.2,45.9,233.1z M57.9,241.2c-2.1,0-3.5-0.8-4.3-2.5c-0.3-0.6-0.5-1.4-0.5-2.3v-7.9h1.8v7.7
			c0,1.1,0.3,1.9,0.9,2.4c0.6,0.5,1.3,0.8,2.1,0.8s1.4-0.3,2.1-0.8c0.6-0.5,0.9-1.3,0.9-2.3v-7.8h1.8V241h-1.8v-1.3
			c-0.3,0.5-0.7,0.9-1.3,1.1C59,241.1,58.4,241.2,57.9,241.2z M74.6,230.3v7.8c0,0.4,0.1,0.7,0.3,0.8s0.5,0.2,0.9,0.2h4.1v1.7h-4.1
			c-1.1,0-1.9-0.2-2.3-0.7c-0.4-0.5-0.6-1.2-0.6-2.3v-7.7h-3.5v-1.7h3.5v-2.8h1.8v2.8h5.2v1.7H74.6z"/>
		<polygon id="Fill-1" class="st0" points="177,0 105,0.9 105,67.7 105,241 177,241 		"/>
		<polygon id="Fill-2" class="st0" points="267.6,0 141,459 154.4,459 281,0 		"/>
		<g id="Group-5" transform="translate(228.000000, 197.000000)">
			<g id="Clip-4">
			</g>
			<defs>
				<filter id="Adobe_OpacityMaskFilter" filterUnits="userSpaceOnUse" x="0" y="1" width="153" height="261">
					<feColorMatrix  type="matrix" values="1 0 0 0 0  0 1 0 0 0  0 0 1 0 0  0 0 0 1 0"/>
				</filter>
			</defs>
			<mask maskUnits="userSpaceOnUse" x="0" y="1" width="153" height="261" id="mask-2_1_">
				<g class="st1">
					<polygon id="path-1_1_" class="st2" points="0,262 153,262 153,131.5 153,1 0,1 					"/>
				</g>
			</mask>
			<path id="Fill-3" class="st3" d="M153,118.1V77.5C153,35.2,118.7,1,76.5,1C34.2,1,0,35.2,0,77.5V109h72V77.5c0-2.5,2-4.5,4.5-4.5
				s4.5,2,4.5,4.5V109L0,190v0h0v72h72h81v-72H81l71.9-71.9H153z"/>
		</g>
	</g>
</g>
</svg>
