<?xml version="1.0" encoding="UTF-8"?>
<svg width="1000px" height="462px" viewBox="0 0 1000 462" version="1.1" xmlns="http://www.w3.org/2000/svg" xmlns:xlink="http://www.w3.org/1999/xlink">

    <defs></defs>
    <g id="Page-1" stroke="none" stroke-width="1" fill="none" fill-rule="evenodd" transform="translate(194.5, 0.000000)">
        <g id="Group-5" fill="#FE36FB">
            <path d="M340.114094,362.926027 C340.114094,367.403573 336.473987,371.046575 332,371.046575 C327.526013,371.046575 323.885906,367.403573 323.885906,362.926027 L323.885906,236.120548 L239,236.120548 L239,362.926027 C239,414.246641 280.718926,456 332,456 C383.281074,456 425,414.246641 425,362.926027 L425,228 C425,176.679386 383.281074,134.926027 332,134.926027 C330.337235,134.926027 328.540899,134.974751 326.507383,135.075945 L323.885906,135.208373 L323.885906,84.9534247 L425,84.9534247 L425,0 L239,0 L239,219.879452 L332,219.879452 C336.473987,219.879452 340.114094,223.522455 340.114094,228 L340.114094,362.926027 Z" id="Page-1"></path>
            <polygon id="Page-1" points="0 456 85 456 85 0 0 0"></polygon>
            <path d="M151.316406,231.747656 L151.316406,230.013281 L156.285156,230.013281 L156.285156,240.677344 L160.644531,240.677344 L160.644531,242.4 L150.109375,242.4 L150.109375,240.677344 L154.480469,240.677344 L154.480469,231.747656 L151.316406,231.747656 Z M153.882812,228.24375 L153.882812,225.595313 L156.519531,225.595313 L156.519531,228.24375 L153.882812,228.24375 Z M172.149219,229.685156 C174.266417,229.685156 175.735152,230.53671 176.555469,232.239844 C176.844533,232.857034 176.985156,233.618745 176.977344,234.525 L176.977344,242.4 L175.184375,242.4 L175.184375,234.501563 C175.184375,233.470307 174.875784,232.696878 174.258594,232.18125 C173.641403,231.665622 172.934379,231.407813 172.1375,231.407813 C171.348434,231.407813 170.641409,231.669529 170.016406,232.192969 C169.391403,232.716409 169.082813,233.485932 169.090625,234.501563 L169.090625,242.4 L167.285938,242.4 L167.285938,230.013281 L169.090625,230.013281 L169.090625,231.196875 C169.395314,230.704685 169.836716,230.329689 170.414844,230.071875 C170.992972,229.814061 171.571091,229.685156 172.149219,229.685156 Z" id="in"></path>
            <path d="M472.347656,236.417969 L472.347656,233.101562 C472.347656,232.070307 472.039066,231.296878 471.421875,230.78125 C470.804684,230.265622 470.09766,230.007812 469.300781,230.007812 C468.511715,230.007812 467.804691,230.269529 467.179688,230.792969 C466.554684,231.316409 466.242188,232.085932 466.242188,233.101562 L466.242188,236.417969 C466.242188,237.441411 466.550778,238.210935 467.167969,238.726562 C467.785159,239.24219 468.492184,239.503906 469.289062,239.511719 C470.085941,239.503906 470.796872,239.24219 471.421875,238.726562 C472.039066,238.210935 472.347656,237.441411 472.347656,236.417969 Z M474.140625,233.125 L474.140625,236.394531 C474.140625,238.058602 473.621099,239.320308 472.582031,240.179688 C471.738277,240.882816 470.644538,241.234375 469.300781,241.234375 C467.152333,241.234375 465.679691,240.382821 464.882812,238.679688 C464.593749,238.062497 464.449219,237.300786 464.449219,236.394531 L464.449219,233.125 C464.449219,231.460929 464.968745,230.199223 466.007812,229.339844 C466.851567,228.636715 467.949212,228.285156 469.300781,228.285156 C471.441417,228.285156 472.910152,229.13671 473.707031,230.839844 C473.996095,231.449222 474.140625,232.210933 474.140625,233.125 Z M491.476562,225.929688 L487.421875,225.929688 C486.992185,225.929688 486.691407,226.007812 486.519531,226.164062 C486.347655,226.320313 486.261719,226.60156 486.261719,227.007812 L486.261719,228.613281 L491.476562,228.613281 L491.476562,230.347656 L486.261719,230.347656 L486.261719,241 L484.46875,241 L484.46875,230.347656 L480.941406,230.347656 L480.941406,228.613281 L484.46875,228.613281 L484.46875,227.148438 C484.46875,226.093745 484.671873,225.339846 485.078125,224.886719 C485.484377,224.433591 486.265619,224.203125 487.421875,224.195312 L491.476562,224.195312 L491.476562,225.929688 Z M518.023438,241.234375 C515.960927,241.234375 514.519535,240.410164 513.699219,238.761719 C513.39453,238.144528 513.242188,237.378911 513.242188,236.464844 L513.242188,228.613281 L515.046875,228.613281 L515.046875,236.347656 C515.039062,237.449224 515.347653,238.253904 515.972656,238.761719 C516.597659,239.269534 517.281246,239.523438 518.023438,239.523438 C518.765629,239.523438 519.449216,239.253909 520.074219,238.714844 C520.691409,238.183591 520.996094,237.417974 520.988281,236.417969 L520.988281,228.613281 L522.792969,228.613281 L522.792969,241 L520.988281,241 L520.988281,239.722656 C520.691405,240.214846 520.253909,240.589842 519.675781,240.847656 C519.097653,241.10547 518.546878,241.234375 518.023438,241.234375 Z M536.835938,230.582031 C536.367185,230.199217 535.773441,230.007812 535.054688,230.007812 C534.335934,230.007812 533.757815,230.167967 533.320312,230.488281 C532.88281,230.808595 532.664062,231.238279 532.664062,231.777344 C532.664062,232.316409 532.824217,232.718749 533.144531,232.984375 C533.464845,233.250001 533.871091,233.433593 534.363281,233.535156 L536.695312,234.109375 C537.617192,234.335939 538.374997,234.722654 538.96875,235.269531 C539.562503,235.824222 539.859375,236.687494 539.859375,237.859375 C539.859375,239.031256 539.445317,239.890622 538.617188,240.4375 C537.789058,240.984378 536.734381,241.25 535.453125,241.234375 C534.171869,241.234375 533.054692,240.906253 532.101562,240.25 C531.14062,239.593747 530.613282,238.523445 530.519531,237.039062 L532.371094,237.039062 C532.449219,237.906254 532.785153,238.535154 533.378906,238.925781 C533.964847,239.316408 534.679683,239.511719 535.523438,239.511719 C536.367192,239.511719 536.992185,239.351564 537.398438,239.03125 C537.80469,238.703123 538.011719,238.30469 538.019531,237.835938 C538.027344,237.367185 537.91797,236.968752 537.691406,236.640625 C537.45703,236.312498 536.996097,236.070313 536.308594,235.914062 L533.882812,235.316406 C533.210934,235.160155 532.53516,234.824221 531.855469,234.308594 C531.175778,233.792966 530.835938,232.976568 530.835938,231.859375 C530.835938,230.749994 531.24609,229.875003 532.066406,229.234375 C532.886723,228.593747 533.894525,228.273438 535.089844,228.273438 C536.285162,228.273438 537.304683,228.589841 538.148438,229.222656 C538.984379,229.855472 539.449218,230.859368 539.542969,232.234375 L537.703125,232.234375 C537.593749,231.515621 537.30469,230.964846 536.835938,230.582031 Z M562.855469,230.347656 L562.855469,228.613281 L567.824219,228.613281 L567.824219,239.277344 L572.183594,239.277344 L572.183594,241 L561.648438,241 L561.648438,239.277344 L566.019531,239.277344 L566.019531,230.347656 L562.855469,230.347656 Z M565.421875,226.84375 L565.421875,224.195312 L568.058594,224.195312 L568.058594,226.84375 L565.421875,226.84375 Z M585.605469,230.582031 C585.136716,230.199217 584.542972,230.007812 583.824219,230.007812 C583.105465,230.007812 582.527346,230.167967 582.089844,230.488281 C581.652342,230.808595 581.433594,231.238279 581.433594,231.777344 C581.433594,232.316409 581.593748,232.718749 581.914062,232.984375 C582.234377,233.250001 582.640623,233.433593 583.132812,233.535156 L585.464844,234.109375 C586.386723,234.335939 587.144528,234.722654 587.738281,235.269531 C588.332034,235.824222 588.628906,236.687494 588.628906,237.859375 C588.628906,239.031256 588.214848,239.890622 587.386719,240.4375 C586.55859,240.984378 585.503913,241.25 584.222656,241.234375 C582.9414,241.234375 581.824224,240.906253 580.871094,240.25 C579.910151,239.593747 579.382813,238.523445 579.289062,237.039062 L581.140625,237.039062 C581.21875,237.906254 581.554685,238.535154 582.148438,238.925781 C582.734378,239.316408 583.449215,239.511719 584.292969,239.511719 C585.136723,239.511719 585.761717,239.351564 586.167969,239.03125 C586.574221,238.703123 586.78125,238.30469 586.789062,237.835938 C586.796875,237.367185 586.687501,236.968752 586.460938,236.640625 C586.226561,236.312498 585.765628,236.070313 585.078125,235.914062 L582.652344,235.316406 C581.980465,235.160155 581.304691,234.824221 580.625,234.308594 C579.945309,233.792966 579.605469,232.976568 579.605469,231.859375 C579.605469,230.749994 580.015621,229.875003 580.835938,229.234375 C581.656254,228.593747 582.664057,228.273438 583.859375,228.273438 C585.054693,228.273438 586.074215,228.589841 586.917969,229.222656 C587.75391,229.855472 588.21875,230.859368 588.3125,232.234375 L586.472656,232.234375 C586.363281,231.515621 586.074221,230.964846 585.605469,230.582031 Z M465.234375,258.929688 L465.234375,257.195312 L470.203125,257.195312 L470.203125,272.277344 L474.574219,272.277344 L474.574219,274 L464.039062,274 L464.039062,272.277344 L468.410156,272.277344 L468.410156,258.929688 L465.234375,258.929688 Z M482.40625,263.347656 L482.40625,261.613281 L487.375,261.613281 L487.375,272.277344 L491.734375,272.277344 L491.734375,274 L481.199219,274 L481.199219,272.277344 L485.570312,272.277344 L485.570312,263.347656 L482.40625,263.347656 Z M484.972656,259.84375 L484.972656,257.195312 L487.609375,257.195312 L487.609375,259.84375 L484.972656,259.84375 Z M508.953125,261.613281 L504.488281,274 L502.472656,274 L498.007812,261.613281 L499.917969,261.613281 L503.480469,271.667969 L507.03125,261.613281 L508.953125,261.613281 Z M516.585938,263.347656 L516.585938,261.613281 L521.554688,261.613281 L521.554688,272.277344 L525.914062,272.277344 L525.914062,274 L515.378906,274 L515.378906,272.277344 L519.75,272.277344 L519.75,263.347656 L516.585938,263.347656 Z M519.152344,259.84375 L519.152344,257.195312 L521.789062,257.195312 L521.789062,259.84375 L519.152344,259.84375 Z M537.71875,261.285156 C539.835948,261.285156 541.304683,262.13671 542.125,263.839844 C542.414064,264.457034 542.554688,265.218745 542.546875,266.125 L542.546875,274 L540.753906,274 L540.753906,266.101562 C540.753906,265.070307 540.445316,264.296878 539.828125,263.78125 C539.210934,263.265622 538.50391,263.007812 537.707031,263.007812 C536.917965,263.007812 536.210941,263.269529 535.585938,263.792969 C534.960934,264.316409 534.652344,265.085932 534.660156,266.101562 L534.660156,274 L532.855469,274 L532.855469,261.613281 L534.660156,261.613281 L534.660156,262.796875 C534.964845,262.304685 535.406247,261.929689 535.984375,261.671875 C536.562503,261.414061 537.140622,261.285156 537.71875,261.285156 Z M552.6875,276.296875 C553.27344,276.718752 553.945309,276.929688 554.703125,276.929688 C555.460941,276.929688 556.152341,276.667971 556.777344,276.144531 C557.394534,275.621091 557.699219,274.851568 557.691406,273.835938 L557.691406,272.242188 C557.378905,272.726565 556.933597,273.101561 556.355469,273.367188 C555.777341,273.632814 555.203128,273.765625 554.632812,273.765625 C552.507802,273.765625 551.042973,272.910165 550.238281,271.199219 C549.949217,270.582028 549.804688,269.820317 549.804688,268.914062 L549.804688,266.125 C549.804688,264.460929 550.324214,263.199223 551.363281,262.339844 C552.207035,261.636715 553.300775,261.285156 554.644531,261.285156 C555.207034,261.292969 555.781247,261.421874 556.367188,261.671875 C556.953128,261.921876 557.39453,262.296873 557.691406,262.796875 L557.691406,261.613281 L559.496094,261.613281 L559.496094,273.8125 C559.496094,275.500008 558.976568,276.765621 557.9375,277.609375 C557.085933,278.304691 555.988288,278.652344 554.644531,278.652344 C552.667959,278.652344 551.250004,277.910164 550.390625,276.425781 C550.078123,275.878904 549.890625,275.207035 549.828125,274.410156 L551.644531,274.410156 C551.753907,275.246098 552.10156,275.874998 552.6875,276.296875 Z M551.597656,266.101562 L551.597656,268.9375 C551.597656,269.960943 551.906247,270.734372 552.523438,271.257812 C553.140628,271.77344 553.847652,272.03125 554.644531,272.03125 C555.44141,272.03125 556.152341,271.77344 556.777344,271.257812 C557.394534,270.734372 557.699219,269.960943 557.691406,268.9375 L557.691406,266.101562 C557.691406,265.070307 557.386722,264.296878 556.777344,263.78125 C556.167966,263.265622 555.457035,263.007812 554.644531,263.007812 C553.847652,263.007812 553.140628,263.265622 552.523438,263.78125 C551.906247,264.296878 551.597656,265.070307 551.597656,266.101562 Z M584.945312,263.347656 L584.945312,261.613281 L589.914062,261.613281 L589.914062,272.277344 L594.273438,272.277344 L594.273438,274 L583.738281,274 L583.738281,272.277344 L588.109375,272.277344 L588.109375,263.347656 L584.945312,263.347656 Z M587.511719,259.84375 L587.511719,257.195312 L590.148438,257.195312 L590.148438,259.84375 L587.511719,259.84375 Z M606.078125,261.285156 C608.195323,261.285156 609.664058,262.13671 610.484375,263.839844 C610.773439,264.457034 610.914063,265.218745 610.90625,266.125 L610.90625,274 L609.113281,274 L609.113281,266.101562 C609.113281,265.070307 608.804691,264.296878 608.1875,263.78125 C607.570309,263.265622 606.863285,263.007812 606.066406,263.007812 C605.27734,263.007812 604.570316,263.269529 603.945312,263.792969 C603.320309,264.316409 603.011719,265.085932 603.019531,266.101562 L603.019531,274 L601.214844,274 L601.214844,261.613281 L603.019531,261.613281 L603.019531,262.796875 C603.32422,262.304685 603.765622,261.929689 604.34375,261.671875 C604.921878,261.414061 605.499997,261.285156 606.078125,261.285156 Z M466.347656,311.417969 L464.542969,311.417969 L464.542969,294.613281 L466.347656,294.613281 L466.347656,295.796875 C466.652345,295.312498 467.093747,294.937501 467.671875,294.671875 C468.67188,294.218748 469.800775,294.160155 471.058594,294.496094 C472.3086,294.839845 473.22656,295.621088 473.8125,296.839844 C474.101564,297.457034 474.242188,298.218745 474.234375,299.125 L474.234375,302.394531 C474.234375,303.308598 474.093751,304.070309 473.8125,304.679688 C473.015621,306.382821 471.546886,307.234375 469.40625,307.234375 C468.835935,307.234375 468.257815,307.109376 467.671875,306.859375 C467.085935,306.609374 466.644533,306.230471 466.347656,305.722656 L466.347656,311.417969 Z M472.441406,302.417969 L472.441406,299.101562 C472.441406,298.070307 472.132816,297.296878 471.515625,296.78125 C470.898434,296.265622 470.19141,296.007812 469.394531,296.007812 C468.597652,296.007812 467.890628,296.269529 467.273438,296.792969 C466.656247,297.316409 466.347656,298.085932 466.347656,299.101562 L466.347656,302.417969 C466.347656,303.441411 466.656247,304.210935 467.273438,304.726562 C467.890628,305.24219 468.597652,305.503906 469.394531,305.511719 C470.19141,305.503906 470.898434,305.24219 471.515625,304.726562 C472.132816,304.210935 472.441406,303.441411 472.441406,302.417969 Z M489.4375,302.417969 L489.4375,299.101562 C489.4375,298.070307 489.128909,297.296878 488.511719,296.78125 C487.894528,296.265622 487.187504,296.007812 486.390625,296.007812 C485.601559,296.007812 484.894534,296.269529 484.269531,296.792969 C483.644528,297.316409 483.332031,298.085932 483.332031,299.101562 L483.332031,302.417969 C483.332031,303.441411 483.640622,304.210935 484.257812,304.726562 C484.875003,305.24219 485.582027,305.503906 486.378906,305.511719 C487.175785,305.503906 487.886716,305.24219 488.511719,304.726562 C489.128909,304.210935 489.4375,303.441411 489.4375,302.417969 Z M491.230469,299.125 L491.230469,302.394531 C491.230469,304.058602 490.710943,305.320308 489.671875,306.179688 C488.828121,306.882816 487.734382,307.234375 486.390625,307.234375 C484.242177,307.234375 482.769535,306.382821 481.972656,304.679688 C481.683592,304.062497 481.539062,303.300786 481.539062,302.394531 L481.539062,299.125 C481.539062,297.460929 482.058589,296.199223 483.097656,295.339844 C483.94141,294.636715 485.039056,294.285156 486.390625,294.285156 C488.531261,294.285156 489.999996,295.13671 490.796875,296.839844 C491.085939,297.449222 491.230469,298.210933 491.230469,299.125 Z M508.953125,294.613281 L504.488281,307 L502.472656,307 L498.007812,294.613281 L499.917969,294.613281 L503.480469,304.667969 L507.03125,294.613281 L508.953125,294.613281 Z M523.640625,299.558594 L523.640625,299.101562 C523.640625,298.070307 523.332034,297.296878 522.714844,296.78125 C522.097653,296.265622 521.390629,296.007812 520.59375,296.007812 C519.804684,296.007812 519.097659,296.269529 518.472656,296.792969 C517.847653,297.316409 517.539062,298.085932 517.546875,299.101562 L517.546875,299.558594 L523.640625,299.558594 Z M517.546875,302.417969 C517.546875,303.441411 517.855466,304.210935 518.472656,304.726562 C519.089847,305.24219 519.773434,305.503906 520.523438,305.511719 C521.281254,305.511719 521.941403,305.312502 522.503906,304.914062 C523.066409,304.515623 523.421874,303.914067 523.570312,303.109375 L525.410156,303.109375 C525.253905,304.648445 524.679692,305.722653 523.6875,306.332031 C522.695308,306.941409 521.664068,307.242188 520.59375,307.234375 C518.445302,307.234375 516.97266,306.382821 516.175781,304.679688 C515.886717,304.062497 515.742188,303.300786 515.742188,302.394531 L515.742188,299.125 C515.742188,297.460929 516.261714,296.199223 517.300781,295.339844 C518.144535,294.636715 519.242181,294.285156 520.59375,294.285156 C522.734386,294.285156 524.203121,295.13671 525,296.839844 C525.289064,297.457034 525.433594,298.218745 525.433594,299.125 L525.433594,301.210938 L517.546875,301.210938 L517.546875,302.417969 Z M533.019531,296.347656 L533.019531,294.613281 L537.53125,294.613281 L537.53125,295.914062 C537.835939,295.421873 538.281247,295.046876 538.867188,294.789062 C539.453128,294.531249 540.023435,294.402344 540.578125,294.402344 L543.554688,294.402344 L543.554688,296.125 L540.578125,296.125 C539.781246,296.125 539.074222,296.386716 538.457031,296.910156 C537.839841,297.433596 537.53125,298.20312 537.53125,299.21875 L537.53125,305.277344 L542.359375,305.277344 L542.359375,307 L531.824219,307 L531.824219,305.277344 L535.738281,305.277344 L535.738281,296.347656 L533.019531,296.347656 Z M554.480469,296.347656 L554.480469,304.1875 C554.480469,304.593752 554.566405,304.874999 554.738281,305.03125 C554.910157,305.187501 555.207029,305.269531 555.628906,305.277344 L559.683594,305.277344 L559.683594,307 L555.628906,307 C554.480463,307 553.703127,306.77344 553.296875,306.320312 C552.890623,305.867185 552.683594,305.10938 552.675781,304.046875 L552.675781,296.347656 L549.148438,296.347656 L549.148438,294.613281 L552.675781,294.613281 L552.675781,291.8125 L554.480469,291.8125 L554.480469,294.613281 L559.683594,294.613281 L559.683594,296.347656 L554.480469,296.347656 Z M567.878906,311.417969 L567.878906,309.683594 L569.167969,309.683594 C569.550783,309.683594 569.812499,309.617188 569.953125,309.484375 C570.085938,309.351562 570.183593,309.179689 570.246094,308.96875 L570.902344,307.1875 L566.367188,294.613281 L568.277344,294.613281 L571.839844,304.667969 L575.390625,294.613281 L577.3125,294.613281 L571.6875,310.140625 C571.531249,310.61719 571.234377,310.945312 570.796875,311.125 C570.359373,311.304688 569.746098,311.402344 568.957031,311.417969 L567.878906,311.417969 Z" id="of-us-is-living-in-p"></path>
        </g>
    </g>
</svg>