<?xml version="1.0" encoding="UTF-8"?>
<svg width="1000px" height="462px" viewBox="0 0 1000 462" version="1.1" xmlns="http://www.w3.org/2000/svg" xmlns:xlink="http://www.w3.org/1999/xlink">
    <defs>
        <polygon id="path-1" points="95.4746838 0 0 0 0 455.750137 190.949368 455.750137 190.949368 0 95.4746838 0"></polygon>
    </defs>
    <g id="Page-1" stroke="none" stroke-width="1" fill="none" fill-rule="evenodd" transform="translate(203.5, 0.000000)">
        <g id="Group-25">
            <path d="M508.114094,362.926027 C508.114094,367.403573 504.473987,371.046575 500,371.046575 C495.526013,371.046575 491.885906,367.403573 491.885906,362.926027 L491.885906,236.120548 L407,236.120548 L407,362.926027 C407,414.246641 448.718926,456 500,456 C551.281074,456 593,414.246641 593,362.926027 L593,228 C593,176.679386 551.281074,134.926027 500,134.926027 C498.337235,134.926027 496.540899,134.974751 494.507383,135.075945 L491.885906,135.208373 L491.885906,84.9534247 L593,84.9534247 L593,0 L407,0 L407,219.879452 L500,219.879452 C504.473987,219.879452 508.114094,223.522455 508.114094,228 L508.114094,362.926027 Z" id="Page-1" fill="#E4E4E4"></path>
            <path d="M7.15625,9.41796875 L3.0078125,9.41796875 L3.0078125,15.171875 L7.15625,15.171875 C8.07031707,15.171875 8.7968723,14.9140651 9.3359375,14.3984375 C9.86719016,13.8828099 10.1328125,13.179692 10.1328125,12.2890625 C10.1328125,11.398433 9.86719016,10.6953151 9.3359375,10.1796875 C8.7968723,9.67187246 8.07031707,9.41796875 7.15625,9.41796875 Z M8.94921875,6.8046875 C9.46484633,6.27343484 9.72265625,5.60937898 9.72265625,4.8125 C9.72265625,4.01562102 9.46484633,3.35156516 8.94921875,2.8203125 C8.42577863,2.28905984 7.69531719,2.0234375 6.7578125,2.0234375 L3.0078125,2.0234375 L3.0078125,7.58984375 L6.7578125,7.58984375 C7.70312973,7.59765629 8.43359117,7.33594016 8.94921875,6.8046875 Z M1.15625,17 L1.15625,0.1953125 L6.7578125,0.1953125 C8.3984457,0.1953125 9.65233941,0.683588867 10.5195312,1.66015625 C11.2539099,2.48828539 11.6132813,3.53905613 11.5976562,4.8125 C11.5976562,5.62500406 11.425783,6.34374687 11.0820312,6.96875 C10.7382795,7.59375313 10.2968777,8.07421707 9.7578125,8.41015625 C10.5234413,8.79297066 11.0898419,9.34374641 11.4570312,10.0625 C11.8242206,10.7812536 12.0078125,11.4765591 12.0078125,12.1484375 C12.0078125,13.5625071 11.6523473,14.6874958 10.9414062,15.5234375 C10.097652,16.5078174 8.8359459,17 7.15625,17 L1.15625,17 Z M25.3085938,9.1015625 C25.3085938,8.07030734 25.0000031,7.29687758 24.3828125,6.78125 C23.7656219,6.26562242 23.082035,6.0078125 22.3320312,6.0078125 C21.5820275,6.0078125 20.9257841,6.20702926 20.3632812,6.60546875 C19.8007784,7.00390824 19.441407,7.60546473 19.2851562,8.41015625 L17.4453125,8.41015625 C17.6015633,6.87108605 18.1757763,5.79687805 19.1679688,5.1875 C20.1601612,4.57812195 21.1914009,4.27734371 22.2617188,4.28515625 C24.410167,4.28515625 25.8828085,5.13671023 26.6796875,6.83984375 C26.9687514,7.45703434 27.1132812,8.21874547 27.1132812,9.125 L27.1132812,17 L25.3085938,17 L25.3085938,15.7226562 C24.5195273,16.7460989 23.2343839,17.2500001 21.453125,17.234375 C20.3984322,17.234375 19.449223,16.937503 18.6054688,16.34375 C17.7617145,15.749997 17.34375,14.824225 17.3515625,13.5664062 C17.3515625,12.9414031 17.5312482,12.2695348 17.890625,11.5507812 C18.2500018,10.8320277 18.957026,10.320314 20.0117188,10.015625 C21.0664115,9.71093598 22.8320189,9.48046953 25.3085938,9.32421875 L25.3085938,9.1015625 Z M25.3085938,12.5351562 L25.3085938,10.9296875 C23.964837,11.023438 22.8867228,11.1249995 22.0742188,11.234375 C21.2617147,11.3437505 20.6367209,11.51953 20.1992188,11.7617188 C19.7617166,12.0039075 19.4804694,12.2695298 19.3554688,12.5585938 C19.214843,12.8476577 19.1445312,13.2187477 19.1445312,13.671875 C19.1445312,14.1250023 19.3632791,14.546873 19.8007812,14.9375 C20.2382834,15.3203144 20.9257766,15.5117188 21.8632812,15.5117188 C22.8007859,15.5195313 23.6093716,15.2656276 24.2890625,14.75 C24.9687534,14.2343724 25.3085938,13.4960986 25.3085938,12.5351562 Z M40.15625,6.58203125 C39.6874977,6.19921684 39.0937536,6.0078125 38.375,6.0078125 C37.6562464,6.0078125 37.0781272,6.16796715 36.640625,6.48828125 C36.2031228,6.80859535 35.984375,7.23827855 35.984375,7.77734375 C35.984375,8.31640895 36.1445296,8.71874867 36.4648437,8.984375 C36.7851579,9.25000133 37.1914038,9.43359324 37.6835937,9.53515625 L40.015625,10.109375 C40.9375046,10.3359386 41.6953095,10.7226535 42.2890625,11.2695312 C42.8828155,11.8242215 43.1796875,12.6874941 43.1796875,13.859375 C43.1796875,15.0312559 42.7656291,15.8906223 41.9375,16.4375 C41.1093709,16.9843777 40.0546939,17.2500001 38.7734375,17.234375 C37.4921811,17.234375 36.3750048,16.9062533 35.421875,16.25 C34.4609327,15.5937467 33.9335942,14.5234449 33.8398437,13.0390625 L35.6914062,13.0390625 C35.7695316,13.9062543 36.1054658,14.5351543 36.6992187,14.9257812 C37.2851592,15.3164082 37.9999958,15.5117188 38.84375,15.5117188 C39.6875042,15.5117188 40.312498,15.3515641 40.71875,15.03125 C41.125002,14.7031234 41.3320312,14.3046898 41.3398437,13.8359375 C41.3476563,13.3671852 41.2382824,12.9687516 41.0117187,12.640625 C40.7773426,12.3124984 40.3164097,12.0703133 39.6289062,11.9140625 L37.203125,11.3164062 C36.5312466,11.1601555 35.8554721,10.8242213 35.1757812,10.3085938 C34.4960904,9.79296617 34.15625,8.97656809 34.15625,7.859375 C34.15625,6.74999445 34.5664021,5.8750032 35.3867187,5.234375 C36.2070354,4.5937468 37.2148378,4.2734375 38.4101562,4.2734375 C39.6054747,4.2734375 40.6249958,4.58984059 41.46875,5.22265625 C42.3046917,5.85547191 42.7695308,6.85936813 42.8632812,8.234375 L41.0234375,8.234375 C40.914062,7.51562141 40.6250023,6.96484566 40.15625,6.58203125 Z M57.640625,9.55859375 L57.640625,9.1015625 C57.640625,8.07030734 57.3320343,7.29687758 56.7148438,6.78125 C56.0976532,6.26562242 55.390629,6.0078125 54.59375,6.0078125 C53.8046836,6.0078125 53.0976594,6.26952863 52.4726562,6.79296875 C51.8476531,7.31640887 51.5390625,8.08593242 51.546875,9.1015625 L51.546875,9.55859375 L57.640625,9.55859375 Z M51.546875,12.4179688 C51.546875,13.4414114 51.8554657,14.2109349 52.4726562,14.7265625 C53.0898468,15.2421901 53.7734338,15.5039062 54.5234375,15.5117188 C55.2812538,15.5117188 55.9414034,15.312502 56.5039062,14.9140625 C57.0664091,14.515623 57.4218743,13.9140665 57.5703125,13.109375 L59.4101562,13.109375 C59.2539055,14.6484452 58.6796925,15.7226532 57.6875,16.3320312 C56.6953075,16.9414093 55.6640679,17.2421875 54.59375,17.234375 C52.4453018,17.234375 50.9726602,16.382821 50.1757812,14.6796875 C49.8867173,14.0624969 49.7421875,13.3007858 49.7421875,12.3945312 L49.7421875,9.125 C49.7421875,7.46092918 50.2617136,6.19922305 51.3007812,5.33984375 C52.1445355,4.63671523 53.2421807,4.28515625 54.59375,4.28515625 C56.7343857,4.28515625 58.203121,5.13671023 59,6.83984375 C59.2890639,7.45703434 59.4335938,8.21874547 59.4335938,9.125 L59.4335938,11.2109375 L51.546875,11.2109375 L51.546875,12.4179688 Z M70.5429688,17.234375 C68.4101456,17.234375 66.9453165,16.382821 66.1484375,14.6796875 C65.8593736,14.0624969 65.7148438,13.3007858 65.7148438,12.3945312 L65.7148438,9.125 C65.7148438,7.46092918 66.2343698,6.19922305 67.2734375,5.33984375 C68.1171917,4.63671523 69.2109308,4.28515625 70.5546875,4.28515625 C71.1171903,4.29296879 71.6914033,4.42187375 72.2773438,4.671875 C72.8632842,4.92187625 73.304686,5.2968725 73.6015625,5.796875 L73.6015625,0.1953125 L75.40625,0.1953125 L75.40625,17 L73.6015625,17 L73.6015625,15.7226562 C73.2890609,16.2148462 72.8437529,16.5898425 72.265625,16.8476562 C71.6874971,17.10547 71.1132841,17.234375 70.5429688,17.234375 Z M67.5078125,9.1015625 L67.5078125,12.4179688 C67.5078125,13.4414114 67.8164032,14.2109349 68.4335938,14.7265625 C69.0507843,15.2421901 69.7578085,15.5039062 70.5546875,15.5117188 C71.3515665,15.5117188 72.0624969,15.2500026 72.6875,14.7265625 C73.3046906,14.2031224 73.609375,13.4335988 73.6015625,12.4179688 L73.6015625,9.1015625 C73.6015625,8.07030734 73.296878,7.29687758 72.6875,6.78125 C72.078122,6.26562242 71.3671916,6.0078125 70.5546875,6.0078125 C69.7578085,6.0078125 69.0507843,6.26562242 68.4335938,6.78125 C67.8164032,7.29687758 67.5078125,8.07030734 67.5078125,9.1015625 Z M104.386719,12.4179688 L104.386719,9.1015625 C104.386719,8.07030734 104.078128,7.29687758 103.460937,6.78125 C102.843747,6.26562242 102.136723,6.0078125 101.339844,6.0078125 C100.550777,6.0078125 99.8437531,6.26952863 99.21875,6.79296875 C98.5937469,7.31640887 98.28125,8.08593242 98.28125,9.1015625 L98.28125,12.4179688 C98.28125,13.4414114 98.5898407,14.2109349 99.2070312,14.7265625 C99.8242218,15.2421901 100.531246,15.5039062 101.328125,15.5117188 C102.125004,15.5039062 102.835934,15.2421901 103.460937,14.7265625 C104.078128,14.2109349 104.386719,13.4414114 104.386719,12.4179688 Z M106.179688,9.125 L106.179688,12.3945312 C106.179688,14.0586021 105.660161,15.3203082 104.621094,16.1796875 C103.77734,16.882816 102.6836,17.234375 101.339844,17.234375 C99.1913955,17.234375 97.718754,16.382821 96.921875,14.6796875 C96.6328111,14.0624969 96.4882812,13.3007858 96.4882812,12.3945312 L96.4882812,9.125 C96.4882812,7.46092918 97.0078073,6.19922305 98.046875,5.33984375 C98.8906292,4.63671523 99.9882745,4.28515625 101.339844,4.28515625 C103.480479,4.28515625 104.949215,5.13671023 105.746094,6.83984375 C106.035158,7.4492218 106.179688,8.21093293 106.179688,9.125 Z M117.488281,4.28515625 C119.605479,4.28515625 121.074215,5.13671023 121.894531,6.83984375 C122.183595,7.45703434 122.324219,8.21874547 122.316406,9.125 L122.316406,17 L120.523437,17 L120.523437,9.1015625 C120.523437,8.07030734 120.214847,7.29687758 119.597656,6.78125 C118.980466,6.26562242 118.273441,6.0078125 117.476562,6.0078125 C116.687496,6.0078125 115.980472,6.26952863 115.355469,6.79296875 C114.730466,7.31640887 114.421875,8.08593242 114.429687,9.1015625 L114.429687,17 L112.625,17 L112.625,4.61328125 L114.429687,4.61328125 L114.429687,5.796875 C114.734377,5.30468504 115.175778,4.92968879 115.753906,4.671875 C116.332034,4.41406121 116.910153,4.28515625 117.488281,4.28515625 Z M1.953125,39.8398438 C2.75000398,38.1367102 4.1835834,37.2851562 6.25390625,37.2851562 C8.3242291,37.2851562 9.78124578,38.0273363 10.625,39.5117188 C10.9375016,40.0585965 11.1249997,40.7304648 11.1875,41.5273438 L9.37109375,41.5273438 C9.2617182,40.6914021 8.91406543,40.0625021 8.328125,39.640625 C7.74218457,39.2187479 7.07031629,39.0078125 6.3125,39.0078125 C5.56249625,39.0078125 4.87500313,39.2695286 4.25,39.7929688 C3.62499687,40.3164089 3.31640621,41.0859324 3.32421875,42.1015625 L3.32421875,45.4179688 C3.33203129,46.4414114 3.64062195,47.2109349 4.25,47.7265625 C4.85937805,48.2421901 5.54687117,48.5039062 6.3125,48.5117188 C7.07812883,48.5117188 7.74999711,48.3007834 8.328125,47.8789062 C8.91406543,47.4570291 9.2617182,46.8281292 9.37109375,45.9921875 L11.1875,45.9921875 C11.0703119,47.4531323 10.5078175,48.5624962 9.5,49.3203125 C8.68749594,49.9296905 7.64453762,50.234375 6.37109375,50.234375 C4.20702043,50.234375 2.73437891,49.3867272 1.953125,47.6914062 C1.66406105,47.0664031 1.51953125,46.3007858 1.51953125,45.3945312 L1.51953125,42.125 C1.51953125,41.2109329 1.66406105,40.4492218 1.953125,39.8398438 Z M22.34375,50.234375 C20.2812397,50.234375 18.8398479,49.4101645 18.0195312,47.7617188 C17.7148422,47.1445282 17.5625,46.3789108 17.5625,45.4648438 L17.5625,37.6132812 L19.3671875,37.6132812 L19.3671875,45.3476562 C19.359375,46.4492243 19.6679656,47.2539037 20.2929688,47.7617188 C20.9179719,48.2695338 21.6015588,48.5234375 22.34375,48.5234375 C23.0859412,48.5234375 23.7695281,48.2539089 24.3945312,47.7148438 C25.0117218,47.1835911 25.3164063,46.4179738 25.3085938,45.4179688 L25.3085938,37.6132812 L27.1132812,37.6132812 L27.1132812,50 L25.3085938,50 L25.3085938,48.7226562 C25.0117173,49.2148462 24.5742216,49.5898425 23.9960938,49.8476562 C23.4179659,50.10547 22.8671901,50.234375 22.34375,50.234375 Z M33.8398438,39.3476562 L33.8398438,37.6132812 L38.3515625,37.6132812 L38.3515625,38.9140625 C38.6562515,38.4218725 39.1015596,38.0468763 39.6875,37.7890625 C40.2734404,37.5312487 40.8437472,37.4023438 41.3984375,37.4023438 L44.375,37.4023438 L44.375,39.125 L41.3984375,39.125 C40.6015585,39.125 39.8945343,39.3867161 39.2773438,39.9101562 C38.6601532,40.4335964 38.3515625,41.2031199 38.3515625,42.21875 L38.3515625,48.2773438 L43.1796875,48.2773438 L43.1796875,50 L32.6445312,50 L32.6445312,48.2773438 L36.5585938,48.2773438 L36.5585938,39.3476562 L33.8398438,39.3476562 Z M49.9296875,39.3476562 L49.9296875,37.6132812 L54.4414062,37.6132812 L54.4414062,38.9140625 C54.7460953,38.4218725 55.1914033,38.0468763 55.7773437,37.7890625 C56.3632842,37.5312487 56.933591,37.4023438 57.4882812,37.4023438 L60.4648437,37.4023438 L60.4648437,39.125 L57.4882812,39.125 C56.6914023,39.125 55.9843781,39.3867161 55.3671875,39.9101562 C54.7499969,40.4335964 54.4414062,41.2031199 54.4414062,42.21875 L54.4414062,48.2773438 L59.2695312,48.2773438 L59.2695312,50 L48.734375,50 L48.734375,48.2773438 L52.6484375,48.2773438 L52.6484375,39.3476562 L49.9296875,39.3476562 Z M73.7304687,42.5585938 L73.7304687,42.1015625 C73.7304687,41.0703073 73.4218781,40.2968776 72.8046875,39.78125 C72.1874969,39.2656224 71.4804727,39.0078125 70.6835937,39.0078125 C69.8945273,39.0078125 69.1875031,39.2695286 68.5625,39.7929688 C67.9374969,40.3164089 67.6289062,41.0859324 67.6367187,42.1015625 L67.6367187,42.5585938 L73.7304687,42.5585938 Z M67.6367188,45.4179688 C67.6367188,46.4414114 67.9453094,47.2109349 68.5625,47.7265625 C69.1796906,48.2421901 69.8632775,48.5039062 70.6132812,48.5117188 C71.3710975,48.5117188 72.0312472,48.312502 72.59375,47.9140625 C73.1562528,47.515623 73.511718,46.9140665 73.6601562,46.109375 L75.5,46.109375 C75.3437492,47.6484452 74.7695362,48.7226532 73.7773438,49.3320312 C72.7851513,49.9414093 71.7539116,50.2421875 70.6835938,50.234375 C68.5351455,50.234375 67.062504,49.382821 66.265625,47.6796875 C65.9765611,47.0624969 65.8320312,46.3007858 65.8320312,45.3945312 L65.8320312,42.125 C65.8320312,40.4609292 66.3515573,39.199223 67.390625,38.3398438 C68.2343792,37.6367152 69.3320245,37.2851562 70.6835938,37.2851562 C72.8242295,37.2851562 74.2929648,38.1367102 75.0898438,39.8398438 C75.3789077,40.4570343 75.5234375,41.2187455 75.5234375,42.125 L75.5234375,44.2109375 L67.6367188,44.2109375 L67.6367188,45.4179688 Z M86.8085938,37.2851562 C88.9257918,37.2851562 90.3945271,38.1367102 91.2148438,39.8398438 C91.5039077,40.4570343 91.6445313,41.2187455 91.6367188,42.125 L91.6367188,50 L89.84375,50 L89.84375,42.1015625 C89.84375,41.0703073 89.5351593,40.2968776 88.9179688,39.78125 C88.3007782,39.2656224 87.593754,39.0078125 86.796875,39.0078125 C86.0078086,39.0078125 85.3007844,39.2695286 84.6757812,39.7929688 C84.0507781,40.3164089 83.7421875,41.0859324 83.75,42.1015625 L83.75,50 L81.9453125,50 L81.9453125,37.6132812 L83.75,37.6132812 L83.75,38.796875 C84.054689,38.304685 84.4960909,37.9296888 85.0742188,37.671875 C85.6523466,37.4140612 86.2304659,37.2851562 86.8085938,37.2851562 Z M102.570312,39.3476562 L102.570312,47.1875 C102.570312,47.593752 102.656249,47.8749992 102.828125,48.03125 C103.000001,48.1875008 103.296873,48.2695312 103.71875,48.2773438 L107.773438,48.2773438 L107.773438,50 L103.71875,50 C102.570307,50 101.792971,49.7734398 101.386719,49.3203125 C100.980467,48.8671852 100.773438,48.1093803 100.765625,47.046875 L100.765625,39.3476562 L97.2382812,39.3476562 L97.2382812,37.6132812 L100.765625,37.6132812 L100.765625,34.8125 L102.570312,34.8125 L102.570312,37.6132812 L107.773438,37.6132812 L107.773438,39.3476562 L102.570312,39.3476562 Z M6.03125,72.3476562 L6.03125,80.1875 C6.03125,80.593752 6.11718664,80.8749992 6.2890625,81.03125 C6.46093836,81.1875008 6.75781039,81.2695312 7.1796875,81.2773438 L11.234375,81.2773438 L11.234375,83 L7.1796875,83 C6.03124426,83 5.25390828,82.7734398 4.84765625,82.3203125 C4.44140422,81.8671852 4.23437504,81.1093803 4.2265625,80.046875 L4.2265625,72.3476562 L0.69921875,72.3476562 L0.69921875,70.6132812 L4.2265625,70.6132812 L4.2265625,67.8125 L6.03125,67.8125 L6.03125,70.6132812 L11.234375,70.6132812 L11.234375,72.3476562 L6.03125,72.3476562 Z M17.75,72.3476562 L17.75,70.6132812 L22.2617188,70.6132812 L22.2617188,71.9140625 C22.5664078,71.4218725 23.0117158,71.0468763 23.5976562,70.7890625 C24.1835967,70.5312487 24.7539035,70.4023438 25.3085938,70.4023438 L28.2851562,70.4023438 L28.2851562,72.125 L25.3085938,72.125 C24.5117148,72.125 23.8046906,72.3867161 23.1875,72.9101562 C22.5703094,73.4335964 22.2617188,74.2031199 22.2617188,75.21875 L22.2617188,81.2773438 L27.0898438,81.2773438 L27.0898438,83 L16.5546875,83 L16.5546875,81.2773438 L20.46875,81.2773438 L20.46875,72.3476562 L17.75,72.3476562 Z M41.5507812,75.5585938 L41.5507812,75.1015625 C41.5507812,74.0703073 41.2421906,73.2968776 40.625,72.78125 C40.0078094,72.2656224 39.3007852,72.0078125 38.5039062,72.0078125 C37.7148398,72.0078125 37.0078156,72.2695286 36.3828125,72.7929688 C35.7578094,73.3164089 35.4492187,74.0859324 35.4570312,75.1015625 L35.4570312,75.5585938 L41.5507812,75.5585938 Z M35.4570312,78.4179688 C35.4570312,79.4414114 35.7656219,80.2109349 36.3828125,80.7265625 C37.0000031,81.2421901 37.68359,81.5039062 38.4335938,81.5117188 C39.19141,81.5117188 39.8515597,81.312502 40.4140625,80.9140625 C40.9765653,80.515623 41.3320305,79.9140665 41.4804688,79.109375 L43.3203125,79.109375 C43.1640617,80.6484452 42.5898487,81.7226532 41.5976562,82.3320312 C40.6054638,82.9414093 39.5742241,83.2421875 38.5039062,83.234375 C36.355458,83.234375 34.8828165,82.382821 34.0859375,80.6796875 C33.7968736,80.0624969 33.6523438,79.3007858 33.6523438,78.3945312 L33.6523438,75.125 C33.6523438,73.4609292 34.1718698,72.199223 35.2109375,71.3398438 C36.0546917,70.6367152 37.152337,70.2851562 38.5039062,70.2851562 C40.644542,70.2851562 42.1132773,71.1367102 42.9101562,72.8398438 C43.1992202,73.4570343 43.34375,74.2187455 43.34375,75.125 L43.34375,77.2109375 L35.4570312,77.2109375 L35.4570312,78.4179688 Z M54.6289062,70.2851562 C56.7461043,70.2851562 58.2148396,71.1367102 59.0351562,72.8398438 C59.3242202,73.4570343 59.4648438,74.2187455 59.4570312,75.125 L59.4570312,83 L57.6640625,83 L57.6640625,75.1015625 C57.6640625,74.0703073 57.3554718,73.2968776 56.7382812,72.78125 C56.1210907,72.2656224 55.4140665,72.0078125 54.6171875,72.0078125 C53.8281211,72.0078125 53.1210969,72.2695286 52.4960937,72.7929688 C51.8710906,73.3164089 51.5625,74.0859324 51.5703125,75.1015625 L51.5703125,83 L49.765625,83 L49.765625,70.6132812 L51.5703125,70.6132812 L51.5703125,71.796875 C51.8750015,71.304685 52.3164034,70.9296888 52.8945312,70.671875 C53.4726591,70.4140612 54.0507784,70.2851562 54.6289062,70.2851562 Z M70.5429688,83.234375 C68.4101456,83.234375 66.9453165,82.382821 66.1484375,80.6796875 C65.8593736,80.0624969 65.7148438,79.3007858 65.7148438,78.3945312 L65.7148438,75.125 C65.7148438,73.4609292 66.2343698,72.199223 67.2734375,71.3398438 C68.1171917,70.6367152 69.2109308,70.2851562 70.5546875,70.2851562 C71.1171903,70.2929688 71.6914033,70.4218738 72.2773438,70.671875 C72.8632842,70.9218762 73.304686,71.2968725 73.6015625,71.796875 L73.6015625,66.1953125 L75.40625,66.1953125 L75.40625,83 L73.6015625,83 L73.6015625,81.7226562 C73.2890609,82.2148462 72.8437529,82.5898425 72.265625,82.8476562 C71.6874971,83.10547 71.1132841,83.234375 70.5429688,83.234375 Z M67.5078125,75.1015625 L67.5078125,78.4179688 C67.5078125,79.4414114 67.8164032,80.2109349 68.4335938,80.7265625 C69.0507843,81.2421901 69.7578085,81.5039062 70.5546875,81.5117188 C71.3515665,81.5117188 72.0624969,81.2500026 72.6875,80.7265625 C73.3046906,80.2031224 73.609375,79.4335988 73.6015625,78.4179688 L73.6015625,75.1015625 C73.6015625,74.0703073 73.296878,73.2968776 72.6875,72.78125 C72.078122,72.2656224 71.3671916,72.0078125 70.5546875,72.0078125 C69.7578085,72.0078125 69.0507843,72.2656224 68.4335938,72.78125 C67.8164032,73.2968776 67.5078125,74.0703073 67.5078125,75.1015625 Z M88.4257812,72.5820312 C87.9570289,72.1992168 87.3632848,72.0078125 86.6445312,72.0078125 C85.9257777,72.0078125 85.3476584,72.1679671 84.9101562,72.4882812 C84.4726541,72.8085954 84.2539062,73.2382786 84.2539062,73.7773438 C84.2539062,74.3164089 84.4140609,74.7187487 84.734375,74.984375 C85.0546891,75.2500013 85.460935,75.4335932 85.953125,75.5351562 L88.2851562,76.109375 C89.2070359,76.3359386 89.9648408,76.7226535 90.5585937,77.2695312 C91.1523467,77.8242215 91.4492187,78.6874941 91.4492187,79.859375 C91.4492187,81.0312559 91.0351604,81.8906223 90.2070312,82.4375 C89.3789021,82.9843777 88.3242252,83.2500001 87.0429687,83.234375 C85.7617123,83.234375 84.644536,82.9062533 83.6914062,82.25 C82.7304639,81.5937467 82.2031255,80.5234449 82.109375,79.0390625 L83.9609375,79.0390625 C84.0390629,79.9062543 84.374997,80.5351543 84.96875,80.9257812 C85.5546904,81.3164082 86.269527,81.5117188 87.1132812,81.5117188 C87.9570355,81.5117188 88.5820292,81.3515641 88.9882812,81.03125 C89.3945333,80.7031234 89.6015625,80.3046898 89.609375,79.8359375 C89.6171875,79.3671852 89.5078136,78.9687516 89.28125,78.640625 C89.0468738,78.3124984 88.5859409,78.0703133 87.8984375,77.9140625 L85.4726562,77.3164062 C84.8007779,77.1601555 84.1250034,76.8242213 83.4453125,76.3085938 C82.7656216,75.7929662 82.4257812,74.9765681 82.4257812,73.859375 C82.4257812,72.7499945 82.8359334,71.8750032 83.65625,71.234375 C84.4765666,70.5937468 85.484369,70.2734375 86.6796875,70.2734375 C87.875006,70.2734375 88.894527,70.5898406 89.7382812,71.2226562 C90.5742229,71.8554719 91.039062,72.8593681 91.1328125,74.234375 L89.2929687,74.234375 C89.1835932,73.5156214 88.8945336,72.9648457 88.4257812,72.5820312 Z M100.097656,86.984375 L98.7734375,85.6601562 L103.671875,80.796875 L104.996094,82.109375 L100.097656,86.984375 Z M137.196875,73.7070312 L137.196875,83 L135.403906,83 L135.403906,73.7070312 C135.403906,73.2148413 135.278907,72.8085954 135.028906,72.4882812 C134.786718,72.1679671 134.407815,72.0078125 133.892187,72.0078125 C133.37656,72.0078125 132.989845,72.1679671 132.732031,72.4882812 C132.474217,72.8085954 132.345312,73.2148413 132.345312,73.7070312 L132.345312,83 L130.552344,83 L130.552344,73.7070312 C130.552344,73.2148413 130.427345,72.8085954 130.177344,72.4882812 C129.935155,72.1679671 129.556253,72.0078125 129.040625,72.0078125 C128.524997,72.0078125 128.142189,72.1679671 127.892187,72.4882812 C127.642186,72.8085954 127.513281,73.2148413 127.505469,73.7070312 L127.505469,83 L125.700781,83 L125.700781,70.6132812 L127.505469,70.6132812 L127.505469,71.2929688 C127.66172,70.9882797 127.899998,70.7421884 128.220312,70.5546875 C128.540627,70.3671866 128.899998,70.2773437 129.298437,70.2851562 C130.235942,70.2851562 130.950779,70.6601525 131.442969,71.4101562 C132.075784,70.6445274 132.907807,70.265625 133.939062,70.2734375 C134.970318,70.28125 135.771091,70.613278 136.341406,71.2695312 C136.911722,71.9257845 137.196875,72.7382764 137.196875,73.7070312 Z M148.927344,75.1015625 C148.927344,74.0703073 148.618753,73.2968776 148.001563,72.78125 C147.384372,72.2656224 146.700785,72.0078125 145.950781,72.0078125 C145.200778,72.0078125 144.544534,72.2070293 143.982031,72.6054688 C143.419528,73.0039082 143.060157,73.6054647 142.903906,74.4101562 L141.064063,74.4101562 C141.220313,72.8710861 141.794526,71.796878 142.786719,71.1875 C143.778911,70.578122 144.810151,70.2773437 145.880469,70.2851562 C148.028917,70.2851562 149.501559,71.1367102 150.298438,72.8398438 C150.587501,73.4570343 150.732031,74.2187455 150.732031,75.125 L150.732031,83 L148.927344,83 L148.927344,81.7226562 C148.138277,82.7460989 146.853134,83.2500001 145.071875,83.234375 C144.017182,83.234375 143.067973,82.937503 142.224219,82.34375 C141.380465,81.749997 140.9625,80.824225 140.970313,79.5664062 C140.970313,78.9414031 141.149998,78.2695348 141.509375,77.5507812 C141.868752,76.8320277 142.575776,76.320314 143.630469,76.015625 C144.685162,75.710936 146.450769,75.4804695 148.927344,75.3242188 L148.927344,75.1015625 Z M148.927344,78.5351562 L148.927344,76.9296875 C147.583587,77.023438 146.505473,77.1249995 145.692969,77.234375 C144.880465,77.3437505 144.255471,77.51953 143.817969,77.7617187 C143.380467,78.0039075 143.099219,78.2695298 142.974219,78.5585937 C142.833593,78.8476577 142.763281,79.2187477 142.763281,79.671875 C142.763281,80.1250023 142.982029,80.546873 143.419531,80.9375 C143.857033,81.3203144 144.544527,81.5117187 145.482031,81.5117187 C146.419536,81.5195313 147.228122,81.2656276 147.907813,80.75 C148.587503,80.2343724 148.927344,79.4960986 148.927344,78.5351562 Z M160.657812,70.2851562 C162.775011,70.2851562 164.243746,71.1367102 165.064062,72.8398438 C165.353126,73.4570343 165.49375,74.2187455 165.485937,75.125 L165.485937,83 L163.692969,83 L163.692969,75.1015625 C163.692969,74.0703073 163.384378,73.2968776 162.767187,72.78125 C162.149997,72.2656224 161.442973,72.0078125 160.646094,72.0078125 C159.857027,72.0078125 159.150003,72.2695286 158.525,72.7929688 C157.899997,73.3164089 157.591406,74.0859324 157.599219,75.1015625 L157.599219,83 L155.794531,83 L155.794531,70.6132812 L157.599219,70.6132812 L157.599219,71.796875 C157.903908,71.304685 158.34531,70.9296888 158.923437,70.671875 C159.501565,70.4140612 160.079685,70.2851562 160.657812,70.2851562 Z M171.228125,87.4179688 L171.228125,85.6835938 L172.517188,85.6835938 C172.900002,85.6835938 173.161718,85.6171882 173.302344,85.484375 C173.435157,85.3515618 173.532812,85.1796886 173.595313,84.96875 L174.251563,83.1875 L169.716406,70.6132812 L171.626563,70.6132812 L175.189063,80.6679688 L178.739844,70.6132812 L180.661719,70.6132812 L175.036719,86.140625 C174.880468,86.6171899 174.583596,86.9453116 174.146094,87.125 C173.708592,87.3046884 173.095316,87.4023437 172.30625,87.4179688 L171.228125,87.4179688 Z M9.34765625,111.417969 L9.34765625,108.101562 C9.34765625,107.070307 9.03906559,106.296878 8.421875,105.78125 C7.80468441,105.265622 7.09766023,105.007812 6.30078125,105.007812 C5.5117148,105.007812 4.80469063,105.269529 4.1796875,105.792969 C3.55468437,106.316409 3.2421875,107.085932 3.2421875,108.101562 L3.2421875,111.417969 C3.2421875,112.441411 3.55077816,113.210935 4.16796875,113.726562 C4.78515934,114.24219 5.49218352,114.503906 6.2890625,114.511719 C7.08594148,114.503906 7.79687188,114.24219 8.421875,113.726562 C9.03906559,113.210935 9.34765625,112.441411 9.34765625,111.417969 Z M11.140625,108.125 L11.140625,111.394531 C11.140625,113.058602 10.6210989,114.320308 9.58203125,115.179688 C8.73827703,115.882816 7.64453797,116.234375 6.30078125,116.234375 C4.15233301,116.234375 2.67969148,115.382821 1.8828125,113.679688 C1.59374855,113.062497 1.44921875,112.300786 1.44921875,111.394531 L1.44921875,108.125 C1.44921875,106.460929 1.9687448,105.199223 3.0078125,104.339844 C3.85156672,103.636715 4.94921199,103.285156 6.30078125,103.285156 C8.44141695,103.285156 9.91015227,104.13671 10.7070312,105.839844 C10.9960952,106.449222 11.140625,107.210933 11.140625,108.125 Z M25.9765625,100.929688 L21.921875,100.929688 C21.4921854,100.929688 21.1914071,101.007812 21.0195312,101.164062 C20.8476554,101.320313 20.7617188,101.60156 20.7617188,102.007812 L20.7617188,103.613281 L25.9765625,103.613281 L25.9765625,105.347656 L20.7617188,105.347656 L20.7617188,116 L18.96875,116 L18.96875,105.347656 L15.4414062,105.347656 L15.4414062,103.613281 L18.96875,103.613281 L18.96875,102.148438 C18.96875,101.093745 19.171873,100.339846 19.578125,99.8867188 C19.984377,99.4335915 20.7656192,99.203125 21.921875,99.1953125 L25.9765625,99.1953125 L25.9765625,100.929688 Z M50.0234375,116.234375 C47.9609272,116.234375 46.5195354,115.410164 45.6992187,113.761719 C45.3945297,113.144528 45.2421875,112.378911 45.2421875,111.464844 L45.2421875,103.613281 L47.046875,103.613281 L47.046875,111.347656 C47.0390625,112.449224 47.3476531,113.253904 47.9726562,113.761719 C48.5976594,114.269534 49.2812463,114.523437 50.0234375,114.523437 C50.7656287,114.523437 51.4492156,114.253909 52.0742187,113.714844 C52.6914093,113.183591 52.9960938,112.417974 52.9882812,111.417969 L52.9882812,103.613281 L54.7929687,103.613281 L54.7929687,116 L52.9882812,116 L52.9882812,114.722656 C52.6914048,115.214846 52.2539091,115.589842 51.6757812,115.847656 C51.0976534,116.10547 50.5468776,116.234375 50.0234375,116.234375 Z M66.3359375,105.582031 C65.8671852,105.199217 65.2734411,105.007812 64.5546875,105.007812 C63.8359339,105.007812 63.2578147,105.167967 62.8203125,105.488281 C62.3828103,105.808595 62.1640625,106.238279 62.1640625,106.777344 C62.1640625,107.316409 62.3242171,107.718749 62.6445312,107.984375 C62.9648454,108.250001 63.3710913,108.433593 63.8632812,108.535156 L66.1953125,109.109375 C67.1171921,109.335939 67.874997,109.722654 68.46875,110.269531 C69.062503,110.824222 69.359375,111.687494 69.359375,112.859375 C69.359375,114.031256 68.9453166,114.890622 68.1171875,115.4375 C67.2890584,115.984378 66.2343814,116.25 64.953125,116.234375 C63.6718686,116.234375 62.5546923,115.906253 61.6015625,115.25 C60.6406202,114.593747 60.1132817,113.523445 60.0195312,112.039062 L61.8710938,112.039062 C61.9492191,112.906254 62.2851533,113.535154 62.8789062,113.925781 C63.4648467,114.316408 64.1796833,114.511719 65.0234375,114.511719 C65.8671917,114.511719 66.4921855,114.351564 66.8984375,114.03125 C67.3046895,113.703123 67.5117187,113.30469 67.5195312,112.835938 C67.5273438,112.367185 67.4179699,111.968752 67.1914062,111.640625 C66.9570301,111.312498 66.4960972,111.070313 65.8085938,110.914062 L63.3828125,110.316406 C62.7109341,110.160155 62.0351596,109.824221 61.3554688,109.308594 C60.6757779,108.792966 60.3359375,107.976568 60.3359375,106.859375 C60.3359375,105.749994 60.7460896,104.875003 61.5664062,104.234375 C62.3867229,103.593747 63.3945253,103.273438 64.5898438,103.273438 C65.7851622,103.273438 66.8046833,103.589841 67.6484375,104.222656 C68.4843792,104.855472 68.9492183,105.859368 69.0429688,107.234375 L67.203125,107.234375 C67.0937495,106.515621 66.8046898,105.964846 66.3359375,105.582031 Z M94.6953125,105.535156 L96.8164062,112.589844 L98.1523437,103.613281 L99.9335937,103.613281 L97.9414062,116 L96.3359375,116 L93.8398437,107.890625 L91.34375,116 L89.7265625,116 L87.734375,103.613281 L89.515625,103.613281 L90.8632812,112.589844 L92.9726562,105.535156 L94.6953125,105.535156 Z M111.476562,111.417969 L111.476562,108.101562 C111.476562,107.070307 111.167972,106.296878 110.550781,105.78125 C109.933591,105.265622 109.226566,105.007812 108.429687,105.007812 C107.640621,105.007812 106.933597,105.269529 106.308594,105.792969 C105.683591,106.316409 105.371094,107.085932 105.371094,108.101562 L105.371094,111.417969 C105.371094,112.441411 105.679684,113.210935 106.296875,113.726562 C106.914066,114.24219 107.62109,114.503906 108.417969,114.511719 C109.214848,114.503906 109.925778,114.24219 110.550781,113.726562 C111.167972,113.210935 111.476562,112.441411 111.476562,111.417969 Z M113.269531,108.125 L113.269531,111.394531 C113.269531,113.058602 112.750005,114.320308 111.710938,115.179688 C110.867183,115.882816 109.773444,116.234375 108.429688,116.234375 C106.281239,116.234375 104.808598,115.382821 104.011719,113.679688 C103.722655,113.062497 103.578125,112.300786 103.578125,111.394531 L103.578125,108.125 C103.578125,106.460929 104.097651,105.199223 105.136719,104.339844 C105.980473,103.636715 107.078118,103.285156 108.429688,103.285156 C110.570323,103.285156 112.039059,104.13671 112.835938,105.839844 C113.125001,106.449222 113.269531,107.210933 113.269531,108.125 Z M123.078125,103.285156 C125.195323,103.285156 126.664058,104.13671 127.484375,105.839844 C127.773439,106.457034 127.914063,107.218745 127.90625,108.125 L127.90625,116 L126.113281,116 L126.113281,108.101562 C126.113281,107.070307 125.804691,106.296878 125.1875,105.78125 C124.570309,105.265622 123.863285,105.007812 123.066406,105.007812 C122.27734,105.007812 121.570316,105.269529 120.945312,105.792969 C120.320309,106.316409 120.011719,107.085932 120.019531,108.101562 L120.019531,116 L118.214844,116 L118.214844,103.613281 L120.019531,103.613281 L120.019531,104.796875 C120.32422,104.304685 120.765622,103.929689 121.34375,103.671875 C121.921878,103.414061 122.499997,103.285156 123.078125,103.285156 Z M139.191406,99.5351562 L137.105469,104.796875 L135.992188,104.339844 L138.089844,99.078125 L139.191406,99.5351562 Z M151.929688,105.347656 L151.929688,113.1875 C151.929688,113.593752 152.015624,113.874999 152.1875,114.03125 C152.359376,114.187501 152.656248,114.269531 153.078125,114.277344 L157.132812,114.277344 L157.132812,116 L153.078125,116 C151.929682,116 151.152346,115.77344 150.746094,115.320312 C150.339842,114.867185 150.132813,114.10938 150.125,113.046875 L150.125,105.347656 L146.597656,105.347656 L146.597656,103.613281 L150.125,103.613281 L150.125,100.8125 L151.929688,100.8125 L151.929688,103.613281 L157.132812,103.613281 L157.132812,105.347656 L151.929688,105.347656 Z M9.44140625,144.417969 L9.44140625,141.101562 C9.44140625,140.070307 9.13281559,139.296878 8.515625,138.78125 C7.89843441,138.265622 7.19141023,138.007812 6.39453125,138.007812 C5.59765227,138.007812 4.89062809,138.269529 4.2734375,138.792969 C3.65624691,139.316409 3.34765625,140.085932 3.34765625,141.101562 L3.34765625,144.417969 C3.34765625,145.441411 3.65624691,146.210935 4.2734375,146.726562 C4.89062809,147.24219 5.59765227,147.503906 6.39453125,147.511719 C7.19141023,147.503906 7.89843441,147.24219 8.515625,146.726562 C9.13281559,146.210935 9.44140625,145.441411 9.44140625,144.417969 Z M3.34765625,149 L1.54296875,149 L1.54296875,132.195312 L3.34765625,132.195312 L3.34765625,137.796875 C3.65234527,137.312498 4.09374711,136.937501 4.671875,136.671875 C5.67188,136.218748 6.80077496,136.160155 8.05859375,136.496094 C9.3086,136.839845 10.2265596,137.621088 10.8125,138.839844 C11.1015639,139.457034 11.2421875,140.218745 11.234375,141.125 L11.234375,144.394531 C11.234375,145.308598 11.0937514,146.070309 10.8125,146.679688 C10.015621,148.382821 8.5468857,149.234375 6.40625,149.234375 C5.83593465,149.234375 5.25781543,149.109376 4.671875,148.859375 C4.08593457,148.609374 3.64453273,148.230471 3.34765625,147.722656 L3.34765625,149 Z M23.9609375,141.558594 L23.9609375,141.101562 C23.9609375,140.070307 23.6523468,139.296878 23.0351562,138.78125 C22.4179657,138.265622 21.7109415,138.007812 20.9140625,138.007812 C20.1249961,138.007812 19.4179719,138.269529 18.7929687,138.792969 C18.1679656,139.316409 17.859375,140.085932 17.8671875,141.101562 L17.8671875,141.558594 L23.9609375,141.558594 Z M17.8671875,144.417969 C17.8671875,145.441411 18.1757782,146.210935 18.7929688,146.726562 C19.4101593,147.24219 20.0937462,147.503906 20.84375,147.511719 C21.6015663,147.511719 22.2617159,147.312502 22.8242188,146.914062 C23.3867216,146.515623 23.7421868,145.914067 23.890625,145.109375 L25.7304688,145.109375 C25.574218,146.648445 25.000005,147.722653 24.0078125,148.332031 C23.01562,148.941409 21.9843804,149.242188 20.9140625,149.234375 C18.7656143,149.234375 17.2929727,148.382821 16.4960938,146.679688 C16.2070298,146.062497 16.0625,145.300786 16.0625,144.394531 L16.0625,141.125 C16.0625,139.460929 16.5820261,138.199223 17.6210938,137.339844 C18.464848,136.636715 19.5624932,136.285156 20.9140625,136.285156 C23.0546982,136.285156 24.5234335,137.13671 25.3203125,138.839844 C25.6093764,139.457034 25.7539062,140.218745 25.7539062,141.125 L25.7539062,143.210938 L17.8671875,143.210938 L17.8671875,144.417969 Z M52.9882812,141.101562 C52.9882812,140.070307 52.6796906,139.296878 52.0625,138.78125 C51.4453094,138.265622 50.7617225,138.007812 50.0117188,138.007812 C49.261715,138.007812 48.6054716,138.207029 48.0429688,138.605469 C47.4804659,139.003908 47.1210945,139.605465 46.9648438,140.410156 L45.125,140.410156 C45.2812508,138.871086 45.8554638,137.796878 46.8476562,137.1875 C47.8398487,136.578122 48.8710884,136.277344 49.9414062,136.285156 C52.0898545,136.285156 53.562496,137.13671 54.359375,138.839844 C54.6484389,139.457034 54.7929688,140.218745 54.7929688,141.125 L54.7929688,149 L52.9882812,149 L52.9882812,147.722656 C52.1992148,148.746099 50.9140714,149.25 49.1328125,149.234375 C48.0781197,149.234375 47.1289105,148.937503 46.2851562,148.34375 C45.441402,147.749997 45.0234375,146.824225 45.03125,145.566406 C45.03125,144.941403 45.2109357,144.269535 45.5703125,143.550781 C45.9296893,142.832028 46.6367135,142.320314 47.6914062,142.015625 C48.746099,141.710936 50.5117064,141.48047 52.9882812,141.324219 L52.9882812,141.101562 Z M52.9882812,144.535156 L52.9882812,142.929688 C51.6445245,143.023438 50.5664103,143.124999 49.7539062,143.234375 C48.9414022,143.343751 48.3164084,143.51953 47.8789062,143.761719 C47.4414041,144.003907 47.1601569,144.26953 47.0351562,144.558594 C46.8945305,144.847658 46.8242188,145.218748 46.8242188,145.671875 C46.8242188,146.125002 47.0429666,146.546873 47.4804688,146.9375 C47.9179709,147.320314 48.6054641,147.511719 49.5429688,147.511719 C50.4804734,147.519531 51.2890591,147.265628 51.96875,146.75 C52.6484409,146.234372 52.9882812,145.496099 52.9882812,144.535156 Z M67.8007812,144.417969 L67.8007812,141.101562 C67.8007812,140.070307 67.4921906,139.296878 66.875,138.78125 C66.2578094,138.265622 65.5507852,138.007812 64.7539062,138.007812 C63.9570273,138.007812 63.2500031,138.269529 62.6328125,138.792969 C62.0156219,139.316409 61.7070312,140.085932 61.7070312,141.101562 L61.7070312,144.417969 C61.7070312,145.441411 62.0156219,146.210935 62.6328125,146.726562 C63.2500031,147.24219 63.9570273,147.503906 64.7539062,147.511719 C65.5507852,147.503906 66.2578094,147.24219 66.875,146.726562 C67.4921906,146.210935 67.8007812,145.441411 67.8007812,144.417969 Z M61.7070312,149 L59.9023437,149 L59.9023437,132.195312 L61.7070312,132.195312 L61.7070312,137.796875 C62.0117203,137.312498 62.4531221,136.937501 63.03125,136.671875 C64.031255,136.218748 65.16015,136.160155 66.4179687,136.496094 C67.667975,136.839845 68.5859346,137.621088 69.171875,138.839844 C69.4609389,139.457034 69.6015625,140.218745 69.59375,141.125 L69.59375,144.394531 C69.59375,145.308598 69.4531264,146.070309 69.171875,146.679688 C68.374996,148.382821 66.9062607,149.234375 64.765625,149.234375 C64.1953096,149.234375 63.6171904,149.109376 63.03125,148.859375 C62.4453096,148.609374 62.0039077,148.230471 61.7070312,147.722656 L61.7070312,149 Z M75.1835937,133.929688 L75.1835937,132.195312 L80.1523437,132.195312 L80.1523437,147.277344 L84.5234375,147.277344 L84.5234375,149 L73.9882812,149 L73.9882812,147.277344 L78.359375,147.277344 L78.359375,133.929688 L75.1835937,133.929688 Z M96.9101562,141.558594 L96.9101562,141.101562 C96.9101562,140.070307 96.6015656,139.296878 95.984375,138.78125 C95.3671844,138.265622 94.6601602,138.007812 93.8632812,138.007812 C93.0742148,138.007812 92.3671906,138.269529 91.7421875,138.792969 C91.1171844,139.316409 90.8085937,140.085932 90.8164062,141.101562 L90.8164062,141.558594 L96.9101562,141.558594 Z M90.8164062,144.417969 C90.8164062,145.441411 91.1249969,146.210935 91.7421875,146.726562 C92.3593781,147.24219 93.042965,147.503906 93.7929688,147.511719 C94.550785,147.511719 95.2109347,147.312502 95.7734375,146.914062 C96.3359403,146.515623 96.6914055,145.914067 96.8398438,145.109375 L98.6796875,145.109375 C98.5234367,146.648445 97.9492237,147.722653 96.9570312,148.332031 C95.9648388,148.941409 94.9335991,149.242188 93.8632812,149.234375 C91.714833,149.234375 90.2421915,148.382821 89.4453125,146.679688 C89.1562486,146.062497 89.0117188,145.300786 89.0117188,144.394531 L89.0117188,141.125 C89.0117188,139.460929 89.5312448,138.199223 90.5703125,137.339844 C91.4140667,136.636715 92.511712,136.285156 93.8632812,136.285156 C96.003917,136.285156 97.4726523,137.13671 98.2695312,138.839844 C98.5585952,139.457034 98.703125,140.218745 98.703125,141.125 L98.703125,143.210938 L90.8164062,143.210938 L90.8164062,144.417969 Z M122.75,138.347656 L122.75,146.1875 C122.75,146.593752 122.835937,146.874999 123.007812,147.03125 C123.179688,147.187501 123.47656,147.269531 123.898438,147.277344 L127.953125,147.277344 L127.953125,149 L123.898438,149 C122.749994,149 121.972658,148.77344 121.566406,148.320312 C121.160154,147.867185 120.953125,147.10938 120.945312,146.046875 L120.945312,138.347656 L117.417969,138.347656 L117.417969,136.613281 L120.945312,136.613281 L120.945312,133.8125 L122.75,133.8125 L122.75,136.613281 L127.953125,136.613281 L127.953125,138.347656 L122.75,138.347656 Z M140.65625,144.417969 L140.65625,141.101562 C140.65625,140.070307 140.347659,139.296878 139.730469,138.78125 C139.113278,138.265622 138.406254,138.007812 137.609375,138.007812 C136.820309,138.007812 136.113284,138.269529 135.488281,138.792969 C134.863278,139.316409 134.550781,140.085932 134.550781,141.101562 L134.550781,144.417969 C134.550781,145.441411 134.859372,146.210935 135.476562,146.726562 C136.093753,147.24219 136.800777,147.503906 137.597656,147.511719 C138.394535,147.503906 139.105466,147.24219 139.730469,146.726562 C140.347659,146.210935 140.65625,145.441411 140.65625,144.417969 Z M142.449219,141.125 L142.449219,144.394531 C142.449219,146.058602 141.929693,147.320308 140.890625,148.179688 C140.046871,148.882816 138.953132,149.234375 137.609375,149.234375 C135.460927,149.234375 133.988285,148.382821 133.191406,146.679688 C132.902342,146.062497 132.757812,145.300786 132.757812,144.394531 L132.757812,141.125 C132.757812,139.460929 133.277339,138.199223 134.316406,137.339844 C135.16016,136.636715 136.257806,136.285156 137.609375,136.285156 C139.750011,136.285156 141.218746,137.13671 142.015625,138.839844 C142.304689,139.449222 142.449219,140.210933 142.449219,141.125 Z M1.66015625,171.347656 L1.66015625,169.613281 L6.171875,169.613281 L6.171875,170.914062 C6.47656402,170.421873 6.92187207,170.046876 7.5078125,169.789062 C8.09375293,169.531249 8.66405973,169.402344 9.21875,169.402344 L12.1953125,169.402344 L12.1953125,171.125 L9.21875,171.125 C8.42187102,171.125 7.71484684,171.386716 7.09765625,171.910156 C6.48046566,172.433596 6.171875,173.20312 6.171875,174.21875 L6.171875,180.277344 L11,180.277344 L11,182 L0.46484375,182 L0.46484375,180.277344 L4.37890625,180.277344 L4.37890625,171.347656 L1.66015625,171.347656 Z M23.9609375,174.558594 L23.9609375,174.101562 C23.9609375,173.070307 23.6523468,172.296878 23.0351562,171.78125 C22.4179657,171.265622 21.7109415,171.007812 20.9140625,171.007812 C20.1249961,171.007812 19.4179719,171.269529 18.7929687,171.792969 C18.1679656,172.316409 17.859375,173.085932 17.8671875,174.101562 L17.8671875,174.558594 L23.9609375,174.558594 Z M17.8671875,177.417969 C17.8671875,178.441411 18.1757782,179.210935 18.7929688,179.726562 C19.4101593,180.24219 20.0937462,180.503906 20.84375,180.511719 C21.6015663,180.511719 22.2617159,180.312502 22.8242188,179.914062 C23.3867216,179.515623 23.7421868,178.914067 23.890625,178.109375 L25.7304688,178.109375 C25.574218,179.648445 25.000005,180.722653 24.0078125,181.332031 C23.01562,181.941409 21.9843804,182.242188 20.9140625,182.234375 C18.7656143,182.234375 17.2929727,181.382821 16.4960938,179.679688 C16.2070298,179.062497 16.0625,178.300786 16.0625,177.394531 L16.0625,174.125 C16.0625,172.460929 16.5820261,171.199223 17.6210938,170.339844 C18.464848,169.636715 19.5624932,169.285156 20.9140625,169.285156 C23.0546982,169.285156 24.5234335,170.13671 25.3203125,171.839844 C25.6093764,172.457034 25.7539062,173.218745 25.7539062,174.125 L25.7539062,176.210938 L17.8671875,176.210938 L17.8671875,177.417969 Z M35.2109375,171.347656 L35.2109375,179.1875 C35.2109375,179.593752 35.2968741,179.874999 35.46875,180.03125 C35.6406259,180.187501 35.9374979,180.269531 36.359375,180.277344 L40.4140625,180.277344 L40.4140625,182 L36.359375,182 C35.2109318,182 34.4335958,181.77344 34.0273438,181.320312 C33.6210917,180.867185 33.4140625,180.10938 33.40625,179.046875 L33.40625,171.347656 L29.8789062,171.347656 L29.8789062,169.613281 L33.40625,169.613281 L33.40625,166.8125 L35.2109375,166.8125 L35.2109375,169.613281 L40.4140625,169.613281 L40.4140625,171.347656 L35.2109375,171.347656 Z M46.0859375,171.347656 L46.0859375,169.613281 L51.0546875,169.613281 L51.0546875,180.277344 L55.4140625,180.277344 L55.4140625,182 L44.8789062,182 L44.8789062,180.277344 L49.25,180.277344 L49.25,171.347656 L46.0859375,171.347656 Z M48.6523437,167.84375 L48.6523437,165.195312 L51.2890625,165.195312 L51.2890625,167.84375 L48.6523437,167.84375 Z M60.0195312,171.347656 L60.0195312,169.613281 L64.53125,169.613281 L64.53125,170.914062 C64.835939,170.421873 65.2812471,170.046876 65.8671875,169.789062 C66.4531279,169.531249 67.0234347,169.402344 67.578125,169.402344 L70.5546875,169.402344 L70.5546875,171.125 L67.578125,171.125 C66.781246,171.125 66.0742218,171.386716 65.4570312,171.910156 C64.8398407,172.433596 64.53125,173.20312 64.53125,174.21875 L64.53125,180.277344 L69.359375,180.277344 L69.359375,182 L58.8242187,182 L58.8242187,180.277344 L62.7382812,180.277344 L62.7382812,171.347656 L60.0195312,171.347656 Z M82.3203125,174.558594 L82.3203125,174.101562 C82.3203125,173.070307 82.0117218,172.296878 81.3945312,171.78125 C80.7773407,171.265622 80.0703165,171.007812 79.2734375,171.007812 C78.4843711,171.007812 77.7773469,171.269529 77.1523437,171.792969 C76.5273406,172.316409 76.21875,173.085932 76.2265625,174.101562 L76.2265625,174.558594 L82.3203125,174.558594 Z M76.2265625,177.417969 C76.2265625,178.441411 76.5351532,179.210935 77.1523438,179.726562 C77.7695343,180.24219 78.4531212,180.503906 79.203125,180.511719 C79.9609413,180.511719 80.6210909,180.312502 81.1835938,179.914062 C81.7460966,179.515623 82.1015618,178.914067 82.25,178.109375 L84.0898438,178.109375 C83.933593,179.648445 83.35938,180.722653 82.3671875,181.332031 C81.374995,181.941409 80.3437554,182.242188 79.2734375,182.234375 C77.1249893,182.234375 75.6523477,181.382821 74.8554688,179.679688 C74.5664048,179.062497 74.421875,178.300786 74.421875,177.394531 L74.421875,174.125 C74.421875,172.460929 74.9414011,171.199223 75.9804688,170.339844 C76.824223,169.636715 77.9218682,169.285156 79.2734375,169.285156 C81.4140732,169.285156 82.8828085,170.13671 83.6796875,171.839844 C83.9687514,172.457034 84.1132812,173.218745 84.1132812,174.125 L84.1132812,176.210938 L76.2265625,176.210938 L76.2265625,177.417969 Z M108.382812,182.234375 C106.320302,182.234375 104.87891,181.410164 104.058594,179.761719 C103.753905,179.144528 103.601562,178.378911 103.601562,177.464844 L103.601562,169.613281 L105.40625,169.613281 L105.40625,177.347656 C105.398437,178.449224 105.707028,179.253904 106.332031,179.761719 C106.957034,180.269534 107.640621,180.523438 108.382812,180.523438 C109.125004,180.523438 109.808591,180.253909 110.433594,179.714844 C111.050784,179.183591 111.355469,178.417974 111.347656,177.417969 L111.347656,169.613281 L113.152344,169.613281 L113.152344,182 L111.347656,182 L111.347656,180.722656 C111.05078,181.214846 110.613284,181.589842 110.035156,181.847656 C109.457028,182.10547 108.906253,182.234375 108.382812,182.234375 Z M123.078125,169.285156 C125.195323,169.285156 126.664058,170.13671 127.484375,171.839844 C127.773439,172.457034 127.914063,173.218745 127.90625,174.125 L127.90625,182 L126.113281,182 L126.113281,174.101562 C126.113281,173.070307 125.804691,172.296878 125.1875,171.78125 C124.570309,171.265622 123.863285,171.007812 123.066406,171.007812 C122.27734,171.007812 121.570316,171.269529 120.945312,171.792969 C120.320309,172.316409 120.011719,173.085932 120.019531,174.101562 L120.019531,182 L118.214844,182 L118.214844,169.613281 L120.019531,169.613281 L120.019531,170.796875 C120.32422,170.304685 120.765622,169.929689 121.34375,169.671875 C121.921878,169.414061 122.499997,169.285156 123.078125,169.285156 Z M137.339844,171.347656 L137.339844,179.1875 C137.339844,179.593752 137.42578,179.874999 137.597656,180.03125 C137.769532,180.187501 138.066404,180.269531 138.488281,180.277344 L142.542969,180.277344 L142.542969,182 L138.488281,182 C137.339838,182 136.562502,181.77344 136.15625,181.320312 C135.749998,180.867185 135.542969,180.10938 135.535156,179.046875 L135.535156,171.347656 L132.007812,171.347656 L132.007812,169.613281 L135.535156,169.613281 L135.535156,166.8125 L137.339844,166.8125 L137.339844,169.613281 L142.542969,169.613281 L142.542969,171.347656 L137.339844,171.347656 Z M148.214844,171.347656 L148.214844,169.613281 L153.183594,169.613281 L153.183594,180.277344 L157.542969,180.277344 L157.542969,182 L147.007812,182 L147.007812,180.277344 L151.378906,180.277344 L151.378906,171.347656 L148.214844,171.347656 Z M150.78125,167.84375 L150.78125,165.195312 L153.417969,165.195312 L153.417969,167.84375 L150.78125,167.84375 Z M162.722656,166.929688 L162.722656,165.195312 L167.691406,165.195312 L167.691406,180.277344 L172.0625,180.277344 L172.0625,182 L161.527344,182 L161.527344,180.277344 L165.898438,180.277344 L165.898438,166.929688 L162.722656,166.929688 Z M7.15625,204.535156 L9.27734375,211.589844 L10.6132812,202.613281 L12.3945312,202.613281 L10.4023437,215 L8.796875,215 L6.30078125,206.890625 L3.8046875,215 L2.1875,215 L0.1953125,202.613281 L1.9765625,202.613281 L3.32421875,211.589844 L5.43359375,204.535156 L7.15625,204.535156 Z M23.9609375,207.558594 L23.9609375,207.101562 C23.9609375,206.070307 23.6523468,205.296878 23.0351562,204.78125 C22.4179657,204.265622 21.7109415,204.007812 20.9140625,204.007812 C20.1249961,204.007812 19.4179719,204.269529 18.7929687,204.792969 C18.1679656,205.316409 17.859375,206.085932 17.8671875,207.101562 L17.8671875,207.558594 L23.9609375,207.558594 Z M17.8671875,210.417969 C17.8671875,211.441411 18.1757782,212.210935 18.7929688,212.726562 C19.4101593,213.24219 20.0937462,213.503906 20.84375,213.511719 C21.6015663,213.511719 22.2617159,213.312502 22.8242188,212.914062 C23.3867216,212.515623 23.7421868,211.914067 23.890625,211.109375 L25.7304688,211.109375 C25.574218,212.648445 25.000005,213.722653 24.0078125,214.332031 C23.01562,214.941409 21.9843804,215.242188 20.9140625,215.234375 C18.7656143,215.234375 17.2929727,214.382821 16.4960938,212.679688 C16.2070298,212.062497 16.0625,211.300786 16.0625,210.394531 L16.0625,207.125 C16.0625,205.460929 16.5820261,204.199223 17.6210938,203.339844 C18.464848,202.636715 19.5624932,202.285156 20.9140625,202.285156 C23.0546982,202.285156 24.5234335,203.13671 25.3203125,204.839844 C25.6093764,205.457034 25.7539062,206.218745 25.7539062,207.125 L25.7539062,209.210938 L17.8671875,209.210938 L17.8671875,210.417969 Z M37.0625,198.535156 L34.9765625,203.796875 L33.8632812,203.339844 L35.9609375,198.078125 L37.0625,198.535156 Z M45.4296875,204.347656 L45.4296875,202.613281 L49.9414062,202.613281 L49.9414062,203.914062 C50.2460953,203.421873 50.6914033,203.046876 51.2773438,202.789062 C51.8632842,202.531249 52.433591,202.402344 52.9882812,202.402344 L55.9648438,202.402344 L55.9648438,204.125 L52.9882812,204.125 C52.1914023,204.125 51.4843781,204.386716 50.8671875,204.910156 C50.2499969,205.433596 49.9414062,206.20312 49.9414062,207.21875 L49.9414062,213.277344 L54.7695312,213.277344 L54.7695312,215 L44.234375,215 L44.234375,213.277344 L48.1484375,213.277344 L48.1484375,204.347656 L45.4296875,204.347656 Z M67.7304688,207.558594 L67.7304688,207.101562 C67.7304688,206.070307 67.4218781,205.296878 66.8046875,204.78125 C66.1874969,204.265622 65.4804727,204.007812 64.6835938,204.007812 C63.8945273,204.007812 63.1875031,204.269529 62.5625,204.792969 C61.9374969,205.316409 61.6289062,206.085932 61.6367187,207.101562 L61.6367187,207.558594 L67.7304688,207.558594 Z M61.6367188,210.417969 C61.6367188,211.441411 61.9453094,212.210935 62.5625,212.726562 C63.1796906,213.24219 63.8632775,213.503906 64.6132812,213.511719 C65.3710975,213.511719 66.0312472,213.312502 66.59375,212.914062 C67.1562528,212.515623 67.511718,211.914067 67.6601562,211.109375 L69.5,211.109375 C69.3437492,212.648445 68.7695362,213.722653 67.7773438,214.332031 C66.7851513,214.941409 65.7539116,215.242188 64.6835938,215.234375 C62.5351455,215.234375 61.062504,214.382821 60.265625,212.679688 C59.9765611,212.062497 59.8320312,211.300786 59.8320312,210.394531 L59.8320312,207.125 C59.8320312,205.460929 60.3515573,204.199223 61.390625,203.339844 C62.2343792,202.636715 63.3320245,202.285156 64.6835938,202.285156 C66.8242295,202.285156 68.2929648,203.13671 69.0898438,204.839844 C69.3789077,205.457034 69.5234375,206.218745 69.5234375,207.125 L69.5234375,209.210938 L61.6367188,209.210938 L61.6367188,210.417969 Z" id="Based-on-current-tre" fill="#E4E4E4"></path>
            <g id="Page-1" transform="translate(204.000000, 0.000000)">
                <g id="Group-6">
                    <mask id="mask-2" fill="white">
                        <use xlink:href="#path-1"></use>
                    </mask>
                    <g id="Clip-5"></g>
                    <polygon id="Fill-4" fill="#E4E4E4" mask="url(#mask-2)" points="0.766085601 455.750137 87.7360913 455.750137 190.949368 77.7489251 190.949368 0 0.00217892843 0 -0.000384516782 87.053397 101.444115 87.053397"></polygon>
                </g>
            </g>
        </g>
    </g>
</svg>