<?xml version="1.0" encoding="UTF-8"?>
<svg width="1000px" height="462px" viewBox="0 0 1000 462" version="1.1" xmlns="http://www.w3.org/2000/svg" xmlns:xlink="http://www.w3.org/1999/xlink">
    <defs>
        <polygon id="path-1" points="176.411047 0 0.000473518696 0 0.000473518696 438.710714 176.411047 438.710714 176.411047 0"></polygon>
    </defs>
    <g id="Page-1" stroke="none" stroke-width="1" fill="none" fill-rule="evenodd" transform="translate(35.5, 0.000000)">
        <g id="Desktop-HD-Copy-11" transform="translate(-292.000000, -2735.000000)">
            <g id="Group-12" transform="translate(292.000000, 2735.000000)">
                <g id="Group-15" transform="translate(156.000000, 0.000000)">
                    <g id="Group-4-Copy" transform="translate(0.000000, 10.000000)">
                        <mask id="mask-2" fill="white">
                            <use xlink:href="#path-1"></use>
                        </mask>
                        <g id="Clip-3"></g>
                        <path d="M0.0253332502,182.50592 L0.0253332502,211.882727 L95.9128691,211.882727 L95.8880094,349.165601 C95.8880094,353.473382 92.4360581,356.978262 88.1933306,356.978262 C83.9506031,356.978262 80.4986518,353.473382 80.4986518,349.165601 L80.4986518,227.802526 L0.000473518696,227.802526 L0.000473518696,349.165601 C0.000473518696,398.540416 39.5629605,438.710714 88.1933306,438.710714 C136.822517,438.710714 176.386188,398.540416 176.386188,349.165601 L176.386188,252.147979 C176.386188,217.827561 157.528306,187.055293 127.172206,171.841037 L124.160627,170.332593 L176.386188,118.97817 L176.411047,-0.000240389564 L0.0253332502,-0.000240389564 L0.0253332502,81.7322113 L99.2346028,81.7322113 L0.0253332502,182.50592 Z" id="Fill-2" fill="#9BF3E3" mask="url(#mask-2)"></path>
                    </g>
                    <path d="M287,360.189076 C287,364.495899 283.411077,368 279,368 C274.588923,368 271,364.495899 271,360.189076 L271,89.8109244 C271,85.5041008 274.588923,82 279,82 C283.411077,82 287,85.5041008 287,89.8109244 L287,360.189076 Z M278.5,0 C229.15006,0 189,40.1230722 189,89.4398396 L189,359.56016 C189,408.876928 229.15006,449 278.5,449 C327.84994,449 368,408.876928 368,359.56016 L368,89.4398396 C368,40.1230722 327.84994,0 278.5,0 L278.5,0 Z" id="Page-1" fill="#9BF3E3"></path>
                    <path d="M479,360.189076 C479,364.495899 475.411077,368 471,368 C466.588923,368 463,364.495899 463,360.189076 L463,89.8109244 C463,85.5041008 466.588923,82 471,82 C475.411077,82 479,85.5041008 479,89.8109244 L479,360.189076 Z M470.5,0 C421.15006,0 381,40.1230722 381,89.4398396 L381,359.56016 C381,408.876928 421.15006,449 470.5,449 C519.84994,449 560,408.876928 560,359.56016 L560,89.4398396 C560,40.1230722 519.84994,0 470.5,0 L470.5,0 Z" id="Page-1-Copy-6" fill="#9BF3E3"></path>
                </g>
                <path d="M769.078125,237.707031 L769.078125,247 L767.285156,247 L767.285156,237.707031 C767.285156,237.214841 767.160157,236.808595 766.910156,236.488281 C766.667968,236.167967 766.289065,236.007812 765.773438,236.007812 C765.25781,236.007812 764.871095,236.167967 764.613281,236.488281 C764.355467,236.808595 764.226562,237.214841 764.226562,237.707031 L764.226562,247 L762.433594,247 L762.433594,237.707031 C762.433594,237.214841 762.308595,236.808595 762.058594,236.488281 C761.816405,236.167967 761.437503,236.007812 760.921875,236.007812 C760.406247,236.007812 760.023439,236.167967 759.773438,236.488281 C759.523436,236.808595 759.394531,237.214841 759.386719,237.707031 L759.386719,247 L757.582031,247 L757.582031,234.613281 L759.386719,234.613281 L759.386719,235.292969 C759.54297,234.98828 759.781248,234.742188 760.101562,234.554688 C760.421877,234.367187 760.781248,234.277344 761.179688,234.285156 C762.117192,234.285156 762.832029,234.660152 763.324219,235.410156 C763.957034,234.644527 764.789057,234.265625 765.820312,234.273438 C766.851568,234.28125 767.652341,234.613278 768.222656,235.269531 C768.792972,235.925785 769.078125,236.738276 769.078125,237.707031 Z M782.4375,242.417969 L782.4375,239.101562 C782.4375,238.070307 782.128909,237.296878 781.511719,236.78125 C780.894528,236.265622 780.187504,236.007812 779.390625,236.007812 C778.601559,236.007812 777.894534,236.269529 777.269531,236.792969 C776.644528,237.316409 776.332031,238.085932 776.332031,239.101562 L776.332031,242.417969 C776.332031,243.441411 776.640622,244.210935 777.257812,244.726562 C777.875003,245.24219 778.582027,245.503906 779.378906,245.511719 C780.175785,245.503906 780.886716,245.24219 781.511719,244.726562 C782.128909,244.210935 782.4375,243.441411 782.4375,242.417969 Z M784.230469,239.125 L784.230469,242.394531 C784.230469,244.058602 783.710943,245.320308 782.671875,246.179688 C781.828121,246.882816 780.734382,247.234375 779.390625,247.234375 C777.242177,247.234375 775.769535,246.382821 774.972656,244.679688 C774.683592,244.062497 774.539062,243.300786 774.539062,242.394531 L774.539062,239.125 C774.539062,237.460929 775.058589,236.199223 776.097656,235.339844 C776.94141,234.636715 778.039056,234.285156 779.390625,234.285156 C781.531261,234.285156 782.999996,235.13671 783.796875,236.839844 C784.085939,237.449222 784.230469,238.210933 784.230469,239.125 Z M790.839844,236.347656 L790.839844,234.613281 L795.351562,234.613281 L795.351562,235.914062 C795.656252,235.421873 796.10156,235.046876 796.6875,234.789062 C797.27344,234.531249 797.843747,234.402344 798.398438,234.402344 L801.375,234.402344 L801.375,236.125 L798.398438,236.125 C797.601559,236.125 796.894534,236.386716 796.277344,236.910156 C795.660153,237.433596 795.351562,238.20312 795.351562,239.21875 L795.351562,245.277344 L800.179688,245.277344 L800.179688,247 L789.644531,247 L789.644531,245.277344 L793.558594,245.277344 L793.558594,236.347656 L790.839844,236.347656 Z M814.640625,239.558594 L814.640625,239.101562 C814.640625,238.070307 814.332034,237.296878 813.714844,236.78125 C813.097653,236.265622 812.390629,236.007812 811.59375,236.007812 C810.804684,236.007812 810.097659,236.269529 809.472656,236.792969 C808.847653,237.316409 808.539062,238.085932 808.546875,239.101562 L808.546875,239.558594 L814.640625,239.558594 Z M808.546875,242.417969 C808.546875,243.441411 808.855466,244.210935 809.472656,244.726562 C810.089847,245.24219 810.773434,245.503906 811.523438,245.511719 C812.281254,245.511719 812.941403,245.312502 813.503906,244.914062 C814.066409,244.515623 814.421874,243.914067 814.570312,243.109375 L816.410156,243.109375 C816.253905,244.648445 815.679692,245.722653 814.6875,246.332031 C813.695308,246.941409 812.664068,247.242188 811.59375,247.234375 C809.445302,247.234375 807.97266,246.382821 807.175781,244.679688 C806.886717,244.062497 806.742188,243.300786 806.742188,242.394531 L806.742188,239.125 C806.742188,237.460929 807.261714,236.199223 808.300781,235.339844 C809.144535,234.636715 810.242181,234.285156 811.59375,234.285156 C813.734386,234.285156 815.203121,235.13671 816,236.839844 C816.289064,237.457034 816.433594,238.218745 816.433594,239.125 L816.433594,241.210938 L808.546875,241.210938 L808.546875,242.417969 Z M764.976562,269.582031 C764.50781,269.199217 763.914066,269.007812 763.195312,269.007812 C762.476559,269.007812 761.89844,269.167967 761.460938,269.488281 C761.023435,269.808595 760.804688,270.238279 760.804688,270.777344 C760.804688,271.316409 760.964842,271.718749 761.285156,271.984375 C761.60547,272.250001 762.011716,272.433593 762.503906,272.535156 L764.835938,273.109375 C765.757817,273.335939 766.515622,273.722654 767.109375,274.269531 C767.703128,274.824222 768,275.687494 768,276.859375 C768,278.031256 767.585942,278.890622 766.757812,279.4375 C765.929683,279.984378 764.875006,280.25 763.59375,280.234375 C762.312494,280.234375 761.195317,279.906253 760.242188,279.25 C759.281245,278.593747 758.753907,277.523445 758.660156,276.039062 L760.511719,276.039062 C760.589844,276.906254 760.925778,277.535154 761.519531,277.925781 C762.105472,278.316408 762.820308,278.511719 763.664062,278.511719 C764.507817,278.511719 765.13281,278.351564 765.539062,278.03125 C765.945315,277.703123 766.152344,277.30469 766.160156,276.835938 C766.167969,276.367185 766.058595,275.968752 765.832031,275.640625 C765.597655,275.312498 765.136722,275.070313 764.449219,274.914062 L762.023438,274.316406 C761.351559,274.160155 760.675785,273.824221 759.996094,273.308594 C759.316403,272.792966 758.976562,271.976568 758.976562,270.859375 C758.976562,269.749994 759.386715,268.875003 760.207031,268.234375 C761.027348,267.593747 762.03515,267.273438 763.230469,267.273438 C764.425787,267.273438 765.445308,267.589841 766.289062,268.222656 C767.125004,268.855472 767.589843,269.859368 767.683594,271.234375 L765.84375,271.234375 C765.734374,270.515621 765.445315,269.964846 764.976562,269.582031 Z M779.121094,269.347656 L779.121094,277.1875 C779.121094,277.593752 779.20703,277.874999 779.378906,278.03125 C779.550782,278.187501 779.847654,278.269531 780.269531,278.277344 L784.324219,278.277344 L784.324219,280 L780.269531,280 C779.121088,280 778.343752,279.77344 777.9375,279.320312 C777.531248,278.867185 777.324219,278.10938 777.316406,277.046875 L777.316406,269.347656 L773.789062,269.347656 L773.789062,267.613281 L777.316406,267.613281 L777.316406,264.8125 L779.121094,264.8125 L779.121094,267.613281 L784.324219,267.613281 L784.324219,269.347656 L779.121094,269.347656 Z M795.433594,280.234375 C793.371083,280.234375 791.929692,279.410164 791.109375,277.761719 C790.804686,277.144528 790.652344,276.378911 790.652344,275.464844 L790.652344,267.613281 L792.457031,267.613281 L792.457031,275.347656 C792.449219,276.449224 792.757809,277.253904 793.382812,277.761719 C794.007816,278.269534 794.691403,278.523438 795.433594,278.523438 C796.175785,278.523438 796.859372,278.253909 797.484375,277.714844 C798.101566,277.183591 798.40625,276.417974 798.398438,275.417969 L798.398438,267.613281 L800.203125,267.613281 L800.203125,280 L798.398438,280 L798.398438,278.722656 C798.101561,279.214846 797.664065,279.589842 797.085938,279.847656 C796.50781,280.10547 795.957034,280.234375 795.433594,280.234375 Z M811.453125,280.234375 C809.320302,280.234375 807.855473,279.382821 807.058594,277.679688 C806.76953,277.062497 806.625,276.300786 806.625,275.394531 L806.625,272.125 C806.625,270.460929 807.144526,269.199223 808.183594,268.339844 C809.027348,267.636715 810.121087,267.285156 811.464844,267.285156 C812.027347,267.292969 812.60156,267.421874 813.1875,267.671875 C813.77344,267.921876 814.214842,268.296873 814.511719,268.796875 L814.511719,263.195312 L816.316406,263.195312 L816.316406,280 L814.511719,280 L814.511719,278.722656 C814.199217,279.214846 813.753909,279.589842 813.175781,279.847656 C812.597653,280.10547 812.02344,280.234375 811.453125,280.234375 Z M808.417969,272.101562 L808.417969,275.417969 C808.417969,276.441411 808.726559,277.210935 809.34375,277.726562 C809.960941,278.24219 810.667965,278.503906 811.464844,278.511719 C812.261723,278.511719 812.972653,278.250003 813.597656,277.726562 C814.214847,277.203122 814.519531,276.433599 814.511719,275.417969 L814.511719,272.101562 C814.511719,271.070307 814.207034,270.296878 813.597656,269.78125 C812.988278,269.265622 812.277348,269.007812 811.464844,269.007812 C810.667965,269.007812 809.960941,269.265622 809.34375,269.78125 C808.726559,270.296878 808.417969,271.070307 808.417969,272.101562 Z M830.730469,272.558594 L830.730469,272.101562 C830.730469,271.070307 830.421878,270.296878 829.804688,269.78125 C829.187497,269.265622 828.480473,269.007812 827.683594,269.007812 C826.894527,269.007812 826.187503,269.269529 825.5625,269.792969 C824.937497,270.316409 824.628906,271.085932 824.636719,272.101562 L824.636719,272.558594 L830.730469,272.558594 Z M824.636719,275.417969 C824.636719,276.441411 824.945309,277.210935 825.5625,277.726562 C826.179691,278.24219 826.863277,278.503906 827.613281,278.511719 C828.371098,278.511719 829.031247,278.312502 829.59375,277.914062 C830.156253,277.515623 830.511718,276.914067 830.660156,276.109375 L832.5,276.109375 C832.343749,277.648445 831.769536,278.722653 830.777344,279.332031 C829.785151,279.941409 828.753912,280.242188 827.683594,280.234375 C825.535146,280.234375 824.062504,279.382821 823.265625,277.679688 C822.976561,277.062497 822.832031,276.300786 822.832031,275.394531 L822.832031,272.125 C822.832031,270.460929 823.351557,269.199223 824.390625,268.339844 C825.234379,267.636715 826.332024,267.285156 827.683594,267.285156 C829.824229,267.285156 831.292965,268.13671 832.089844,269.839844 C832.378908,270.457034 832.523438,271.218745 832.523438,272.125 L832.523438,274.210938 L824.636719,274.210938 L824.636719,275.417969 Z M843.808594,267.285156 C845.925792,267.285156 847.394527,268.13671 848.214844,269.839844 C848.503908,270.457034 848.644531,271.218745 848.636719,272.125 L848.636719,280 L846.84375,280 L846.84375,272.101562 C846.84375,271.070307 846.535159,270.296878 845.917969,269.78125 C845.300778,269.265622 844.593754,269.007812 843.796875,269.007812 C843.007809,269.007812 842.300784,269.269529 841.675781,269.792969 C841.050778,270.316409 840.742187,271.085932 840.75,272.101562 L840.75,280 L838.945312,280 L838.945312,267.613281 L840.75,267.613281 L840.75,268.796875 C841.054689,268.304685 841.496091,267.929689 842.074219,267.671875 C842.652347,267.414061 843.230466,267.285156 843.808594,267.285156 Z M859.570312,269.347656 L859.570312,277.1875 C859.570312,277.593752 859.656249,277.874999 859.828125,278.03125 C860.000001,278.187501 860.296873,278.269531 860.71875,278.277344 L864.773438,278.277344 L864.773438,280 L860.71875,280 C859.570307,280 858.792971,279.77344 858.386719,279.320312 C857.980467,278.867185 857.773438,278.10938 857.765625,277.046875 L857.765625,269.347656 L854.238281,269.347656 L854.238281,267.613281 L857.765625,267.613281 L857.765625,264.8125 L859.570312,264.8125 L859.570312,267.613281 L864.773438,267.613281 L864.773438,269.347656 L859.570312,269.347656 Z M763.183594,313.234375 C761.050771,313.234375 759.585941,312.382821 758.789062,310.679688 C758.499999,310.062497 758.355469,309.300786 758.355469,308.394531 L758.355469,305.125 C758.355469,303.460929 758.874995,302.199223 759.914062,301.339844 C760.757817,300.636715 761.851556,300.285156 763.195312,300.285156 C763.757815,300.292969 764.332028,300.421874 764.917969,300.671875 C765.503909,300.921876 765.945311,301.296873 766.242188,301.796875 L766.242188,296.195312 L768.046875,296.195312 L768.046875,313 L766.242188,313 L766.242188,311.722656 C765.929686,312.214846 765.484378,312.589842 764.90625,312.847656 C764.328122,313.10547 763.753909,313.234375 763.183594,313.234375 Z M760.148438,305.101562 L760.148438,308.417969 C760.148438,309.441411 760.457028,310.210935 761.074219,310.726562 C761.691409,311.24219 762.398434,311.503906 763.195312,311.511719 C763.992191,311.511719 764.703122,311.250003 765.328125,310.726562 C765.945316,310.203122 766.25,309.433599 766.242188,308.417969 L766.242188,305.101562 C766.242188,304.070307 765.937503,303.296878 765.328125,302.78125 C764.718747,302.265622 764.007817,302.007812 763.195312,302.007812 C762.398434,302.007812 761.691409,302.265622 761.074219,302.78125 C760.457028,303.296878 760.148438,304.070307 760.148438,305.101562 Z M782.460938,305.558594 L782.460938,305.101562 C782.460938,304.070307 782.152347,303.296878 781.535156,302.78125 C780.917966,302.265622 780.210941,302.007812 779.414062,302.007812 C778.624996,302.007812 777.917972,302.269529 777.292969,302.792969 C776.667966,303.316409 776.359375,304.085932 776.367188,305.101562 L776.367188,305.558594 L782.460938,305.558594 Z M776.367188,308.417969 C776.367188,309.441411 776.675778,310.210935 777.292969,310.726562 C777.910159,311.24219 778.593746,311.503906 779.34375,311.511719 C780.101566,311.511719 780.761716,311.312502 781.324219,310.914062 C781.886722,310.515623 782.242187,309.914067 782.390625,309.109375 L784.230469,309.109375 C784.074218,310.648445 783.500005,311.722653 782.507812,312.332031 C781.51562,312.941409 780.48438,313.242188 779.414062,313.234375 C777.265614,313.234375 775.792973,312.382821 774.996094,310.679688 C774.70703,310.062497 774.5625,309.300786 774.5625,308.394531 L774.5625,305.125 C774.5625,303.460929 775.082026,302.199223 776.121094,301.339844 C776.964848,300.636715 778.062493,300.285156 779.414062,300.285156 C781.554698,300.285156 783.023434,301.13671 783.820312,302.839844 C784.109376,303.457034 784.253906,304.218745 784.253906,305.125 L784.253906,307.210938 L776.367188,307.210938 L776.367188,308.417969 Z M798.621094,308.417969 L798.621094,305.101562 C798.621094,304.070307 798.312503,303.296878 797.695312,302.78125 C797.078122,302.265622 796.371098,302.007812 795.574219,302.007812 C794.77734,302.007812 794.070316,302.269529 793.453125,302.792969 C792.835934,303.316409 792.527344,304.085932 792.527344,305.101562 L792.527344,308.417969 C792.527344,309.441411 792.835934,310.210935 793.453125,310.726562 C794.070316,311.24219 794.77734,311.503906 795.574219,311.511719 C796.371098,311.503906 797.078122,311.24219 797.695312,310.726562 C798.312503,310.210935 798.621094,309.441411 798.621094,308.417969 Z M792.527344,313 L790.722656,313 L790.722656,296.195312 L792.527344,296.195312 L792.527344,301.796875 C792.832033,301.312498 793.273435,300.937501 793.851562,300.671875 C794.851567,300.218748 795.980462,300.160155 797.238281,300.496094 C798.488287,300.839845 799.406247,301.621088 799.992188,302.839844 C800.281251,303.457034 800.421875,304.218745 800.414062,305.125 L800.414062,308.394531 C800.414062,309.308598 800.273439,310.070309 799.992188,310.679688 C799.195309,312.382821 797.726573,313.234375 795.585938,313.234375 C795.015622,313.234375 794.437503,313.109376 793.851562,312.859375 C793.265622,312.609374 792.82422,312.230471 792.527344,311.722656 L792.527344,313 Z M811.300781,302.347656 L811.300781,310.1875 C811.300781,310.593752 811.386718,310.874999 811.558594,311.03125 C811.73047,311.187501 812.027342,311.269531 812.449219,311.277344 L816.503906,311.277344 L816.503906,313 L812.449219,313 C811.300776,313 810.52344,312.77344 810.117188,312.320312 C809.710935,311.867185 809.503906,311.10938 809.496094,310.046875 L809.496094,302.347656 L805.96875,302.347656 L805.96875,300.613281 L809.496094,300.613281 L809.496094,297.8125 L811.300781,297.8125 L811.300781,300.613281 L816.503906,300.613281 L816.503906,302.347656 L811.300781,302.347656 Z M843.480469,302.347656 L843.480469,310.1875 C843.480469,310.593752 843.566405,310.874999 843.738281,311.03125 C843.910157,311.187501 844.207029,311.269531 844.628906,311.277344 L848.683594,311.277344 L848.683594,313 L844.628906,313 C843.480463,313 842.703127,312.77344 842.296875,312.320312 C841.890623,311.867185 841.683594,311.10938 841.675781,310.046875 L841.675781,302.347656 L838.148438,302.347656 L838.148438,300.613281 L841.675781,300.613281 L841.675781,297.8125 L843.480469,297.8125 L843.480469,300.613281 L848.683594,300.613281 L848.683594,302.347656 L843.480469,302.347656 Z M859.898438,300.285156 C862.015636,300.285156 863.484371,301.13671 864.304688,302.839844 C864.593751,303.457034 864.734375,304.218745 864.726562,305.125 L864.726562,313 L862.933594,313 L862.933594,305.101562 C862.933594,304.070307 862.625003,303.296878 862.007812,302.78125 C861.390622,302.265622 860.683598,302.007812 859.886719,302.007812 C859.097652,302.007812 858.390628,302.269529 857.765625,302.792969 C857.140622,303.316409 856.832031,304.085932 856.839844,305.101562 L856.839844,313 L855.035156,313 L855.035156,296.195312 L856.839844,296.195312 L856.839844,301.796875 C857.144533,301.304685 857.585935,300.929689 858.164062,300.671875 C858.74219,300.414061 859.32031,300.285156 859.898438,300.285156 Z M878.847656,305.101562 C878.847656,304.070307 878.539066,303.296878 877.921875,302.78125 C877.304684,302.265622 876.621098,302.007812 875.871094,302.007812 C875.12109,302.007812 874.464847,302.207029 873.902344,302.605469 C873.339841,303.003908 872.98047,303.605465 872.824219,304.410156 L870.984375,304.410156 C871.140626,302.871086 871.714839,301.796878 872.707031,301.1875 C873.699224,300.578122 874.730463,300.277344 875.800781,300.285156 C877.949229,300.285156 879.421871,301.13671 880.21875,302.839844 C880.507814,303.457034 880.652344,304.218745 880.652344,305.125 L880.652344,313 L878.847656,313 L878.847656,311.722656 C878.05859,312.746099 876.773446,313.25 874.992188,313.234375 C873.937495,313.234375 872.988285,312.937503 872.144531,312.34375 C871.300777,311.749997 870.882812,310.824225 870.890625,309.566406 C870.890625,308.941403 871.070311,308.269535 871.429688,307.550781 C871.789064,306.832028 872.496088,306.320314 873.550781,306.015625 C874.605474,305.710936 876.371081,305.48047 878.847656,305.324219 L878.847656,305.101562 Z M878.847656,308.535156 L878.847656,306.929688 C877.5039,307.023438 876.425785,307.124999 875.613281,307.234375 C874.800777,307.343751 874.175783,307.51953 873.738281,307.761719 C873.300779,308.003907 873.019532,308.26953 872.894531,308.558594 C872.753906,308.847658 872.683594,309.218748 872.683594,309.671875 C872.683594,310.125002 872.902342,310.546873 873.339844,310.9375 C873.777346,311.320314 874.464839,311.511719 875.402344,311.511719 C876.339848,311.519531 877.148434,311.265628 877.828125,310.75 C878.507816,310.234372 878.847656,309.496099 878.847656,308.535156 Z M892.078125,300.285156 C894.195323,300.285156 895.664058,301.13671 896.484375,302.839844 C896.773439,303.457034 896.914063,304.218745 896.90625,305.125 L896.90625,313 L895.113281,313 L895.113281,305.101562 C895.113281,304.070307 894.804691,303.296878 894.1875,302.78125 C893.570309,302.265622 892.863285,302.007812 892.066406,302.007812 C891.27734,302.007812 890.570316,302.269529 889.945312,302.792969 C889.320309,303.316409 889.011719,304.085932 889.019531,305.101562 L889.019531,313 L887.214844,313 L887.214844,300.613281 L889.019531,300.613281 L889.019531,301.796875 C889.32422,301.304685 889.765622,300.929689 890.34375,300.671875 C890.921878,300.414061 891.499997,300.285156 892.078125,300.285156 Z M766.347656,341.417969 L766.347656,338.101562 C766.347656,337.070307 766.039066,336.296878 765.421875,335.78125 C764.804684,335.265622 764.09766,335.007812 763.300781,335.007812 C762.511715,335.007812 761.804691,335.269529 761.179688,335.792969 C760.554684,336.316409 760.242188,337.085932 760.242188,338.101562 L760.242188,341.417969 C760.242188,342.441411 760.550778,343.210935 761.167969,343.726562 C761.785159,344.24219 762.492184,344.503906 763.289062,344.511719 C764.085941,344.503906 764.796872,344.24219 765.421875,343.726562 C766.039066,343.210935 766.347656,342.441411 766.347656,341.417969 Z M768.140625,338.125 L768.140625,341.394531 C768.140625,343.058602 767.621099,344.320308 766.582031,345.179688 C765.738277,345.882816 764.644538,346.234375 763.300781,346.234375 C761.152333,346.234375 759.679691,345.382821 758.882812,343.679688 C758.593749,343.062497 758.449219,342.300786 758.449219,341.394531 L758.449219,338.125 C758.449219,336.460929 758.968745,335.199223 760.007812,334.339844 C760.851567,333.636715 761.949212,333.285156 763.300781,333.285156 C765.441417,333.285156 766.910152,334.13671 767.707031,335.839844 C767.996095,336.449222 768.140625,337.210933 768.140625,338.125 Z M779.34375,346.234375 C777.28124,346.234375 775.839848,345.410164 775.019531,343.761719 C774.714842,343.144528 774.5625,342.378911 774.5625,341.464844 L774.5625,333.613281 L776.367188,333.613281 L776.367188,341.347656 C776.359375,342.449224 776.667966,343.253904 777.292969,343.761719 C777.917972,344.269534 778.601559,344.523438 779.34375,344.523438 C780.085941,344.523438 780.769528,344.253909 781.394531,343.714844 C782.011722,343.183591 782.316406,342.417974 782.308594,341.417969 L782.308594,333.613281 L784.113281,333.613281 L784.113281,346 L782.308594,346 L782.308594,344.722656 C782.011717,345.214846 781.574222,345.589842 780.996094,345.847656 C780.417966,346.10547 779.86719,346.234375 779.34375,346.234375 Z M790.839844,335.347656 L790.839844,333.613281 L795.351562,333.613281 L795.351562,334.914062 C795.656252,334.421873 796.10156,334.046876 796.6875,333.789062 C797.27344,333.531249 797.843747,333.402344 798.398438,333.402344 L801.375,333.402344 L801.375,335.125 L798.398438,335.125 C797.601559,335.125 796.894534,335.386716 796.277344,335.910156 C795.660153,336.433596 795.351562,337.20312 795.351562,338.21875 L795.351562,344.277344 L800.179688,344.277344 L800.179688,346 L789.644531,346 L789.644531,344.277344 L793.558594,344.277344 L793.558594,335.347656 L790.839844,335.347656 Z M824.707031,350.417969 L822.902344,350.417969 L822.902344,333.613281 L824.707031,333.613281 L824.707031,334.796875 C825.01172,334.312498 825.453122,333.937501 826.03125,333.671875 C827.031255,333.218748 828.16015,333.160155 829.417969,333.496094 C830.667975,333.839845 831.585935,334.621088 832.171875,335.839844 C832.460939,336.457034 832.601563,337.218745 832.59375,338.125 L832.59375,341.394531 C832.59375,342.308598 832.453126,343.070309 832.171875,343.679688 C831.374996,345.382821 829.906261,346.234375 827.765625,346.234375 C827.19531,346.234375 826.61719,346.109376 826.03125,345.859375 C825.44531,345.609374 825.003908,345.230471 824.707031,344.722656 L824.707031,350.417969 Z M830.800781,341.417969 L830.800781,338.101562 C830.800781,337.070307 830.492191,336.296878 829.875,335.78125 C829.257809,335.265622 828.550785,335.007812 827.753906,335.007812 C826.957027,335.007812 826.250003,335.269529 825.632812,335.792969 C825.015622,336.316409 824.707031,337.085932 824.707031,338.101562 L824.707031,341.417969 C824.707031,342.441411 825.015622,343.210935 825.632812,343.726562 C826.250003,344.24219 826.957027,344.503906 827.753906,344.511719 C828.550785,344.503906 829.257809,344.24219 829.875,343.726562 C830.492191,343.210935 830.800781,342.441411 830.800781,341.417969 Z M846.667969,338.101562 C846.667969,337.070307 846.359378,336.296878 845.742188,335.78125 C845.124997,335.265622 844.44141,335.007812 843.691406,335.007812 C842.941402,335.007812 842.285159,335.207029 841.722656,335.605469 C841.160153,336.003908 840.800782,336.605465 840.644531,337.410156 L838.804688,337.410156 C838.960938,335.871086 839.535151,334.796878 840.527344,334.1875 C841.519536,333.578122 842.550776,333.277344 843.621094,333.285156 C845.769542,333.285156 847.242184,334.13671 848.039062,335.839844 C848.328126,336.457034 848.472656,337.218745 848.472656,338.125 L848.472656,346 L846.667969,346 L846.667969,344.722656 C845.878902,345.746099 844.593759,346.25 842.8125,346.234375 C841.757807,346.234375 840.808598,345.937503 839.964844,345.34375 C839.12109,344.749997 838.703125,343.824225 838.710938,342.566406 C838.710938,341.941403 838.890623,341.269535 839.25,340.550781 C839.609377,339.832028 840.316401,339.320314 841.371094,339.015625 C842.425787,338.710936 844.191394,338.48047 846.667969,338.324219 L846.667969,338.101562 Z M846.667969,341.535156 L846.667969,339.929688 C845.324212,340.023438 844.246098,340.124999 843.433594,340.234375 C842.62109,340.343751 841.996096,340.51953 841.558594,340.761719 C841.121092,341.003907 840.839844,341.26953 840.714844,341.558594 C840.574218,341.847658 840.503906,342.218748 840.503906,342.671875 C840.503906,343.125002 840.722654,343.546873 841.160156,343.9375 C841.597658,344.320314 842.285152,344.511719 843.222656,344.511719 C844.160161,344.519531 844.968747,344.265628 845.648438,343.75 C846.328128,343.234372 846.667969,342.496099 846.667969,341.535156 Z M855.199219,335.347656 L855.199219,333.613281 L859.710938,333.613281 L859.710938,334.914062 C860.015627,334.421873 860.460935,334.046876 861.046875,333.789062 C861.632815,333.531249 862.203122,333.402344 862.757812,333.402344 L865.734375,333.402344 L865.734375,335.125 L862.757812,335.125 C861.960934,335.125 861.253909,335.386716 860.636719,335.910156 C860.019528,336.433596 859.710938,337.20312 859.710938,338.21875 L859.710938,344.277344 L864.539062,344.277344 L864.539062,346 L854.003906,346 L854.003906,344.277344 L857.917969,344.277344 L857.917969,335.347656 L855.199219,335.347656 Z M879,338.558594 L879,338.101562 C879,337.070307 878.691409,336.296878 878.074219,335.78125 C877.457028,335.265622 876.750004,335.007812 875.953125,335.007812 C875.164059,335.007812 874.457034,335.269529 873.832031,335.792969 C873.207028,336.316409 872.898437,337.085932 872.90625,338.101562 L872.90625,338.558594 L879,338.558594 Z M872.90625,341.417969 C872.90625,342.441411 873.214841,343.210935 873.832031,343.726562 C874.449222,344.24219 875.132809,344.503906 875.882812,344.511719 C876.640629,344.511719 877.300778,344.312502 877.863281,343.914062 C878.425784,343.515623 878.781249,342.914067 878.929688,342.109375 L880.769531,342.109375 C880.61328,343.648445 880.039067,344.722653 879.046875,345.332031 C878.054683,345.941409 877.023443,346.242188 875.953125,346.234375 C873.804677,346.234375 872.332035,345.382821 871.535156,343.679688 C871.246092,343.062497 871.101562,342.300786 871.101562,341.394531 L871.101562,338.125 C871.101562,336.460929 871.621089,335.199223 872.660156,334.339844 C873.50391,333.636715 874.601556,333.285156 875.953125,333.285156 C878.093761,333.285156 879.562496,334.13671 880.359375,335.839844 C880.648439,336.457034 880.792969,337.218745 880.792969,338.125 L880.792969,340.210938 L872.90625,340.210938 L872.90625,341.417969 Z M892.078125,333.285156 C894.195323,333.285156 895.664058,334.13671 896.484375,335.839844 C896.773439,336.457034 896.914063,337.218745 896.90625,338.125 L896.90625,346 L895.113281,346 L895.113281,338.101562 C895.113281,337.070307 894.804691,336.296878 894.1875,335.78125 C893.570309,335.265622 892.863285,335.007812 892.066406,335.007812 C891.27734,335.007812 890.570316,335.269529 889.945312,335.792969 C889.320309,336.316409 889.011719,337.085932 889.019531,338.101562 L889.019531,346 L887.214844,346 L887.214844,333.613281 L889.019531,333.613281 L889.019531,334.796875 C889.32422,334.304685 889.765622,333.929689 890.34375,333.671875 C890.921878,333.414061 891.499997,333.285156 892.078125,333.285156 Z M907.839844,335.347656 L907.839844,343.1875 C907.839844,343.593752 907.92578,343.874999 908.097656,344.03125 C908.269532,344.187501 908.566404,344.269531 908.988281,344.277344 L913.042969,344.277344 L913.042969,346 L908.988281,346 C907.839838,346 907.062502,345.77344 906.65625,345.320312 C906.249998,344.867185 906.042969,344.10938 906.035156,343.046875 L906.035156,335.347656 L902.507812,335.347656 L902.507812,333.613281 L906.035156,333.613281 L906.035156,330.8125 L907.839844,330.8125 L907.839844,333.613281 L913.042969,333.613281 L913.042969,335.347656 L907.839844,335.347656 Z M925.875,335.582031 C925.406248,335.199217 924.812504,335.007812 924.09375,335.007812 C923.374996,335.007812 922.796877,335.167967 922.359375,335.488281 C921.921873,335.808595 921.703125,336.238279 921.703125,336.777344 C921.703125,337.316409 921.86328,337.718749 922.183594,337.984375 C922.503908,338.250001 922.910154,338.433593 923.402344,338.535156 L925.734375,339.109375 C926.656255,339.335939 927.41406,339.722654 928.007812,340.269531 C928.601565,340.824222 928.898438,341.687494 928.898438,342.859375 C928.898438,344.031256 928.484379,344.890622 927.65625,345.4375 C926.828121,345.984378 925.773444,346.25 924.492188,346.234375 C923.210931,346.234375 922.093755,345.906253 921.140625,345.25 C920.179683,344.593747 919.652344,343.523445 919.558594,342.039062 L921.410156,342.039062 C921.488282,342.906254 921.824216,343.535154 922.417969,343.925781 C923.003909,344.316408 923.718746,344.511719 924.5625,344.511719 C925.406254,344.511719 926.031248,344.351564 926.4375,344.03125 C926.843752,343.703123 927.050781,343.30469 927.058594,342.835938 C927.066406,342.367185 926.957032,341.968752 926.730469,341.640625 C926.496093,341.312498 926.03516,341.070313 925.347656,340.914062 L922.921875,340.316406 C922.249997,340.160155 921.574222,339.824221 920.894531,339.308594 C920.21484,338.792966 919.875,337.976568 919.875,336.859375 C919.875,335.749994 920.285152,334.875003 921.105469,334.234375 C921.925785,333.593747 922.933588,333.273438 924.128906,333.273438 C925.324225,333.273438 926.343746,333.589841 927.1875,334.222656 C928.023442,334.855472 928.488281,335.859368 928.582031,337.234375 L926.742188,337.234375 C926.632812,336.515621 926.343752,335.964846 925.875,335.582031 Z" id="more-student-debt-th" fill="#98F3E3"></path>
                <path d="M8.0390625,9.59765625 L10.3945312,20.0625 L12.0703125,7.1953125 L13.875,7.1953125 L11.4726562,24 L9.8203125,24 L7.30078125,13.1484375 L4.78125,24 L3.1171875,24 L0.71484375,7.1953125 L2.51953125,7.1953125 L4.1953125,20.0625 L6.55078125,9.59765625 L8.0390625,9.59765625 Z M26.6609375,16.5585938 L26.6609375,16.1015625 C26.6609375,15.0703073 26.3523469,14.2968776 25.7351563,13.78125 C25.1179657,13.2656224 24.4109415,13.0078125 23.6140625,13.0078125 C22.8249961,13.0078125 22.1179719,13.2695286 21.4929688,13.7929688 C20.8679657,14.3164089 20.559375,15.0859324 20.5671875,16.1015625 L20.5671875,16.5585938 L26.6609375,16.5585938 Z M20.5671875,19.4179688 C20.5671875,20.4414114 20.8757782,21.2109349 21.4929688,21.7265625 C22.1101594,22.2421901 22.7937463,22.5039062 23.54375,22.5117188 C24.3015663,22.5117188 24.961716,22.312502 25.5242188,21.9140625 C26.0867216,21.515623 26.4421868,20.9140665 26.590625,20.109375 L28.4304688,20.109375 C28.274218,21.6484452 27.700005,22.7226532 26.7078125,23.3320312 C25.7156201,23.9414093 24.6843804,24.2421875 23.6140625,24.234375 C21.4656143,24.234375 19.9929728,23.382821 19.1960938,21.6796875 C18.9070299,21.0624969 18.7625,20.3007858 18.7625,19.3945312 L18.7625,16.125 C18.7625,14.4609292 19.2820261,13.199223 20.3210938,12.3398438 C21.164848,11.6367152 22.2624933,11.2851562 23.6140625,11.2851562 C25.7546983,11.2851562 27.2234336,12.1367102 28.0203125,13.8398438 C28.3093765,14.4570343 28.4539063,15.2187455 28.4539063,16.125 L28.4539063,18.2109375 L20.5671875,18.2109375 L20.5671875,19.4179688 Z M41.4625001,7.53515625 L39.3765626,12.796875 L38.2632813,12.3398438 L40.3609376,7.078125 L41.4625001,7.53515625 Z M61.6429689,11.6132812 L57.1781251,24 L55.1625001,24 L50.6976564,11.6132812 L52.6078126,11.6132812 L56.1703126,21.6679688 L59.7210939,11.6132812 L61.6429689,11.6132812 Z M75.5304689,16.5585938 L75.5304689,16.1015625 C75.5304689,15.0703073 75.2218783,14.2968776 74.6046877,13.78125 C73.9874971,13.2656224 73.2804729,13.0078125 72.4835939,13.0078125 C71.6945275,13.0078125 70.9875033,13.2695286 70.3625002,13.7929688 C69.7374971,14.3164089 69.4289064,15.0859324 69.4367189,16.1015625 L69.4367189,16.5585938 L75.5304689,16.5585938 Z M69.4367189,19.4179688 C69.4367189,20.4414114 69.7453096,21.2109349 70.3625002,21.7265625 C70.9796908,22.2421901 71.6632777,22.5039062 72.4132814,22.5117188 C73.1710977,22.5117188 73.8312474,22.312502 74.3937502,21.9140625 C74.956253,21.515623 75.3117182,20.9140665 75.4601564,20.109375 L77.3000002,20.109375 C77.1437494,21.6484452 76.5695364,22.7226532 75.5773439,23.3320312 C74.5851515,23.9414093 73.5539118,24.2421875 72.4835939,24.234375 C70.3351457,24.234375 68.8625042,23.382821 68.0656252,21.6796875 C67.7765612,21.0624969 67.6320314,20.3007858 67.6320314,19.3945312 L67.6320314,16.125 C67.6320314,14.4609292 68.1515575,13.199223 69.1906252,12.3398438 C70.0343794,11.6367152 71.1320247,11.2851562 72.4835939,11.2851562 C74.6242296,11.2851562 76.092965,12.1367102 76.8898439,13.8398438 C77.1789079,14.4570343 77.3234377,15.2187455 77.3234377,16.125 L77.3234377,18.2109375 L69.4367189,18.2109375 L69.4367189,19.4179688 Z M7.03125,46.3476562 L7.03125,54.1875 C7.03125,54.593752 7.11718664,54.8749992 7.2890625,55.03125 C7.46093836,55.1875008 7.75781039,55.2695312 8.1796875,55.2773438 L12.234375,55.2773438 L12.234375,57 L8.1796875,57 C7.03124426,57 6.25390828,56.7734398 5.84765625,56.3203125 C5.44140422,55.8671852 5.23437504,55.1093803 5.2265625,54.046875 L5.2265625,46.3476562 L1.69921875,46.3476562 L1.69921875,44.6132812 L5.2265625,44.6132812 L5.2265625,41.8125 L7.03125,41.8125 L7.03125,44.6132812 L12.234375,44.6132812 L12.234375,46.3476562 L7.03125,46.3476562 Z M26.5085938,49.1015625 C26.5085938,48.0703073 26.2000031,47.2968776 25.5828125,46.78125 C24.965622,46.2656224 24.282035,46.0078125 23.5320313,46.0078125 C22.7820275,46.0078125 22.1257841,46.2070293 21.5632813,46.6054688 C21.0007785,47.0039082 20.6414071,47.6054647 20.4851563,48.4101562 L18.6453125,48.4101562 C18.8015633,46.8710861 19.3757763,45.796878 20.3679688,45.1875 C21.3601613,44.578122 22.3914009,44.2773437 23.4617188,44.2851562 C25.610167,44.2851562 27.0828086,45.1367102 27.8796875,46.8398438 C28.1687515,47.4570343 28.3132813,48.2187455 28.3132813,49.125 L28.3132813,57 L26.5085938,57 L26.5085938,55.7226562 C25.7195274,56.7460989 24.434384,57.2500001 22.653125,57.234375 C21.5984323,57.234375 20.649223,56.937503 19.8054688,56.34375 C18.9617146,55.749997 18.54375,54.824225 18.5515625,53.5664062 C18.5515625,52.9414031 18.7312483,52.2695348 19.090625,51.5507812 C19.4500018,50.8320277 20.157026,50.320314 21.2117188,50.015625 C22.2664116,49.710936 24.0320189,49.4804695 26.5085938,49.3242188 L26.5085938,49.1015625 Z M26.5085938,52.5351562 L26.5085938,50.9296875 C25.1648371,51.023438 24.0867229,51.1249995 23.2742188,51.234375 C22.4617147,51.3437505 21.836721,51.51953 21.3992188,51.7617188 C20.9617166,52.0039075 20.6804694,52.2695298 20.5554688,52.5585938 C20.4148431,52.8476577 20.3445313,53.2187477 20.3445313,53.671875 C20.3445313,54.1250023 20.5632791,54.546873 21.0007813,54.9375 C21.4382835,55.3203144 22.1257766,55.5117188 23.0632813,55.5117188 C24.000786,55.5195313 24.8093716,55.2656276 25.4890625,54.75 C26.1687534,54.2343724 26.5085938,53.4960986 26.5085938,52.5351562 Z M37.3023438,40.1953125 L37.3023438,50.4726562 L42.7046876,44.6132812 L44.9429688,44.6132812 L40.4781251,49.4648438 L45.5875001,57 L43.4781251,57 L39.2476563,50.7890625 L37.3023438,52.8984375 L37.3023438,57 L35.5093751,57 L35.5093751,40.1953125 L37.3023438,40.1953125 Z M59.2406251,49.5585938 L59.2406251,49.1015625 C59.2406251,48.0703073 58.9320345,47.2968776 58.3148439,46.78125 C57.6976533,46.2656224 56.9906291,46.0078125 56.1937501,46.0078125 C55.4046837,46.0078125 54.6976595,46.2695286 54.0726564,46.7929688 C53.4476533,47.3164089 53.1390626,48.0859324 53.1468751,49.1015625 L53.1468751,49.5585938 L59.2406251,49.5585938 Z M53.1468751,52.4179687 C53.1468751,53.4414114 53.4554658,54.2109349 54.0726564,54.7265625 C54.689847,55.2421901 55.3734339,55.5039062 56.1234376,55.5117187 C56.8812539,55.5117187 57.5414036,55.312502 58.1039064,54.9140625 C58.6664092,54.515623 59.0218744,53.9140665 59.1703126,53.109375 L61.0101564,53.109375 C60.8539056,54.6484452 60.2796926,55.7226532 59.2875001,56.3320312 C58.2953077,56.9414093 57.264068,57.2421875 56.1937501,57.234375 C54.0453019,57.234375 52.5726604,56.382821 51.7757814,54.6796875 C51.4867174,54.0624969 51.3421876,53.3007858 51.3421876,52.3945312 L51.3421876,49.125 C51.3421876,47.4609292 51.8617137,46.199223 52.9007814,45.3398437 C53.7445356,44.6367152 54.8421809,44.2851562 56.1937501,44.2851562 C58.3343858,44.2851562 59.8031212,45.1367102 60.6000001,46.8398437 C60.8890641,47.4570343 61.0335939,48.2187455 61.0335939,49.125 L61.0335939,51.2109375 L53.1468751,51.2109375 L53.1468751,52.4179687 Z M72.5187502,44.2851562 C74.6359483,44.2851562 76.1046836,45.1367102 76.9250002,46.8398437 C77.2140641,47.4570343 77.3546877,48.2187455 77.3468752,49.125 L77.3468752,57 L75.5539064,57 L75.5539064,49.1015625 C75.5539064,48.0703073 75.2453158,47.2968776 74.6281252,46.78125 C74.0109346,46.2656224 73.3039104,46.0078125 72.5070314,46.0078125 C71.717965,46.0078125 71.0109408,46.2695286 70.3859377,46.7929687 C69.7609346,47.3164089 69.4523439,48.0859324 69.4601564,49.1015625 L69.4601564,57 L67.6554689,57 L67.6554689,44.6132812 L69.4601564,44.6132812 L69.4601564,45.796875 C69.7648455,45.304685 70.2062473,44.9296888 70.7843752,44.671875 C71.3625031,44.4140612 71.9406223,44.2851562 72.5187502,44.2851562 Z M108.086719,52.4179688 L108.086719,49.1015625 C108.086719,48.0703073 107.778128,47.2968776 107.160938,46.78125 C106.543747,46.2656224 105.836723,46.0078125 105.039844,46.0078125 C104.250778,46.0078125 103.543753,46.2695286 102.91875,46.7929688 C102.293747,47.3164089 101.98125,48.0859324 101.98125,49.1015625 L101.98125,52.4179688 C101.98125,53.4414114 102.289841,54.2109349 102.907032,54.7265625 C103.524222,55.2421901 104.231246,55.5039062 105.028125,55.5117188 C105.825004,55.5039062 106.535935,55.2421901 107.160938,54.7265625 C107.778128,54.2109349 108.086719,53.4414114 108.086719,52.4179688 Z M109.879688,49.125 L109.879688,52.3945312 C109.879688,54.0586021 109.360162,55.3203082 108.321094,56.1796875 C107.47734,56.882816 106.383601,57.234375 105.039844,57.234375 C102.891396,57.234375 101.418754,56.382821 100.621875,54.6796875 C100.332811,54.0624969 100.188282,53.3007858 100.188282,52.3945312 L100.188282,49.125 C100.188282,47.4609292 100.707808,46.199223 101.746875,45.3398437 C102.59063,44.6367152 103.688275,44.2851562 105.039844,44.2851562 C107.18048,44.2851562 108.649215,45.1367102 109.446094,46.8398437 C109.735158,47.4492218 109.879688,48.2109329 109.879688,49.125 Z M121.388282,44.2851562 C123.50548,44.2851562 124.974215,45.1367102 125.794532,46.8398437 C126.083596,47.4570343 126.224219,48.2187455 126.216407,49.125 L126.216407,57 L124.423438,57 L124.423438,49.1015625 C124.423438,48.0703073 124.114847,47.2968776 123.497657,46.78125 C122.880466,46.2656224 122.173442,46.0078125 121.376563,46.0078125 C120.587496,46.0078125 119.880472,46.2695286 119.255469,46.7929687 C118.630466,47.3164089 118.321875,48.0859324 118.329688,49.1015625 L118.329688,57 L116.525,57 L116.525,44.6132812 L118.329688,44.6132812 L118.329688,45.796875 C118.634377,45.304685 119.075779,44.9296888 119.653907,44.671875 C120.232034,44.4140612 120.810154,44.2851562 121.388282,44.2851562 Z M10.21875,82.1015625 C10.21875,81.0703073 9.91015934,80.2968776 9.29296875,79.78125 C8.67577816,79.2656224 7.99219125,79.0078125 7.2421875,79.0078125 C6.49218375,79.0078125 5.83594031,79.2070293 5.2734375,79.6054688 C4.71093469,80.0039082 4.35156328,80.6054647 4.1953125,81.4101562 L2.35546875,81.4101562 C2.51171953,79.8710861 3.08593254,78.796878 4.078125,78.1875 C5.07031746,77.578122 6.10155715,77.2773437 7.171875,77.2851562 C9.32032324,77.2851562 10.7929648,78.1367102 11.5898438,79.8398438 C11.8789077,80.4570343 12.0234375,81.2187455 12.0234375,82.125 L12.0234375,90 L10.21875,90 L10.21875,88.7226562 C9.42968355,89.7460989 8.14454016,90.2500001 6.36328125,90.234375 C5.30858848,90.234375 4.35937922,89.937503 3.515625,89.34375 C2.67187078,88.749997 2.25390621,87.824225 2.26171875,86.5664062 C2.26171875,85.9414031 2.44140445,85.2695348 2.80078125,84.5507812 C3.16015805,83.8320277 3.86718223,83.320314 4.921875,83.015625 C5.97656777,82.710936 7.74217512,82.4804695 10.21875,82.3242188 L10.21875,82.1015625 Z M10.21875,85.5351562 L10.21875,83.9296875 C8.87499328,84.023438 7.79687906,84.1249995 6.984375,84.234375 C6.17187094,84.3437505 5.54687719,84.51953 5.109375,84.7617188 C4.67187281,85.0039075 4.39062563,85.2695298 4.265625,85.5585938 C4.1249993,85.8476577 4.0546875,86.2187477 4.0546875,86.671875 C4.0546875,87.1250023 4.27343531,87.546873 4.7109375,87.9375 C5.14843969,88.3203144 5.83593281,88.5117188 6.7734375,88.5117188 C7.71094219,88.5195313 8.51952785,88.2656276 9.19921875,87.75 C9.87890965,87.2343724 10.21875,86.4960986 10.21875,85.5351562 Z M23.3210938,79.3476562 L23.3210938,87.1875 C23.3210938,87.593752 23.4070304,87.8749992 23.5789063,88.03125 C23.7507822,88.1875008 24.0476542,88.2695312 24.4695313,88.2773437 L28.5242188,88.2773437 L28.5242188,90 L24.4695313,90 C23.3210881,90 22.5437521,89.7734398 22.1375,89.3203125 C21.731248,88.8671852 21.5242188,88.1093803 21.5164063,87.046875 L21.5164063,79.3476562 L17.9890625,79.3476562 L17.9890625,77.6132812 L21.5164063,77.6132812 L21.5164063,74.8125 L23.3210938,74.8125 L23.3210938,77.6132812 L28.5242188,77.6132812 L28.5242188,79.3476562 L23.3210938,79.3476562 Z M52.1039064,74.9296875 L52.1039064,73.1953125 L57.0726564,73.1953125 L57.0726564,88.2773438 L61.4437501,88.2773438 L61.4437501,90 L50.9085939,90 L50.9085939,88.2773438 L55.2796876,88.2773438 L55.2796876,74.9296875 L52.1039064,74.9296875 Z M75.5304689,82.5585938 L75.5304689,82.1015625 C75.5304689,81.0703073 75.2218783,80.2968776 74.6046877,79.78125 C73.9874971,79.2656224 73.2804729,79.0078125 72.4835939,79.0078125 C71.6945275,79.0078125 70.9875033,79.2695286 70.3625002,79.7929688 C69.7374971,80.3164089 69.4289064,81.0859324 69.4367189,82.1015625 L69.4367189,82.5585938 L75.5304689,82.5585938 Z M69.4367189,85.4179687 C69.4367189,86.4414114 69.7453096,87.2109349 70.3625002,87.7265625 C70.9796908,88.2421901 71.6632777,88.5039062 72.4132814,88.5117187 C73.1710977,88.5117187 73.8312474,88.312502 74.3937502,87.9140625 C74.956253,87.515623 75.3117182,86.9140665 75.4601564,86.109375 L77.3000002,86.109375 C77.1437494,87.6484452 76.5695364,88.7226532 75.5773439,89.3320312 C74.5851515,89.9414093 73.5539118,90.2421875 72.4835939,90.234375 C70.3351457,90.234375 68.8625042,89.382821 68.0656252,87.6796875 C67.7765612,87.0624969 67.6320314,86.3007858 67.6320314,85.3945312 L67.6320314,82.125 C67.6320314,80.4609292 68.1515575,79.199223 69.1906252,78.3398437 C70.0343794,77.6367152 71.1320247,77.2851562 72.4835939,77.2851562 C74.6242296,77.2851562 76.092965,78.1367102 76.8898439,79.8398437 C77.1789079,80.4570343 77.3234377,81.2187455 77.3234377,82.125 L77.3234377,84.2109375 L69.4367189,84.2109375 L69.4367189,85.4179687 Z M91.667969,82.1015625 C91.667969,81.0703073 91.3593783,80.2968776 90.7421877,79.78125 C90.1249972,79.2656224 89.4414102,79.0078125 88.6914065,79.0078125 C87.9414027,79.0078125 87.2851593,79.2070293 86.7226565,79.6054688 C86.1601537,80.0039082 85.8007823,80.6054647 85.6445315,81.4101562 L83.8046877,81.4101562 C83.9609385,79.8710861 84.5351515,78.796878 85.527344,78.1875 C86.5195364,77.578122 87.5507761,77.2773437 88.621094,77.2851562 C90.7695422,77.2851562 92.2421838,78.1367102 93.0390627,79.8398438 C93.3281267,80.4570343 93.4726565,81.2187455 93.4726565,82.125 L93.4726565,90 L91.667969,90 L91.667969,88.7226562 C90.8789025,89.7460989 89.5937591,90.2500001 87.8125002,90.234375 C86.7578075,90.234375 85.8085982,89.937503 84.964844,89.34375 C84.1210898,88.749997 83.7031252,87.824225 83.7109377,86.5664062 C83.7109377,85.9414031 83.8906234,85.2695348 84.2500002,84.5507812 C84.609377,83.8320277 85.3164012,83.320314 86.371094,83.015625 C87.4257868,82.710936 89.1913941,82.4804695 91.667969,82.3242188 L91.667969,82.1015625 Z M91.667969,85.5351562 L91.667969,83.9296875 C90.3242123,84.023438 89.2460981,84.1249995 88.433594,84.234375 C87.6210899,84.3437505 86.9960962,84.51953 86.558594,84.7617188 C86.1210918,85.0039075 85.8398446,85.2695298 85.714844,85.5585938 C85.5742183,85.8476577 85.5039065,86.2187477 85.5039065,86.671875 C85.5039065,87.1250023 85.7226543,87.546873 86.1601565,87.9375 C86.5976587,88.3203144 87.2851518,88.5117188 88.2226565,88.5117188 C89.1601612,88.5195313 89.9687468,88.2656276 90.6484377,87.75 C91.3281286,87.2343724 91.667969,86.4960986 91.667969,85.5351562 Z M106.715625,79.5820312 C106.246873,79.1992168 105.653129,79.0078125 104.934375,79.0078125 C104.215622,79.0078125 103.637502,79.1679671 103.2,79.4882812 C102.762498,79.8085954 102.54375,80.2382786 102.54375,80.7773438 C102.54375,81.3164089 102.703905,81.7187487 103.024219,81.984375 C103.344533,82.2500013 103.750779,82.4335932 104.242969,82.5351562 L106.575,83.109375 C107.49688,83.3359386 108.254685,83.7226535 108.848438,84.2695312 C109.442191,84.8242215 109.739063,85.6874941 109.739063,86.859375 C109.739063,88.0312559 109.325004,88.8906223 108.496875,89.4375 C107.668746,89.9843777 106.614069,90.2500001 105.332813,90.234375 C104.051556,90.234375 102.93438,89.9062533 101.98125,89.25 C101.020308,88.5937467 100.49297,87.5234449 100.399219,86.0390625 L102.250782,86.0390625 C102.328907,86.9062543 102.664841,87.5351543 103.258594,87.9257812 C103.844534,88.3164082 104.559371,88.5117188 105.403125,88.5117188 C106.24688,88.5117188 106.871873,88.3515641 107.278125,88.03125 C107.684377,87.7031234 107.891406,87.3046898 107.899219,86.8359375 C107.907032,86.3671852 107.797658,85.9687516 107.571094,85.640625 C107.336718,85.3124984 106.875785,85.0703133 106.188282,84.9140625 L103.7625,84.3164062 C103.090622,84.1601555 102.414847,83.8242213 101.735157,83.3085938 C101.055466,82.7929662 100.715625,81.9765681 100.715625,80.859375 C100.715625,79.7499945 101.125777,78.8750032 101.946094,78.234375 C102.766411,77.5937468 103.774213,77.2734375 104.969532,77.2734375 C106.16485,77.2734375 107.184371,77.5898406 108.028125,78.2226562 C108.864067,78.8554719 109.328906,79.8593681 109.422657,81.234375 L107.582813,81.234375 C107.473437,80.5156214 107.184378,79.9648457 106.715625,79.5820312 Z M121.060157,79.3476562 L121.060157,87.1875 C121.060157,87.593752 121.146093,87.8749992 121.317969,88.03125 C121.489845,88.1875008 121.786717,88.2695312 122.208594,88.2773437 L126.263282,88.2773437 L126.263282,90 L122.208594,90 C121.060151,90 120.282815,89.7734398 119.876563,89.3203125 C119.470311,88.8671852 119.263282,88.1093803 119.255469,87.046875 L119.255469,79.3476562 L115.728125,79.3476562 L115.728125,77.6132812 L119.255469,77.6132812 L119.255469,74.8125 L121.060157,74.8125 L121.060157,77.6132812 L126.263282,77.6132812 L126.263282,79.3476562 L121.060157,79.3476562 Z" id="We’ve-taken-on-at-le" fill="#98F3E3"></path>
                <polygon id="Fill-2-Copy" fill="#9BF3E3" points="826.329191 19 772 199 797.670809 199 852 19"></polygon>
                <circle id="Oval" fill="#9BF3E3" cx="771.5" cy="81.5" r="22.5"></circle>
                <circle id="Oval-Copy" fill="#9BF3E3" cx="854.5" cy="137.5" r="22.5"></circle>
            </g>
        </g>
    </g>
</svg>