<svg width="1582" height="1308" viewBox="0 0 791 654" xmlns="http://www.w3.org/2000/svg"><title>rip-stitches</title><g stroke-width="5.07" fill="none" fill-rule="evenodd" stroke-linecap="round" stroke-linejoin="round"><path d="M422.47 112.52l-9.12-9.12M413.35 112.52l9.12-9.12" stroke="#000"/><path d="M458.98 322.44l-9.12 9.12M449.86 322.44l9.12 9.12M650.64 422.83l-9.12-9.12M641.52 422.83l9.12-9.12M166.93 368.07l9.12 9.13M176.05 368.07l-9.12 9.13M303.83 331.56l-9.13 9.13M294.7 331.56l9.13 9.13M340.33 422.83l9.13-9.12M349.46 422.83l-9.13-9.12" stroke="#34D0A9"/><path d="M550.25 112.52l-9.13-9.12M541.12 112.52l9.13-9.12" stroke="#000"/><path d="M185.18 167.28l9.13 9.13M194.31 167.28l-9.13 9.13M312.95 176.41l9.13 9.13M322.08 176.41l-9.13 9.13M458.98 176.41l9.13 9.13M468.11 176.41l-9.13 9.13" stroke="#34D0A9"/><path d="M413.35 623.62l-9.13 9.13M404.22 623.62l9.13 9.13M230.81 48.63l9.13 9.13M239.94 48.63l-9.13 9.13M239.94 614.49l-9.13 9.13M230.81 614.49l9.13 9.13M249.07 614.49l-9.13 9.13M239.94 614.49l9.13 9.13M258.19 614.49l-9.12 9.13M249.07 614.49l9.12 9.13M230.81 614.49l-9.12 9.13M221.69 614.49l9.12 9.13M221.69 614.49l-9.13 9.13M212.56 614.49l9.13 9.13M376.84 477.59l9.13 9.13M385.97 477.59l-9.13 9.13M349.46 514.1l9.13 9.13M358.59 514.1l-9.13 9.13" stroke="#000"/><path d="M559.38 358.94l9.12 9.13M568.5 358.94l-9.12 9.13M477.24 377.2l-9.13 9.12M468.11 377.2l9.13 9.12M486.36 386.32l-9.12 9.13M477.24 386.32l9.12 9.13M668.9 322.44l9.12-9.13M678.02 322.44l-9.12-9.13M641.52 368.07l9.12 9.13M650.64 368.07l-9.12 9.13M641.52 377.2l9.12 9.12M650.64 377.2l-9.12 9.12M641.52 386.32l9.12 9.13M650.64 386.32l-9.12 9.13M668.9 313.31l-9.13 9.13M659.77 313.31l9.13 9.13M103.04 331.56l9.12 9.13M112.16 331.56l-9.12 9.13M103.04 340.69l9.12 9.13M112.16 340.69l-9.12 9.13M103.04 349.82l9.12 9.12M112.16 349.82l-9.12 9.12M285.57 377.2l9.13 9.12M294.7 377.2l-9.13 9.12M285.57 395.45l9.13 9.13M294.7 395.45l-9.13 9.13" stroke="#34D0A9"/><path d="M20.9 404.58l-9.13 9.12M20.9 413.7l-9.13-9.12M20.9 413.7l-9.13 9.13M20.9 422.83l-9.13-9.13M20.9 422.83l-9.13 9.13M20.9 431.96l-9.13-9.13M751.04 368.07l9.13 9.13M751.04 377.2l9.13-9.13M778.42 504.97l9.12 9.13M778.42 514.1l9.12-9.13M778.42 495.84l9.12 9.13M778.42 504.97l9.12-9.13M769.29 486.72l9.13 9.12M769.29 495.84l9.13-9.12M568.5 532.35l-9.12 9.13M559.38 532.35l9.12 9.13M577.63 532.35l-9.13 9.13M568.5 532.35l9.13 9.13M586.76 532.35l-9.13 9.13M577.63 532.35l9.13 9.13M559.38 532.35l-9.13 9.13M550.25 532.35l9.13 9.13M550.25 532.35l-9.13 9.13M541.12 532.35l9.13 9.13M477.24 486.72l-9.13 9.12M468.11 486.72l9.13 9.12M477.24 477.59l-9.13 9.13M468.11 477.59l9.13 9.13M477.24 468.46l-9.13 9.13M468.11 468.46l9.13 9.13M395.09 3l9.13 9.13M404.22 3l-9.13 9.13M395.09 48.63l9.13 9.13M404.22 48.63l-9.13 9.13M395.09 57.76l9.13 9.13M404.22 57.76l-9.13 9.13M395.09 76.01l9.13 9.13M404.22 76.01l-9.13 9.13M395.09 94.27l9.13 9.12M404.22 94.27l-9.13 9.12" stroke="#000"/><path d="M486.36 358.94l-9.12 9.13M477.24 358.94l9.12 9.13M486.36 368.07l-9.12 9.13M477.24 368.07l9.12 9.13M705.4 331.56l9.13-9.12M714.53 331.56l-9.13-9.12M705.4 322.44l9.13-9.13M714.53 322.44l-9.13-9.13M212.56 349.82l9.13 9.12M221.69 349.82l-9.13 9.12M212.56 358.94l9.13 9.13M221.69 358.94l-9.13 9.13M212.56 368.07l9.13 9.13M221.69 368.07l-9.13 9.13M285.57 404.58l9.13 9.12M294.7 404.58l-9.13 9.12M303.83 422.83l-9.13-9.12M294.7 422.83l9.13-9.12" stroke="#34D0A9"/><path d="M541.12 21.25l9.13 9.13M550.25 21.25l-9.13 9.13M541.12 30.38l9.13 9.13M550.25 30.38l-9.13 9.13M541.12 39.51l9.13 9.12M550.25 39.51l-9.13 9.12M577.63 57.76l9.13 9.13M586.76 57.76l-9.13 9.13M586.76 39.51l9.12 9.12M595.88 39.51l-9.12 9.12M422.47 249.42l9.13 9.13M431.6 249.42l-9.13 9.13M422.47 258.55l9.13 9.13M431.6 258.55l-9.13 9.13M687.15 258.55l9.13 9.13M696.28 258.55l-9.13 9.13M687.15 276.8l9.13 9.13M696.28 276.8l-9.13 9.13M276.45 30.38l9.12 9.13M285.57 30.38l-9.12 9.13M285.57 21.25l9.13 9.13M294.7 21.25l-9.13 9.13M285.57 12.13l9.13 9.12M294.7 12.13l-9.13 9.12" stroke="#000"/><path d="M93.91 48.63l9.13 9.13M103.04 48.63l-9.13 9.13M103.04 57.76l9.12 9.13M112.16 57.76l-9.12 9.13M112.16 66.89l9.13 9.12M121.29 66.89l-9.13 9.12M121.29 48.63l-9.13 9.13M112.16 48.63l9.13 9.13M112.16 57.76l-9.12 9.13M103.04 66.89l-9.13 9.12M93.91 66.89l9.13 9.12" stroke="#FE36FB"/><path d="M331.21 641.87l-9.13 9.13M322.08 641.87l9.13 9.13" stroke="#000"/></g></svg>
