<svg width="1582" height="1308" viewBox="0 0 791 654" xmlns="http://www.w3.org/2000/svg"><title>rip-stitches</title><g fill="none" fill-rule="evenodd" stroke-linecap="round" stroke-linejoin="round"><path d="M522.87 605.37l9.13 9.12M532 605.37l-9.13 9.12M513.74 605.37l9.13 9.12M522.87 605.37l-9.13 9.12M504.62 605.37l9.12 9.12M513.74 605.37l-9.12 9.12M532 605.37l9.12 9.12M541.12 605.37l-9.12 9.12M541.12 605.37l9.13 9.12M550.25 605.37l-9.13 9.12M230.81 532.35l9.13 9.13M239.94 532.35l-9.13 9.13M221.69 532.35l9.12 9.13M230.81 532.35l-9.12 9.13M212.56 532.35l9.13 9.13M221.69 532.35l-9.13 9.13M239.94 532.35l9.13 9.13M249.07 532.35l-9.13 9.13M249.07 532.35l9.12 9.13M258.19 532.35l-9.12 9.13M276.45 605.37l-9.13 9.12M267.32 605.37l9.13 9.12M285.57 605.37l-9.12 9.12M276.45 605.37l9.12 9.12M294.7 605.37l-9.13 9.12M285.57 605.37l9.13 9.12M267.32 605.37l-9.13 9.12M258.19 605.37l9.13 9.12M258.19 605.37l-9.12 9.12M249.07 605.37l9.12 9.12M495.49 550.61l-9.13 9.12M486.36 550.61l9.13 9.12M504.62 550.61l-9.13 9.12M495.49 550.61l9.13 9.12M513.74 550.61l-9.12 9.12M504.62 550.61l9.12 9.12M340.33 541.48l9.13 9.13M349.46 541.48l-9.13 9.13M367.71 568.86l9.13 9.13M376.84 568.86l-9.13 9.13M385.97 541.48l-9.13 9.13M376.84 541.48l9.13 9.13M376.84 550.61l-9.13 9.12M367.71 550.61l9.13 9.12M495.49 641.87l-9.13 9.13M486.36 641.87l9.13 9.13M449.86 641.87l-9.13 9.13M440.73 641.87l9.13 9.13M458.98 641.87l-9.12 9.13M449.86 641.87l9.12 9.13M468.11 641.87l-9.13 9.13M458.98 641.87l9.13 9.13M477.24 641.87l-9.13 9.13M468.11 641.87l9.13 9.13M486.36 641.87l-9.12 9.13M477.24 641.87l9.12 9.13M486.36 523.23l-9.12 9.12M477.24 523.23l9.12 9.12M468.11 504.97l-9.13 9.13M458.98 504.97l9.13 9.13M477.24 504.97l-9.13 9.13M468.11 504.97l9.13 9.13M477.24 495.84l-9.13 9.13M468.11 495.84l9.13 9.13M468.11 477.59l-9.13 9.13M458.98 477.59l9.13 9.13M468.11 468.46l-9.13 9.13M458.98 468.46l9.13 9.13M468.11 495.84l-9.13 9.13M458.98 495.84l9.13 9.13M458.98 495.84l-9.12 9.13M449.86 495.84l9.12 9.13M449.86 495.84l-9.13 9.13M440.73 495.84l9.13 9.13M440.73 477.59l-9.13 9.13M431.6 477.59l9.13 9.13M431.6 477.59l-9.13 9.13M422.47 477.59l9.13 9.13M322.08 514.1l9.13 9.13M331.21 514.1l-9.13 9.13M331.21 504.97l9.12 9.13M340.33 504.97l-9.12 9.13M340.33 504.97l9.13 9.13M349.46 504.97l-9.13 9.13M340.33 495.84l9.13 9.13M349.46 495.84l-9.13 9.13M322.08 614.49l-9.13 9.13M312.95 614.49l9.13 9.13M322.08 623.62l-9.13 9.13M312.95 623.62l9.13 9.13M322.08 632.75l-9.13 9.12M312.95 632.75l9.13 9.12M322.08 605.37l-9.13 9.12M312.95 605.37l9.13 9.12M322.08 596.24l-9.13 9.13M312.95 596.24l9.13 9.13M322.08 587.11l-9.13 9.13M312.95 587.11l9.13 9.13M322.08 577.99l-9.13 9.12M312.95 577.99l9.13 9.12M322.08 568.86l-9.13 9.13M312.95 568.86l9.13 9.13M322.08 559.73l-9.13 9.13M312.95 559.73l9.13 9.13M322.08 550.61l-9.13 9.12M312.95 550.61l9.13 9.12M322.08 541.48l-9.13 9.13M312.95 541.48l9.13 9.13M495.49 532.35l-9.13 9.13M486.36 532.35l9.13 9.13M431.6 468.46l-9.13 9.13M422.47 468.46l9.13 9.13M422.47 459.34l-9.12 9.12M413.35 459.34l9.12 9.12M413.35 459.34l-9.13 9.12M404.22 459.34l9.13 9.12M404.22 614.49l-9.13 9.13M395.09 614.49l9.13 9.13M404.22 605.37l-9.13 9.12M395.09 605.37l9.13 9.12M413.35 605.37l-9.13 9.12M404.22 605.37l9.13 9.12M404.22 477.59l9.13 9.13M413.35 477.59l-9.13 9.13M413.35 477.59l9.12 9.13M422.47 477.59l-9.12 9.13M385.97 514.1l9.12 9.13M395.09 514.1l-9.12 9.13M376.84 514.1l9.13 9.13M385.97 514.1l-9.13 9.13M395.09 514.1l9.13 9.13M404.22 514.1l-9.13 9.13M404.22 514.1l9.13 9.13M413.35 514.1l-9.13 9.13M340.33 514.1l9.13 9.13M349.46 514.1l-9.13 9.13M331.21 514.1l9.12 9.13M340.33 514.1l-9.12 9.13M422.47 514.1l9.13 9.13M431.6 514.1l-9.13 9.13M458.98 514.1l9.13 9.13M468.11 514.1l-9.13 9.13M413.35 514.1l9.12 9.13M422.47 514.1l-9.12 9.13M440.73 568.86l9.13 9.13M449.86 568.86l-9.13 9.13M449.86 577.99l9.12 9.12M458.98 577.99l-9.12 9.12M458.98 541.48l-9.12 9.13M449.86 541.48l9.12 9.13M431.6 568.86l-9.13 9.13M422.47 568.86l9.13 9.13M404.22 632.75l-9.13 9.12M395.09 632.75l9.13 9.12M404.22 623.62l-9.13 9.13M395.09 623.62l9.13 9.13M395.09 632.75l-9.12 9.12M385.97 632.75l9.12 9.12M395.09 623.62l-9.12 9.13M385.97 623.62l9.12 9.13M413.35 632.75l-9.13 9.12M404.22 632.75l9.13 9.12M29.74 395.45l-9.12 9.13M29.74 404.58l-9.12-9.13M29.74 386.32l-9.12 9.13M29.74 395.45l-9.12-9.13M112.16 486.72l-9.12 9.12M112.16 495.84l-9.12-9.12M121.29 495.84l-9.13 9.13M121.29 504.97l-9.13-9.13M112.16 523.23l-9.12 9.12M112.16 532.35l-9.12-9.12M103.04 532.35l-9.13 9.13M103.04 541.48l-9.13-9.13M93.91 532.35l-9.13 9.13M93.91 541.48l-9.13-9.13M84.78 541.48l-9.12 9.13M84.78 550.61l-9.12-9.13M20.9 504.97l-9.13 9.13M20.9 514.1l-9.13-9.13M30.02 495.84l-9.12 9.13M30.02 504.97l-9.12-9.13M20.9 495.84l-9.13 9.13M20.9 504.97l-9.13-9.13M39.15 495.84l-9.13 9.13M39.15 504.97l-9.13-9.13M778.42 404.58l9.12 9.12M778.42 413.7l9.12-9.12M778.42 413.7l9.12 9.13M778.42 422.83l9.12-9.13M778.42 422.83l9.12 9.13M778.42 431.96l9.12-9.13M778.42 431.96l9.12 9.12M778.42 441.08l9.12-9.12M687.15 486.72l9.13 9.12M687.15 495.84l9.13-9.12M678.02 495.84l9.13 9.13M678.02 504.97l9.13-9.13M696.28 532.35l9.12 9.13M696.28 541.48l9.12-9.13M705.4 532.35l9.13 9.13M705.4 541.48l9.13-9.13M404.22 495.84l-9.13 9.13M395.09 495.84l9.13 9.13M395.09 495.84l-9.12 9.13M385.97 495.84l9.12 9.13M385.97 495.84l-9.13 9.13M376.84 495.84l9.13 9.13M395.1 12.13l9.12 9.12M404.22 12.13l-9.12 9.12M395.09 21.25l9.13 9.13M404.22 21.25l-9.13 9.13M404.22 39.51l9.13 9.12M413.35 39.51l-9.13 9.12M404.22 94.27l9.13 9.12M413.35 94.27l-9.13 9.12M422.47 3l-9.12 9.13M413.35 3l9.12 9.13M385.97 121.65l9.13-9.13M395.1 121.65l-9.13-9.13M431.6 121.65l-9.13-9.13M422.47 121.65l9.13-9.13M522.87 30.38l9.13 9.13M532 30.38l-9.13 9.13M522.87 39.51l9.13 9.12M532 39.51l-9.13 9.12M532 48.63l9.12 9.13M541.12 48.63L532 57.76M559.38 57.76l9.12 9.13M568.5 57.76l-9.12 9.13M586.76 3l9.12 9.13M595.88 3l-9.12 9.13M595.88 48.63l9.13 9.13M605.01 48.63l-9.13 9.13M595.88 30.38l9.13 9.13M605.01 30.38l-9.13 9.13M595.88 21.25l9.13 9.13M605.01 21.25l-9.13 9.13M605.01 30.38l9.13 9.13M614.14 30.38l-9.13 9.13M522.87 85.14l9.13 9.13M532 85.14l-9.13 9.13M513.74 121.65l9.13-9.13M522.87 121.65l-9.13-9.13M203.43 12.13l9.13 9.12M212.56 12.13l-9.13 9.12M212.56 12.13l9.13 9.12M221.69 12.13l-9.13 9.12M212.56 21.25l9.13 9.13M221.69 21.25l-9.13 9.13M276.45 57.76l9.12 9.13M285.57 57.76l-9.12 9.13M285.57 48.63l9.13 9.13M294.7 48.63l-9.13 9.13M285.57 39.51l9.13 9.12M294.7 39.51l-9.13 9.12M285.57 94.27l9.13 9.12M294.7 94.27l-9.13 9.12M285.57 66.89l9.13 9.12M294.7 66.89l-9.13 9.12M294.7 85.14l9.13 9.13M303.83 85.14l-9.13 9.13M221.69 103.39l9.12 9.13M230.81 103.39l-9.12 9.13M230.81 94.27l9.13 9.12M239.94 94.27l-9.13 9.12M249.07 121.65l-9.13-9.13M239.94 121.65l9.13-9.13M249.07 112.52l-9.13-9.12M239.94 112.52l9.13-9.12M239.94 112.52l-9.13-9.12M230.81 112.52l9.13-9.12M413.35 21.25l9.12 9.13M422.47 21.25l-9.12 9.13M385.97 57.76l9.12 9.13M395.09 57.76l-9.12 9.13M413.35 57.76l9.12 9.13M422.47 57.76l-9.12 9.13M413.35 66.89l9.12 9.12M422.47 66.89l-9.12 9.12M413.35 76.01l9.12 9.13M422.47 76.01l-9.12 9.13M431.6 3l-9.13 9.13M422.47 3l9.13 9.13M431.6 12.13l-9.13 9.12M422.47 12.13l9.13 9.12M422.47 12.13l-9.12 9.12M413.35 12.13l9.12 9.12M431.6 112.52l-9.13-9.12M422.47 112.52l9.13-9.12M522.87 3l9.13 9.13M532 3l-9.13 9.13M522.87 48.63l9.13 9.13M532 48.63l-9.13 9.13M577.63 48.63l9.13 9.13M586.76 48.63l-9.13 9.13M586.76 57.76l9.12 9.13M595.88 57.76l-9.12 9.13M568.5 3l9.13 9.13M577.63 3l-9.13 9.13M522.87 66.89l9.13 9.12M532 66.89l-9.13 9.12M532 66.89l9.12 9.12M541.12 66.89L532 76.01M541.12 66.89l9.13 9.12M550.25 66.89l-9.13 9.12M522.87 76.01l9.13 9.13M532 76.01l-9.13 9.13M532 76.01l9.12 9.13M541.12 76.01L532 85.14M541.12 85.14l9.13 9.13M550.25 85.14l-9.13 9.13M559.38 3l-9.13 9.13M550.25 3l9.13 9.13M504.62 121.65l9.12-9.13M513.74 121.65l-9.12-9.13M522.87 121.65l9.13-9.13M532 121.65l-9.13-9.13M522.87 112.52l9.13-9.12M532 112.52l-9.13-9.12M276.45 12.13l9.12 9.12M285.57 12.13l-9.12 9.12M276.45 76.01l9.12 9.13M285.57 76.01l-9.12 9.13M221.69 66.89l9.12 9.12M230.81 66.89l-9.12 9.12M212.56 112.52l9.13-9.12M221.69 112.52l-9.13-9.12M395.09 66.89l9.13 9.12M404.22 66.89l-9.13 9.12M404.22 76.01l9.13 9.13M413.35 76.01l-9.13 9.13M395.09 112.52l9.13-9.12M404.22 112.52l-9.13-9.12M513.74 12.13l9.13 9.12M522.87 12.13l-9.13 9.12M532 94.27l9.12 9.12M541.12 94.27l-9.12 9.12M559.38 121.65l-9.13-9.13M550.25 121.65l9.13-9.13M194.31 3l9.12 9.13M203.43 3l-9.12 9.13M203.43 3l9.13 9.13M212.56 3l-9.13 9.13M294.7 21.25l9.13 9.13M303.83 21.25l-9.13 9.13M312.95 112.52l9.13 9.13M322.08 112.52l-9.13 9.13M267.32 66.89l9.13 9.12M276.45 66.89l-9.13 9.12M212.56 85.14l9.13 9.13M221.69 85.14l-9.13 9.13M239.94 12.13l-9.13 9.12M230.81 12.13l9.13 9.12M203.43 112.52l9.13-9.12M212.56 112.52l-9.13-9.12M258.19 121.65l-9.12-9.13M249.07 121.65l9.12-9.13" stroke="#000" stroke-width="5.07"/><path d="M48.28 57.76l9.12 9.13M57.4 57.76l-9.12 9.13M57.4 66.89l9.13 9.12M66.53 66.89l-9.13 9.12M66.53 48.63l-9.13 9.13M57.4 48.63l9.13 9.13M57.4 57.76l-9.12 9.13M148.67 48.63l9.13 9.13M157.8 48.63l-9.13 9.13M157.8 57.76l9.13 9.13M166.93 57.76l-9.13 9.13M166.93 57.76l-9.13 9.13M741.91 48.63l9.13 9.13M751.04 48.63l-9.13 9.13M760.17 66.89l9.12 9.12M769.29 66.89l-9.12 9.12M769.29 48.63l-9.12 9.13M760.17 48.63l9.12 9.13M696.28 57.76l9.12 9.13M705.4 57.76l-9.12 9.13M705.4 66.89l9.13 9.12M714.53 66.89l-9.13 9.12M714.53 48.63l-9.13 9.13M705.4 48.63l9.13 9.13M705.4 57.76l-9.12 9.13M659.77 48.63l-9.13 9.13M650.64 48.63l9.13 9.13" stroke="#FE36FB" stroke-width="5.07"/><path d="M148.67 368.07l9.13 9.13M157.8 368.07l-9.13 9.13M93.91 313.31l9.13 9.13M103.04 313.31l-9.13 9.13M103.04 313.31l9.12 9.13M112.16 313.31l-9.12 9.13M103.04 322.44l9.12 9.12M112.16 322.44l-9.12 9.12M112.16 349.82l9.13 9.12M121.29 349.82l-9.13 9.12M121.29 349.82l9.13 9.12M130.42 349.82l-9.13 9.12M103.04 358.94l9.12 9.13M112.16 358.94l-9.12 9.13M112.16 358.94l9.13 9.13M121.29 358.94l-9.13 9.13M103.04 368.07l9.12 9.13M112.16 368.07l-9.12 9.13M103.04 377.2l9.12 9.12M112.16 377.2l-9.12 9.12M103.04 386.32l9.12 9.13M112.16 386.32l-9.12 9.13M121.29 386.32l9.13 9.13M130.42 386.32l-9.13 9.13M112.16 404.58l9.13 9.12M121.29 404.58l-9.13 9.12M121.29 404.58l9.13 9.12M130.42 404.58l-9.13 9.12M130.42 313.31l-9.13 9.13M121.29 313.31l9.13 9.13M130.42 322.44l-9.13 9.12M121.29 322.44l9.13 9.12M130.42 431.96l-9.13-9.13M121.29 431.96l9.13-9.13M130.42 422.83l-9.13-9.12M121.29 422.83l9.13-9.12M112.16 413.7l9.13 9.13M121.29 413.7l-9.13 9.13M185.18 313.31l9.13 9.13M194.31 313.31l-9.13 9.13M194.31 322.44l9.12 9.12M203.43 322.44l-9.12 9.12M203.43 331.56l9.13 9.13M212.56 331.56l-9.13 9.13M194.31 340.69l9.12 9.13M203.43 340.69l-9.12 9.13M212.56 340.69l9.13 9.13M221.69 340.69l-9.13 9.13M194.31 358.94l9.12 9.13M203.43 358.94l-9.12 9.13M194.31 386.32l9.12 9.13M203.43 386.32l-9.12 9.13M203.43 386.32l9.13 9.13M212.56 386.32l-9.13 9.13M212.56 386.32l9.13 9.13M221.69 386.32l-9.13 9.13M203.43 404.58l9.13 9.12M212.56 404.58l-9.13 9.12M212.56 404.58l9.13 9.12M221.69 404.58l-9.13 9.12M176.05 431.96l9.13-9.13M185.18 431.96l-9.13-9.13M239.94 431.96l-9.13-9.13M230.81 431.96l9.13-9.13M230.81 431.96l-9.12-9.13M221.69 431.96l9.12-9.13M221.69 422.83l-9.13-9.12M212.56 422.83l9.13-9.12M285.57 331.56l9.13 9.13M294.7 331.56l-9.13 9.13M285.57 340.69l9.13 9.13M294.7 340.69l-9.13 9.13M276.45 349.82l9.12 9.12M285.57 349.82l-9.12 9.12M285.57 349.82l9.13 9.12M294.7 349.82l-9.13 9.12M267.32 358.94l9.13 9.13M276.45 358.94l-9.13 9.13M285.57 358.94l9.13 9.13M294.7 358.94l-9.13 9.13M294.7 368.07l9.13 9.13M303.83 368.07l-9.13 9.13M285.57 368.07l9.13 9.13M294.7 368.07l-9.13 9.13M276.45 377.2l9.12 9.12M285.57 377.2l-9.12 9.12M312.95 313.31l-9.12 9.13M303.83 313.31l9.12 9.13M303.83 313.31l-9.13 9.13M294.7 313.31l9.13 9.13M303.83 322.44l-9.13 9.12M294.7 322.44l9.13 9.12M312.95 313.31l9.13 9.13M322.08 313.31l-9.13 9.13M303.83 431.96l-9.13-9.13M294.7 431.96l9.13-9.13M312.95 322.44l-9.12 9.12M303.83 322.44l9.12 9.12M312.95 422.83l-9.12-9.12M303.83 422.83l9.12-9.12M294.7 422.83l-9.13-9.12M285.57 422.83l9.13-9.12M376.84 322.44l-9.13 9.12M367.71 322.44l9.13 9.12M367.71 331.56l-9.12 9.13M358.59 331.56l9.12 9.13M367.71 340.69l-9.12 9.13M358.59 340.69l9.12 9.13M367.71 358.94l-9.12 9.13M358.59 358.94l9.12 9.13M358.59 368.07l-9.13 9.13M349.46 368.07l9.13 9.13M367.71 377.2l-9.12 9.12M358.59 377.2l9.12 9.12M385.97 404.58l-9.13 9.12M376.84 404.58l9.13 9.12M349.46 313.31l9.13 9.13M358.59 313.31l-9.13 9.13M349.46 322.44l9.13 9.12M358.59 322.44l-9.13 9.12M349.46 331.56l9.13 9.13M358.59 331.56l-9.13 9.13M358.59 322.44l9.12 9.12M367.71 322.44l-9.12 9.12M303.83 413.7l-9.13-9.12M294.7 413.7l9.13-9.12M532 313.31l9.12 9.13M541.12 313.31l-9.12 9.13M532 322.44l9.12 9.12M541.12 322.44l-9.12 9.12M550.25 331.56l9.13 9.13M559.38 331.56l-9.13 9.13M559.38 331.56l9.12 9.13M568.5 331.56l-9.12 9.13M559.38 349.82l9.12 9.12M568.5 349.82l-9.12 9.12M568.5 368.07l9.13 9.13M577.63 368.07l-9.13 9.13M559.38 368.07l9.12 9.13M568.5 368.07l-9.12 9.13M559.38 377.2l9.12 9.12M568.5 377.2l-9.12 9.12M559.38 386.32l9.12 9.13M568.5 386.32l-9.12 9.13M559.38 395.45l9.12 9.13M568.5 395.45l-9.12 9.13M541.12 404.58l9.13 9.12M550.25 404.58l-9.13 9.12M550.25 404.58l9.13 9.12M559.38 404.58l-9.13 9.12M568.5 313.31l-9.12 9.13M559.38 313.31l9.12 9.13M568.5 322.44l-9.12 9.12M559.38 322.44l9.12 9.12M532 422.83l9.12-9.12M541.12 422.83l-9.12-9.12M541.12 422.83l9.13-9.12M550.25 422.83l-9.13-9.12M431.6 331.56l9.13 9.13M440.73 331.56l-9.13 9.13M431.6 340.69l9.13 9.13M440.73 340.69l-9.13 9.13M431.6 349.82l9.13 9.12M440.73 349.82l-9.13 9.12M431.6 358.94l9.13 9.13M440.73 358.94l-9.13 9.13M431.6 386.32l9.13 9.13M440.73 386.32l-9.13 9.13M431.6 395.45l9.13 9.13M440.73 395.45l-9.13 9.13M431.6 404.58l9.13 9.12M440.73 404.58l-9.13 9.12M449.86 313.31l-9.13 9.13M440.73 313.31l9.13 9.13M468.11 340.69l-9.13 9.13M458.98 340.69l9.13 9.13M468.11 331.56l-9.13 9.13M458.98 331.56l9.13 9.13M468.11 322.44l-9.13 9.12M458.98 322.44l9.13 9.12M477.24 340.69l-9.13 9.13M468.11 340.69l9.13 9.13M477.24 368.07l-9.13 9.13M468.11 368.07l9.13 9.13M477.24 386.32l-9.13 9.13M468.11 386.32l9.13 9.13M486.36 377.2l-9.12 9.12M477.24 377.2l9.12 9.12M495.49 395.45l-9.13 9.13M486.36 395.45l9.13 9.13M486.36 395.45l-9.12 9.13M477.24 395.45l9.12 9.13M486.36 404.58l-9.12 9.12M477.24 404.58l9.12 9.12M495.49 413.7l-9.13 9.13M486.36 413.7l9.13 9.13M513.74 377.2l-9.12 9.12M504.62 377.2l9.12 9.12M477.24 331.56l-9.13 9.13M468.11 331.56l9.13 9.13M468.11 313.31l-9.13 9.13M458.98 313.31l9.13 9.13M532 331.56l-9.13 9.13M522.87 331.56l9.13 9.13M541.12 331.56l-9.12 9.13M532 331.56l9.12 9.13M495.49 422.83l-9.13 9.13M486.36 422.83l9.13 9.13M449.86 422.83l-9.13-9.12M440.73 422.83l9.13-9.12M550.25 413.7l9.13 9.13M559.38 413.7l-9.13 9.13M550.25 322.44l9.13 9.12M559.38 322.44l-9.13 9.12M659.77 368.07l9.13 9.13M668.9 368.07l-9.13 9.13M668.9 368.07l9.12 9.13M678.02 368.07l-9.12 9.13M678.02 368.07l9.13 9.13M687.15 368.07l-9.13 9.13M678.02 422.83l9.13 9.13M687.15 422.83l-9.13 9.13M668.9 422.83l9.12 9.13M678.02 422.83l-9.12 9.13M687.15 422.83l9.13 9.13M696.28 422.83l-9.13 9.13M696.28 404.58l9.12 9.12M705.4 404.58l-9.12 9.12M687.15 413.7l9.13 9.13M696.28 413.7l-9.13 9.13M705.4 404.58l9.13 9.12M714.53 404.58l-9.13 9.12M705.4 395.45l9.13 9.13M714.53 395.45l-9.13 9.13M705.4 422.83l9.13 9.13M714.53 422.83l-9.13 9.13M687.15 322.44l9.13-9.13M696.28 322.44l-9.13-9.13M696.28 322.44l9.12-9.13M705.4 322.44l-9.12-9.13M678.02 358.94l9.13 9.13M687.15 358.94l-9.13 9.13M614.14 313.31l9.12 9.13M623.26 313.31l-9.12 9.13M632.39 331.56l9.13 9.13M641.52 331.56l-9.13 9.13M641.52 331.56l9.12 9.13M650.64 331.56l-9.12 9.13M623.26 340.69l9.13 9.13M632.39 340.69l-9.13 9.13M641.52 340.69l9.12 9.13M650.64 340.69l-9.12 9.13M623.26 349.82l9.13 9.12M632.39 349.82l-9.13 9.12M623.26 377.2l9.13 9.12M632.39 377.2l-9.13 9.12M623.26 386.32l9.13 9.13M632.39 386.32l-9.13 9.13M623.26 395.45l9.13 9.13M632.39 395.45l-9.13 9.13M659.77 313.31l-9.13 9.13M650.64 313.31l9.13 9.13M650.64 313.31l-9.12 9.13M641.52 313.31l9.12 9.13M668.9 431.96l-9.13-9.13M659.77 431.96l9.13-9.13M541.12 358.94l9.13 9.13M550.25 358.94l-9.13 9.13M550.25 358.94l9.13 9.13M559.38 358.94l-9.13 9.13M541.12 368.07l9.13 9.13M550.25 368.07l-9.13 9.13M550.25 386.32l9.13 9.13M559.38 386.32l-9.13 9.13M522.87 377.2l-9.13 9.12M513.74 377.2l9.13 9.12M513.74 395.45l-9.12 9.13M504.62 395.45l9.12 9.13M641.52 349.82l9.12 9.12M650.64 349.82l-9.12 9.12M641.52 358.94l9.12 9.13M650.64 358.94l-9.12 9.13M103.04 422.83l9.12-9.12M112.16 422.83l-9.12-9.12M276.45 331.56l9.12 9.13M285.57 331.56l-9.12 9.13M267.32 340.69l9.13 9.13M276.45 340.69l-9.13 9.13M385.97 386.32l-9.13 9.13M376.84 386.32l9.13 9.13" stroke="#34D0A9" stroke-width="5.07"/><path d="M276.45 249.42l9.12 9.13M285.57 249.42l-9.12 9.13M276.45 240.3l9.12 9.12M285.57 240.3l-9.12 9.12M276.45 258.55l9.12 9.13M285.57 258.55l-9.12 9.13M303.83 267.68l9.12 9.12M312.95 267.68l-9.12 9.12M294.7 276.8l9.13 9.13M303.83 276.8l-9.13 9.13M331.21 249.42l9.12 9.13M340.33 249.42l-9.12 9.13M331.21 267.68l9.12 9.12M340.33 267.68l-9.12 9.12M340.33 249.42l9.13 9.13M349.46 249.42l-9.13 9.13M340.33 240.3l9.13 9.12M349.46 240.3l-9.13 9.12M340.33 231.17l9.13 9.13M349.46 231.17l-9.13 9.13M358.59 267.68l9.12 9.12M367.71 267.68l-9.12 9.12M349.46 258.55l9.13 9.13M358.59 258.55l-9.13 9.13M331.21 276.8l9.12 9.13M340.33 276.8l-9.12 9.13M385.97 258.55l9.12 9.13M395.09 258.55l-9.12 9.13M385.97 267.68l9.12 9.12M395.09 267.68l-9.12 9.12M385.97 231.17l9.12 9.13M395.09 231.17l-9.12 9.13M413.35 267.68l9.12 9.12M422.47 267.68l-9.12 9.12M413.35 231.17l9.12 9.13M422.47 231.17l-9.12 9.13M404.22 276.8l9.13 9.13M413.35 276.8l-9.13 9.13M176.05 258.55l9.13 9.13M185.18 258.55l-9.13 9.13M176.05 240.3l9.13 9.12M185.18 240.3l-9.13 9.12M176.05 267.68l9.13 9.12M185.18 267.68l-9.13 9.12M176.05 276.8l9.13 9.13M185.18 276.8l-9.13 9.13M166.93 231.17l9.12 9.13M176.05 231.17l-9.12 9.13M194.31 231.17l9.12 9.13M203.43 231.17l-9.12 9.13M449.86 249.42l9.12 9.13M458.98 249.42l-9.12 9.13M449.86 258.55l9.12 9.13M458.98 258.55l-9.12 9.13M458.98 258.55l9.13 9.13M468.11 258.55l-9.13 9.13M458.98 249.42l9.13 9.13M468.11 249.42l-9.13 9.13M458.98 240.3l9.13 9.12M468.11 240.3l-9.13 9.12M458.98 276.8l9.13 9.13M468.11 276.8l-9.13 9.13M458.98 231.17l9.13 9.13M468.11 231.17l-9.13 9.13M230.81 258.55l9.13 9.13M239.94 258.55l-9.13 9.13M230.81 240.3l9.13 9.12M239.94 240.3l-9.13 9.12M230.81 267.68l9.13 9.12M239.94 267.68l-9.13 9.12M230.81 276.8l9.13 9.13M239.94 276.8l-9.13 9.13M230.81 231.17l9.13 9.13M239.94 231.17l-9.13 9.13M239.94 231.17l9.13 9.13M249.07 231.17l-9.13 9.13M495.49 240.3l9.13 9.12M504.62 240.3l-9.13 9.12M504.62 258.55l9.12 9.13M513.74 258.55l-9.12 9.13M504.62 249.42l9.12 9.13M513.74 249.42l-9.12 9.13M513.74 267.68l9.13 9.12M522.87 267.68l-9.13 9.12M486.36 231.17l9.13 9.13M495.49 231.17l-9.13 9.13M486.36 258.55l9.13 9.13M495.49 258.55l-9.13 9.13M486.36 267.68l9.13 9.12M495.49 267.68l-9.13 9.12M522.87 240.3l9.13 9.12M532 240.3l-9.13 9.12M112.16 258.55l9.13 9.13M121.29 258.55l-9.13 9.13M112.16 249.42l9.13 9.13M121.29 249.42l-9.13 9.13M112.16 267.68l9.13 9.12M121.29 267.68l-9.13 9.12M112.16 276.8l9.13 9.13M121.29 276.8l-9.13 9.13M121.29 231.17l9.13 9.13M130.42 231.17l-9.13 9.13M130.42 258.55l9.13 9.13M139.55 258.55l-9.13 9.13M139.55 240.3l9.12 9.12M148.67 240.3l-9.12 9.12M139.55 276.8l9.12 9.13M148.67 276.8l-9.12 9.13M130.42 231.17l9.13 9.13M139.55 231.17l-9.13 9.13M650.64 267.68l9.13 9.12M659.77 267.68l-9.13 9.12M659.77 258.55l9.13 9.13M668.9 258.55l-9.13 9.13M659.77 249.42l9.13 9.13M668.9 249.42l-9.13 9.13M659.77 240.3l9.13 9.12M668.9 240.3l-9.13 9.12M650.64 276.8l9.13 9.13M659.77 276.8l-9.13 9.13M659.77 231.17l9.13 9.13M668.9 231.17l-9.13 9.13M687.15 249.42l9.13 9.13M696.28 249.42l-9.13 9.13M678.02 258.55l9.13 9.13M687.15 258.55l-9.13 9.13M678.02 231.17l9.13 9.13M687.15 231.17l-9.13 9.13M577.63 267.68l9.13 9.12M586.76 267.68l-9.13 9.12M586.76 276.8l9.12 9.13M595.88 276.8l-9.12 9.13M577.63 258.55l9.13 9.13M586.76 258.55l-9.13 9.13M559.38 258.55l9.12 9.13M568.5 258.55l-9.12 9.13M559.38 249.42l9.12 9.13M568.5 249.42l-9.12 9.13M568.5 231.17l9.13 9.13M577.63 231.17l-9.13 9.13M559.38 267.68l9.12 9.12M568.5 267.68l-9.12 9.12" stroke="#000" stroke-width="5.07"/><path d="M39.15 249.42l9.13 9.13M48.28 249.42l-9.13 9.13M48.28 258.55l9.12 9.13M57.4 258.55l-9.12 9.13M66.53 249.42l-9.13 9.13M57.4 249.42l9.13 9.13M741.91 249.42l9.13 9.13M751.04 249.42l-9.13 9.13M760.17 267.68l9.12 9.12M769.29 267.68l-9.12 9.12M57.4 258.55l-9.12 9.13M751.04 258.55l9.13 9.13M760.17 258.55l-9.13 9.13" stroke="#FE36FB" stroke-width="5.07"/><path d="M759.21 260.46l-7.21 7.22" stroke="#FE36FB" stroke-width="4.01"/><path d="M751.04 267.68l-9.13 9.12M741.91 267.68l9.13 9.12" stroke="#FE36FB" stroke-width="5.07"/><path d="M11.77 149.03l9.13 9.13M20.9 149.03l-9.13 9.13M20.9 158.16l9.12 9.12M30.02 158.16l-9.12 9.12M20.9 176.41l9.12 9.13M30.02 176.41l-9.12 9.13M30.02 185.54l9.13 9.12M39.15 185.54l-9.13 9.12M30.02 194.66l9.13 9.13M39.15 194.66l-9.13 9.13M66.53 158.16l9.13 9.12M75.66 158.16l-9.13 9.12M93.91 185.54l9.13 9.12M103.04 185.54l-9.13 9.12M75.66 176.41l9.12 9.13M84.78 176.41l-9.12 9.13M75.66 167.28l9.12 9.13M84.78 167.28l-9.12 9.13M75.66 185.54l9.12 9.12M84.78 185.54l-9.12 9.12M696.28 167.28l9.12 9.13M705.4 167.28l-9.12 9.13M723.66 167.28l9.13 9.13M732.79 167.28l-9.13 9.13M696.28 158.16l9.12 9.12M705.4 158.16l-9.12 9.12M723.66 176.41l9.13 9.13M732.79 176.41l-9.13 9.13M705.4 185.54l9.13 9.12M714.53 185.54l-9.13 9.12M714.53 194.66l9.13 9.13M723.66 194.66l-9.13 9.13M121.29 176.41l9.13 9.13M130.42 176.41l-9.13 9.13M130.42 167.28l9.13 9.13M139.55 167.28l-9.13 9.13M130.42 158.16l9.13 9.12M139.55 158.16l-9.13 9.12M148.67 149.03l9.13 9.13M157.8 149.03l-9.13 9.13M130.42 185.54l9.13 9.12M139.55 185.54l-9.13 9.12M176.05 176.41l9.13 9.13M185.18 176.41l-9.13 9.13M185.18 176.41l9.13 9.13M194.31 176.41l-9.13 9.13M185.18 158.16l9.13 9.12M194.31 158.16l-9.13 9.12M203.43 167.28l9.13 9.13M212.56 167.28l-9.13 9.13M194.31 149.03l9.12 9.13M203.43 149.03l-9.12 9.13M203.43 194.66l9.13 9.13M212.56 194.66l-9.13 9.13M185.18 194.66l9.13 9.13M194.31 194.66l-9.13 9.13M139.55 194.66l9.12 9.13M148.67 194.66l-9.12 9.13M258.19 185.54l9.13 9.12M267.32 185.54l-9.13 9.12M285.57 185.54l9.13 9.12M294.7 185.54l-9.13 9.12M267.32 167.28l9.13 9.13M276.45 167.28l-9.13 9.13M267.32 149.03l9.13 9.13M276.45 149.03l-9.13 9.13M267.32 185.54l9.13 9.12M276.45 185.54l-9.13 9.12M312.95 185.54l9.13 9.12M322.08 185.54l-9.13 9.12M322.08 176.41l9.13 9.13M331.21 176.41l-9.13 9.13M322.08 167.28l9.13 9.13M331.21 167.28l-9.13 9.13M322.08 194.66l9.13 9.13M331.21 194.66l-9.13 9.13M349.46 167.28l9.13 9.13M358.59 167.28l-9.13 9.13M559.38 176.41l9.12 9.13M568.5 176.41l-9.12 9.13M568.5 176.41l9.13 9.13M577.63 176.41l-9.13 9.13M568.5 167.28l9.13 9.13M577.63 167.28l-9.13 9.13M568.5 194.66l9.13 9.13M577.63 194.66l-9.13 9.13M586.76 194.66l9.12 9.13M595.88 194.66l-9.12 9.13M559.38 149.03l9.12 9.13M568.5 149.03l-9.12 9.13M751.04 158.16l9.13 9.12M760.17 158.16l-9.13 9.12M751.04 176.41l9.13 9.13M760.17 176.41l-9.13 9.13M760.17 185.54l9.12 9.12M769.29 185.54l-9.12 9.12M760.17 194.66l9.12 9.13M769.29 194.66l-9.12 9.13M778.42 149.03l9.12 9.13M787.54 149.03l-9.12 9.13M778.42 167.28l9.12 9.13M787.54 167.28l-9.12 9.13M349.46 194.66l9.13 9.13M358.59 194.66l-9.13 9.13M376.84 176.41l9.13 9.13M385.97 176.41l-9.13 9.13M376.84 185.54l9.13 9.12M385.97 185.54l-9.13 9.12M385.97 167.28l9.12 9.13M395.09 167.28l-9.12 9.13M440.73 158.16l9.13 9.12M449.86 158.16l-9.13 9.12M449.86 167.28l9.12 9.13M458.98 167.28l-9.12 9.13M458.98 167.28l9.13 9.13M468.11 167.28l-9.13 9.13M468.11 185.54l9.13 9.12M477.24 185.54l-9.13 9.12M440.73 185.54l9.13 9.12M449.86 185.54l-9.13 9.12M477.24 185.54l9.12 9.12M486.36 185.54l-9.12 9.12M385.97 194.66l9.12 9.13M395.09 194.66l-9.12 9.13M413.35 176.41l9.12 9.13M422.47 176.41l-9.12 9.13M413.35 194.66l9.12 9.13M422.47 194.66l-9.12 9.13M504.62 158.16l9.12 9.12M513.74 158.16l-9.12 9.12M513.74 167.28l9.13 9.13M522.87 167.28l-9.13 9.13M513.74 158.16l9.13 9.12M522.87 158.16l-9.13 9.12M513.74 185.54l9.13 9.12M522.87 185.54l-9.13 9.12M650.64 185.54l-9.12-9.13M641.52 185.54l9.12-9.13M623.26 176.41l-9.12-9.13M614.14 176.41l9.12-9.13M632.39 203.79l-9.13-9.13M623.26 203.79l9.13-9.13M641.52 203.79l-9.13-9.13M632.39 203.79l9.13-9.13M650.64 158.16l-9.12-9.13M641.52 158.16l9.12-9.13M632.39 158.16l-9.13-9.13M623.26 158.16l9.13-9.13M760.17 167.28l9.12 9.13M769.29 167.28l-9.12 9.13M760.17 149.03l9.12 9.13M769.29 149.03l-9.12 9.13" stroke="#34D0A9" stroke-width="5.07"/></g></svg>