<svg width="1582" height="1308" viewBox="0 0 791 654" xmlns="http://www.w3.org/2000/svg"><title>rip-stitches</title><g stroke-width="5.07" fill="none" fill-rule="evenodd" stroke-linecap="round" stroke-linejoin="round"><path d="M385.97 3l9.12 9.13M395.09 3l-9.12 9.13M385.97 12.13l9.12 9.12M395.09 12.13l-9.12 9.12M404.22 21.25l9.13 9.13M413.35 21.25l-9.13 9.13M404.22 12.13l9.13 9.12M413.35 12.13l-9.13 9.12M395.09 85.14l9.13 9.13M404.22 85.14l-9.13 9.13M413.35 85.14l9.12 9.13M422.47 85.14l-9.12 9.13M413.35 94.27l9.12 9.12M422.47 94.27l-9.12 9.12M568.5 57.76l9.13 9.13M577.63 57.76l-9.13 9.13M586.76 48.63l9.12 9.13M595.88 48.63l-9.12 9.13M586.76 30.38l9.12 9.13M595.88 30.38l-9.12 9.13M595.88 39.51l9.13 9.12M605.01 39.51l-9.13 9.12M605.01 39.51l9.13 9.12M614.14 39.51l-9.13 9.12" stroke="#000"/><path d="M2.64 149.03l9.13 9.13M11.77 149.03l-9.13 9.13M11.77 158.16l9.13 9.12M20.9 158.16l-9.13 9.12M30.02 167.28l9.13 9.13M39.15 167.28l-9.13 9.13M39.15 158.16l9.13 9.12M48.28 158.16l-9.13 9.12M30.02 176.41l9.13 9.13M39.15 176.41l-9.13 9.13M75.66 158.16l9.12 9.12M84.78 158.16l-9.12 9.12M75.66 149.03l9.12 9.13M84.78 149.03l-9.12 9.13M84.78 149.03l9.13 9.13M93.91 149.03l-9.13 9.13M696.28 185.54l9.12 9.12M705.4 185.54l-9.12 9.12M705.4 167.28l9.13 9.13M714.53 167.28l-9.13 9.13M705.4 158.16l9.13 9.12M714.53 158.16l-9.13 9.12M148.67 167.28l9.13 9.13M157.8 167.28l-9.13 9.13M148.67 176.41l9.13 9.13M157.8 176.41l-9.13 9.13M148.67 185.54l9.13 9.12M157.8 185.54l-9.13 9.12M130.42 149.03l9.13 9.13M139.55 149.03l-9.13 9.13M176.05 167.28l9.13 9.13M185.18 167.28l-9.13 9.13M194.31 176.41l9.12 9.13M203.43 176.41l-9.12 9.13M258.19 167.28l9.13 9.13M267.32 167.28l-9.13 9.13M258.19 158.16l9.13 9.12M267.32 158.16l-9.13 9.12M258.19 176.41l9.13 9.13M267.32 176.41l-9.13 9.13M267.32 176.41l9.13 9.13M276.45 176.41l-9.13 9.13M312.95 167.28l9.13 9.13M322.08 167.28l-9.13 9.13M312.95 158.16l9.13 9.12M322.08 158.16l-9.13 9.12M340.33 167.28l9.13 9.13M349.46 167.28l-9.13 9.13M559.38 167.28l9.12 9.13M568.5 167.28l-9.12 9.13M559.38 158.16l9.12 9.12M568.5 158.16l-9.12 9.12M559.38 185.54l9.12 9.12M568.5 185.54l-9.12 9.12M568.5 149.03l9.13 9.13M577.63 149.03l-9.13 9.13M577.63 167.28l9.13 9.13M586.76 167.28l-9.13 9.13M751.04 185.54l9.13 9.12M760.17 185.54l-9.13 9.12M751.04 149.03l9.13 9.13M760.17 149.03l-9.13 9.13M769.29 149.03l9.13 9.13M778.42 149.03l-9.13 9.13M349.46 158.16l9.13 9.12M358.59 158.16l-9.13 9.12M349.46 185.54l9.13 9.12M358.59 185.54l-9.13 9.12M376.84 167.28l9.13 9.13M385.97 167.28l-9.13 9.13M468.11 176.41l9.13 9.13M477.24 176.41l-9.13 9.13M440.73 176.41l9.13 9.13M449.86 176.41l-9.13 9.13M477.24 167.28l9.12 9.13M486.36 167.28l-9.12 9.13M477.24 158.16l9.12 9.12M486.36 158.16l-9.12 9.12M477.24 176.41l9.12 9.13M486.36 176.41l-9.12 9.13M395.09 149.03l9.13 9.13M404.22 149.03l-9.13 9.13M413.35 158.16l9.12 9.12M422.47 158.16l-9.12 9.12M404.22 149.03l9.13 9.13M413.35 149.03l-9.13 9.13M267.32 194.66l9.13 9.13M276.45 194.66l-9.13 9.13M276.45 194.66l9.12 9.13M285.57 194.66l-9.12 9.13M504.62 167.28l9.12 9.13M513.74 167.28l-9.12 9.13M504.62 176.41l9.12 9.13M513.74 176.41l-9.12 9.13M513.74 176.41l9.13 9.13M522.87 176.41l-9.13 9.13M522.87 149.03l9.13 9.13M532 149.03l-9.13 9.13M513.74 194.66l9.13 9.13M522.87 194.66l-9.13 9.13M522.87 194.66l9.13 9.13M532 194.66l-9.13 9.13M641.52 176.41l-9.13-9.13M632.39 176.41l9.13-9.13M632.39 176.41l-9.13-9.13M623.26 176.41l9.13-9.13M641.52 185.54l-9.13-9.13M632.39 185.54l9.13-9.13" stroke="#34D0A9"/><path d="M212.56 30.38l9.13 9.13M221.69 30.38l-9.13 9.13M212.56 39.51l9.13 9.12M221.69 39.51l-9.13 9.12M221.69 39.51l9.12 9.12M230.81 39.51l-9.12 9.12M212.56 48.63l9.13 9.13M221.69 48.63l-9.13 9.13M221.69 48.63l9.12 9.13M230.81 48.63l-9.12 9.13M285.57 85.14l9.13 9.13M294.7 85.14l-9.13 9.13M285.57 76.01l9.13 9.13M294.7 76.01l-9.13 9.13M294.7 94.27l9.13 9.12M303.83 94.27l-9.13 9.12M294.7 76.01l9.13 9.13M303.83 76.01l-9.13 9.13M258.19 3l9.13 9.13M267.32 3l-9.13 9.13M258.19 3l-9.12 9.13M249.07 3l9.12 9.13M249.07 3l-9.13 9.13M239.94 3l9.13 9.13M249.07 12.13l-9.13 9.12M239.94 12.13l9.13 9.12" stroke="#000"/><path d="M458.98 48.63l9.13 9.13M468.11 48.63l-9.13 9.13M468.11 57.76l9.13 9.13M477.24 57.76l-9.13 9.13M477.24 66.89l9.12 9.12M486.36 66.89l-9.12 9.12M486.36 48.63l-9.12 9.13M477.24 48.63l9.12 9.13M477.24 57.76l-9.13 9.13M468.11 66.89l-9.13 9.12M458.98 66.89l9.13 9.12M632.39 48.63l9.13 9.13M641.52 48.63l-9.13 9.13M641.52 57.76l9.12 9.13M650.64 57.76l-9.12 9.13M650.64 57.76l-9.12 9.13M687.15 48.63l9.13 9.13M696.28 48.63l-9.13 9.13" stroke="#FE36FB"/><path d="M322.08 149.03l9.13 9.13M331.21 149.03l-9.13 9.13M385.97 149.03l9.12 9.13M395.09 149.03l-9.12 9.13M395.09 176.41l9.13 9.13M404.22 176.41l-9.13 9.13" stroke="#34D0A9"/><path d="M230.81 66.89l9.13 9.12M239.94 66.89l-9.13 9.12M221.69 76.01l9.12 9.13M230.81 76.01l-9.12 9.13M230.81 76.01l9.13 9.13M239.94 76.01l-9.13 9.13M230.81 85.14l9.13 9.13M239.94 85.14l-9.13 9.13M522.87 12.13l9.13 9.12M532 12.13l-9.13 9.12M532 12.13l9.12 9.12M541.12 12.13L532 21.25M513.74 57.76l9.13 9.13M522.87 57.76l-9.13 9.13" stroke="#000"/><path d="M349.46 57.76l-9.13 9.13M340.33 57.76l9.13 9.13M349.46 57.76l-9.13 9.13" stroke="#FE36FB"/><path d="M577.63 149.03l9.13 9.13M586.76 149.03l-9.13 9.13" stroke="#34D0A9"/><path d="M303.83 240.3l9.12 9.12M312.95 240.3l-9.12 9.12M285.57 249.42l9.13 9.13M294.7 249.42l-9.13 9.13M285.57 240.3l9.13 9.12M294.7 240.3l-9.13 9.12M285.57 267.68l9.13 9.12M294.7 267.68l-9.13 9.12M340.33 258.55l9.13 9.13M349.46 258.55l-9.13 9.13M340.33 267.68l9.13 9.12M349.46 267.68l-9.13 9.12M395.09 249.42l9.13 9.13M404.22 249.42l-9.13 9.13M395.09 267.68l9.13 9.12M404.22 267.68l-9.13 9.12M166.93 267.68l9.12 9.12M176.05 267.68l-9.12 9.12M194.31 249.42l9.12 9.13M203.43 249.42l-9.12 9.13M185.18 249.42l9.13 9.13M194.31 249.42l-9.13 9.13M221.69 258.55l9.12 9.13M230.81 258.55l-9.12 9.13M221.69 267.68l9.12 9.12M230.81 267.68l-9.12 9.12M249.07 249.42l9.12 9.13M258.19 249.42l-9.12 9.13M103.04 249.42l9.12 9.13M112.16 249.42l-9.12 9.13M103.04 240.3l9.12 9.12M112.16 240.3l-9.12 9.12M103.04 258.55l9.12 9.13M112.16 258.55l-9.12 9.13M139.55 258.55l9.12 9.13M148.67 258.55l-9.12 9.13M139.55 249.42l9.12 9.13M148.67 249.42l-9.12 9.13M395.09 240.3l9.13 9.12M404.22 240.3l-9.13 9.12M413.35 240.3l9.12 9.12M422.47 240.3l-9.12 9.12M395.09 231.17l9.13 9.13M404.22 231.17l-9.13 9.13M404.22 231.17l9.13 9.13M413.35 231.17l-9.13 9.13M513.74 258.55l9.13 9.13M522.87 258.55l-9.13 9.13M522.87 249.42l9.13 9.13M532 249.42l-9.13 9.13M522.87 231.17l9.13 9.13M532 231.17l-9.13 9.13M522.87 258.55l9.13 9.13M532 258.55l-9.13 9.13M650.64 249.42l9.13 9.13M659.77 249.42l-9.13 9.13M650.64 240.3l9.13 9.12M659.77 240.3l-9.13 9.12M650.64 258.55l9.13 9.13M659.77 258.55l-9.13 9.13M550.25 249.42l9.13 9.13M559.38 249.42l-9.13 9.13M550.25 258.55l9.13 9.13M559.38 258.55l-9.13 9.13M413.35 258.55l9.12 9.13M422.47 258.55l-9.12 9.13M422.47 240.3l9.13 9.12M431.6 240.3l-9.13 9.12M495.49 249.42l9.13 9.13M504.62 249.42l-9.13 9.13M559.38 231.17l9.12 9.13M568.5 231.17l-9.12 9.13M166.93 240.3l9.12 9.12M176.05 240.3l-9.12 9.12M221.69 240.3l9.12 9.12M230.81 240.3l-9.12 9.12M221.69 231.17l9.12 9.13M230.81 231.17l-9.12 9.13M239.94 249.42l9.13 9.13M249.07 249.42l-9.13 9.13M267.32 541.48l9.13 9.13M276.45 541.48l-9.13 9.13M258.19 541.48l9.13 9.13M267.32 541.48l-9.13 9.13M249.07 541.48l9.12 9.13M258.19 541.48l-9.12 9.13M276.45 541.48l9.12 9.13M285.57 541.48l-9.12 9.13M285.57 541.48l9.13 9.13M294.7 541.48l-9.13 9.13M312.95 596.24l-9.12 9.13M303.83 596.24l9.12 9.13M303.83 596.24l-9.13 9.13M294.7 596.24l9.13 9.13M294.7 596.24l-9.13 9.13M285.57 596.24l9.13 9.13M532 541.48l-9.13 9.13M522.87 541.48l9.13 9.13M541.12 541.48l-9.12 9.13M532 541.48l9.12 9.13M550.25 541.48l-9.13 9.13M541.12 541.48l9.13 9.13M522.87 541.48l-9.13 9.13M513.74 541.48l9.13 9.13M513.74 541.48l-9.12 9.13M504.62 541.48l9.12 9.13M577.63 523.23l9.13 9.12M586.76 523.23l-9.13 9.12M577.63 541.48l9.13 9.13M586.76 541.48l-9.13 9.13" stroke="#000"/><path d="M541.12 377.2l9.13 9.12M550.25 377.2l-9.13 9.12M550.25 377.2l9.13 9.12M559.38 377.2l-9.13 9.12M541.12 386.32l9.13 9.13M550.25 386.32l-9.13 9.13M541.12 395.45l9.13 9.13M550.25 395.45l-9.13 9.13M586.76 431.96l-9.13-9.13M577.63 431.96l9.13-9.13M577.63 431.96l-9.13-9.13M568.5 431.96l9.13-9.13M577.63 422.83l-9.13-9.12M568.5 422.83l9.13-9.12M458.98 331.56l-9.12 9.13M449.86 331.56l9.12 9.13M458.98 340.69l-9.12 9.13M449.86 340.69l9.12 9.13M468.11 349.82l-9.13 9.12M458.98 349.82l9.13 9.12M477.24 349.82l-9.13 9.12M468.11 349.82l9.13 9.12M477.24 358.94l-9.13 9.13M468.11 358.94l9.13 9.13M468.11 358.94l-9.13 9.13M458.98 358.94l9.13 9.13M486.36 349.82l-9.12 9.12M477.24 349.82l9.12 9.12M705.4 331.56l-9.12 9.13M696.28 331.56l9.12-9.12M705.4 331.56l-9.12-9.12M705.4 340.69l9.13-9.13M714.53 340.69l-9.13-9.13M641.52 395.45l9.12 9.13M650.64 395.45l-9.12 9.13M623.26 404.58l9.13 9.12M632.39 404.58l-9.13 9.12M632.39 404.58l9.13 9.12M641.52 404.58l-9.13 9.12M641.52 404.58l9.12 9.12M650.64 404.58l-9.12 9.12M614.14 422.83l9.12-9.12M623.26 422.83l-9.12-9.12M623.26 422.83l9.13-9.12M632.39 422.83l-9.13-9.12M659.77 422.83l-9.13-9.12M650.64 422.83l9.13-9.12M632.39 413.7l9.13 9.13M641.52 413.7l-9.13 9.13M139.55 368.07l9.12 9.13M148.67 368.07l-9.12 9.13M157.8 368.07l9.13 9.13M166.93 368.07l-9.13 9.13M121.29 358.94l9.13 9.13M130.42 358.94l-9.13 9.13M130.42 368.07l9.13 9.13M139.55 368.07l-9.13 9.13M121.29 368.07l9.13 9.13M130.42 368.07l-9.13 9.13M112.16 377.2l9.13 9.12M121.29 377.2l-9.13 9.12M121.29 377.2l9.13 9.12M130.42 377.2l-9.13 9.12M148.67 313.31l-9.12 9.13M139.55 313.31l9.12 9.13M139.55 313.31l-9.13 9.13M130.42 313.31l9.13 9.13M139.55 322.44l-9.13 9.12M130.42 322.44l9.13 9.12M148.67 431.96l-9.12-9.13M139.55 431.96l9.12-9.13M203.43 322.44l9.13 9.12M212.56 322.44l-9.13 9.12M212.56 331.56l9.13 9.13M221.69 331.56l-9.13 9.13M239.94 313.31l-9.13 9.13M230.81 313.31l9.13 9.13M230.81 313.31l-9.12 9.13M221.69 313.31l9.12 9.13M221.69 313.31l-9.13 9.13M212.56 313.31l9.13 9.13M230.81 322.44l-9.12 9.12M221.69 322.44l9.12 9.12M221.69 322.44l-9.13 9.12M212.56 322.44l9.13 9.12M185.18 431.96l9.13-9.13M194.31 431.96l-9.13-9.13M194.31 431.96l9.12-9.13M203.43 431.96l-9.12-9.13M221.69 431.96l-9.13-9.13M212.56 431.96l9.13-9.13M267.32 377.2l9.13 9.12M276.45 377.2l-9.13 9.12M267.32 386.32l9.13 9.13M276.45 386.32l-9.13 9.13M276.45 386.32l9.12 9.13M285.57 386.32l-9.12 9.13M285.57 386.32l9.13 9.13M294.7 386.32l-9.13 9.13M385.97 331.56l-9.13 9.13M376.84 331.56l9.13 9.13M385.97 340.69l-9.13 9.13M376.84 340.69l9.13 9.13M385.97 349.82l-9.13 9.12M376.84 349.82l9.13 9.12M367.71 368.07l-9.12 9.13M358.59 368.07l9.12 9.13M367.71 386.32l-9.12 9.13M358.59 386.32l9.12 9.13M367.71 395.45l-9.12 9.13M358.59 395.45l9.12 9.13M376.84 404.58l-9.13 9.12M367.71 404.58l9.13 9.12M367.71 404.58l-9.12 9.12M358.59 404.58l9.12 9.12M376.84 422.83l-9.13-9.12M367.71 422.83l9.13-9.12M349.46 431.96l9.13-9.13M358.59 431.96l-9.13-9.13M349.46 422.83l9.13-9.12M358.59 422.83l-9.13-9.12M349.46 413.7l9.13-9.12M358.59 413.7l-9.13-9.12M358.59 422.83l9.12-9.12M367.71 422.83l-9.12-9.12" stroke="#34D0A9"/><path d="M404.22 641.87l-9.13 9.13M395.09 641.87l9.13 9.13M413.35 641.87l-9.13 9.13M404.22 641.87l9.13 9.13M422.47 641.87l-9.12 9.13M413.35 641.87l9.12 9.13M431.6 641.87l-9.13 9.13M422.47 641.87l9.13 9.13M440.73 641.87L431.6 651M431.6 641.87l9.13 9.13M431.6 495.84l-9.13 9.13M422.47 495.84l9.13 9.13M422.47 495.84l-9.12 9.13M413.35 495.84l9.12 9.13M413.35 495.84l-9.13 9.13M404.22 495.84l9.13 9.13M376.84 495.84l-9.13 9.13M367.71 495.84l9.13 9.13M367.71 495.84l-9.12 9.13M358.59 495.84l9.12 9.13M358.59 495.84l-9.13 9.13M349.46 495.84l9.13 9.13M349.46 486.72l9.13 9.12M358.59 486.72l-9.13 9.12M404.22 459.34l-9.13 9.12M395.09 459.34l9.13 9.12M395.09 459.34l-9.12 9.12M385.97 459.34l9.12 9.12M358.59 514.1l9.12 9.13M367.71 514.1l-9.12 9.13M367.71 514.1l9.13 9.13M376.84 514.1l-9.13 9.13M39.15 377.2l-9.13 9.12M39.15 386.32l-9.13-9.12M48.28 368.07l-9.13 9.13M48.28 377.2l-9.13-9.13M66.53 459.34l-9.13 9.12M66.53 468.46l-9.13-9.12M75.66 468.46l-9.13 9.13M75.66 477.59l-9.13-9.13M84.78 468.46l-9.12 9.13M84.78 477.59l-9.12-9.13M75.66 541.48l-9.13 9.13M75.66 550.61l-9.13-9.13M66.53 541.48l-9.13 9.13M66.53 550.61l-9.13-9.13M39.15 486.72l-9.13 9.12M39.15 495.84l-9.13-9.12M48.28 486.72l-9.13 9.12M48.28 495.84l-9.13-9.12M769.57 395.45l9.13 9.13M769.57 404.58l9.13-9.13M769.57 386.32l9.13 9.13M769.57 395.45l9.13-9.13M714.53 541.48l9.13 9.13M714.53 550.61l9.13-9.13M723.66 541.48l9.13 9.13M723.66 550.61l9.13-9.13M732.79 541.48l9.12 9.13M732.79 550.61l9.12-9.13M741.91 541.48l9.13 9.13M741.91 550.61l9.13-9.13M760.17 486.72l9.12 9.12M760.17 495.84l9.12-9.12M751.04 486.72l9.13 9.12M751.04 495.84l9.13-9.12M486.36 596.24l9.13 9.13M495.49 596.24l-9.13 9.13M495.49 596.24l9.13 9.13M504.62 596.24l-9.13 9.13M504.62 596.24l9.12 9.13M513.74 596.24l-9.12 9.13M577.63 605.37l9.13 9.12M586.76 605.37l-9.13 9.12" stroke="#000"/><path d="M541.12 322.44l9.13 9.12M550.25 322.44l-9.13 9.12M541.12 340.69l9.13 9.13M550.25 340.69l-9.13 9.13M504.62 404.58l-9.13 9.12M495.49 404.58l9.13 9.12M504.62 422.83l-9.13 9.13M495.49 422.83l9.13 9.13M623.26 322.44l9.13 9.12M632.39 322.44l-9.13 9.12M623.26 358.94l9.13 9.13M632.39 358.94l-9.13 9.13M641.52 322.44l-9.13 9.12" stroke="#34D0A9"/><path d="M358.59 641.87l-9.13 9.13M349.46 641.87l9.13 9.13M385.97 641.87l-9.13 9.13M376.84 641.87l9.13 9.13M468.11 459.34l-9.13 9.12M458.98 459.34l9.13 9.12M486.36 605.37l-9.12 9.12M477.24 605.37l9.12 9.12M486.36 568.86l-9.12 9.13M477.24 568.86l9.12 9.13M486.36 541.48l-9.12 9.13M477.24 541.48l9.12 9.13M312.95 532.35l-9.12 9.13M303.83 532.35l9.12 9.13M376.84 468.46l-9.13 9.13M367.71 468.46l9.13 9.13M48.28 459.34l-9.13 9.12M48.28 468.46l-9.13-9.12M103.04 477.59l-9.13 9.13M103.04 486.72l-9.13-9.13M751.04 459.34l9.13 9.12M751.04 468.46l9.13-9.12M714.53 468.46l9.13 9.13M714.53 477.59l9.13-9.13M541.12 614.49l9.13 9.13M550.25 614.49l-9.13 9.13M568.5 614.49l9.13 9.13M577.63 614.49l-9.13 9.13M312.95 641.87l-9.12 9.13M303.83 641.87l9.12 9.13M340.33 641.87l-9.12 9.13M331.21 641.87l9.12 9.13M395.09 641.87l-9.12 9.13M385.97 641.87l9.12 9.13M732.79 368.07l9.12 9.13M732.79 377.2l9.12-9.13M395.09 39.51l9.13 9.12M404.22 39.51l-9.13 9.12M577.63 12.13l9.13 9.12M586.76 12.13l-9.13 9.12M249.07 57.76l9.12 9.13M258.19 57.76l-9.12 9.13" stroke="#000"/><path d="M495.49 386.32l-9.13 9.13M486.36 386.32l9.13 9.13" stroke="#34D0A9"/><path d="M486.36 587.11l-9.12 9.13M477.24 587.11l9.12 9.13" stroke="#000"/><path d="M385.97 358.94l-9.13 9.13M376.84 358.94l9.13 9.13M340.33 313.31l9.13 9.13M349.46 313.31l-9.13 9.13" stroke="#34D0A9"/><path d="M595.88 12.13l9.13 9.12M605.01 12.13l-9.13 9.12M267.32 48.63l9.13 9.13M276.45 48.63l-9.13 9.13M285.57 30.38l9.13 9.13M294.7 30.38l-9.13 9.13M294.7 30.38l9.13 9.13M303.83 30.38l-9.13 9.13M413.35 30.38l9.12 9.13M422.47 30.38l-9.12 9.13M413.35 48.63l9.12 9.13M422.47 48.63l-9.12 9.13M532 21.25l9.12 9.13M541.12 21.25L532 30.38M541.12 57.76l9.13 9.13M550.25 57.76l-9.13 9.13M550.25 12.13l-9.13 9.12M541.12 12.13l9.13 9.12M212.56 57.76l9.13 9.13M221.69 57.76l-9.13 9.13M276.45 85.14l9.12 9.13M285.57 85.14l-9.12 9.13M294.7 112.52l9.13 9.13M303.83 112.52l-9.13 9.13M221.69 94.27l9.12 9.12M230.81 94.27l-9.12 9.12M194.31 121.65l9.12-9.13M203.43 121.65l-9.12-9.13M230.81 30.38l9.13 9.13M239.94 30.38l-9.13 9.13M276.45 3l9.12 9.13M285.57 3l-9.12 9.13" stroke="#000"/><path d="M422.47 313.31l9.13 9.13M431.6 313.31l-9.13 9.13M431.6 322.44l9.13 9.12M440.73 322.44l-9.13 9.12" stroke="#34D0A9"/><path d="M449.86 267.68l9.12 9.12M458.98 267.68l-9.12 9.12" stroke="#000"/><path d="M532 349.82l-9.13 9.12M522.87 349.82l9.13 9.12" stroke="#34D0A9"/></g></svg>