<svg width="1582" height="1308" viewBox="0 0 791 654" xmlns="http://www.w3.org/2000/svg"><title>rip-stitches</title><g stroke-width="5.07" fill="none" fill-rule="evenodd" stroke-linecap="round" stroke-linejoin="round"><path d="M212.56 523.23l9.13 9.12M221.69 523.23l-9.13 9.12M212.56 541.48l9.13 9.13M221.69 541.48l-9.13 9.13M376.84 121.65l9.13-9.13M385.97 121.65l-9.13-9.13M440.73 121.65l-9.13-9.13M431.6 121.65l9.13-9.13" stroke="#000"/><path d="M541.12 313.31l9.13 9.13M550.25 313.31l-9.13 9.13M541.12 349.82l9.13 9.12M550.25 349.82l-9.13 9.12M586.76 313.31l-9.13 9.13M577.63 313.31l9.13 9.13M541.12 431.96l9.13-9.13M550.25 431.96l-9.13-9.13M568.5 422.83l-9.12-9.12M559.38 422.83l9.12-9.12M532 340.69l-9.13 9.13M522.87 340.69l9.13 9.13M678.02 377.2l9.13 9.12M687.15 377.2l-9.13 9.12M705.4 340.69l9.13 9.13M678.02 322.44l9.13-9.13M687.15 322.44l-9.13-9.13M605.01 313.31l9.13 9.13M614.14 313.31l-9.13 9.13M623.26 313.31l9.13 9.13M632.39 313.31l-9.13 9.13M623.26 331.56l9.13 9.13M632.39 331.56l-9.13 9.13M632.39 349.82l9.13 9.12M641.52 349.82l-9.13 9.12M614.14 368.07l9.12 9.13M623.26 368.07l-9.12 9.13M605.01 431.96l9.13-9.13M614.14 431.96l-9.13-9.13M623.26 431.96l9.13-9.13M632.39 431.96l-9.13-9.13M93.91 322.44l9.13 9.12M103.04 322.44l-9.13 9.12M139.55 431.96l-9.13-9.13M130.42 431.96l9.13-9.13M176.05 313.31l9.13 9.13M185.18 313.31l-9.13 9.13M194.31 313.31l9.12 9.13M203.43 313.31l-9.12 9.13M194.31 331.56l9.12 9.13M203.43 331.56l-9.12 9.13M203.43 413.7l9.13 9.13M212.56 413.7l-9.13 9.13M230.81 422.83l-9.12-9.12M221.69 422.83l9.12-9.12M267.32 331.56l9.13 9.13M276.45 331.56l-9.13 9.13M258.19 368.07l9.13 9.13M267.32 368.07l-9.13 9.13M267.32 404.58l9.13 9.12M276.45 404.58l-9.13 9.12M294.7 322.44l-9.13 9.12M285.57 322.44l9.13 9.12M322.08 431.96l9.13-9.13M331.21 431.96l-9.13-9.13M331.21 313.31l9.12 9.13M340.33 313.31l-9.12 9.13M312.95 431.96l-9.12-9.13M303.83 431.96l9.12-9.13M376.84 331.56l-9.13 9.13M367.71 331.56l9.13 9.13M376.84 377.2l-9.13 9.12M367.71 377.2l9.13 9.12M385.97 395.45l-9.13 9.13M376.84 395.45l9.13 9.13M340.33 322.44l9.13 9.12M349.46 322.44l-9.13 9.12" stroke="#34D0A9"/><path d="M568.5 121.65l-9.12-9.13M559.38 121.65l9.12-9.13M550.25 121.65l-9.13-9.13M541.12 121.65l9.13-9.13" stroke="#000"/><path d="M696.28 176.41l9.12 9.13M705.4 176.41l-9.12 9.13M723.66 185.54l9.13 9.12M732.79 185.54l-9.13 9.12M121.29 185.54l9.13 9.12M130.42 185.54l-9.13 9.12M203.43 158.16l9.13 9.12M212.56 158.16l-9.13 9.12M203.43 185.54l9.13 9.12M212.56 185.54l-9.13 9.12M176.05 194.66l9.13 9.13M185.18 194.66l-9.13 9.13M130.42 194.66l9.13 9.13M139.55 194.66l-9.13 9.13M267.32 158.16l9.13 9.12M276.45 158.16l-9.13 9.12M285.57 158.16l9.13 9.12M294.7 158.16l-9.13 9.12M322.08 158.16l9.13 9.12M331.21 158.16l-9.13 9.12M568.5 158.16l9.13 9.12M577.63 158.16l-9.13 9.12M586.76 149.03l9.12 9.13M595.88 149.03l-9.12 9.13M586.76 167.28l9.12 9.13M595.88 167.28l-9.12 9.13M751.04 167.28l9.13 9.13M760.17 167.28l-9.13 9.13M769.29 167.28l9.13 9.13M778.42 167.28l-9.13 9.13M349.46 149.03l9.13 9.13M358.59 149.03l-9.13 9.13M376.84 158.16l9.13 9.12M385.97 158.16l-9.13 9.12M376.84 194.66l9.13 9.13M385.97 194.66l-9.13 9.13M440.73 149.03l9.13 9.13M449.86 149.03l-9.13 9.13M477.24 194.66l9.12 9.13M486.36 194.66l-9.12 9.13" stroke="#34D0A9"/><path d="M349.46 577.99l-9.13 9.12M340.33 577.99l9.13 9.12M376.84 641.87l-9.13 9.13M367.71 641.87l9.13 9.13M486.36 596.24l-9.12 9.13M477.24 596.24l9.12 9.13M385.97 459.34l-9.13 9.12M376.84 459.34l9.13 9.12M413.35 614.49l-9.13 9.13M404.22 614.49l9.13 9.13M395.09 605.37l-9.12 9.12M385.97 605.37l9.12 9.12M395.09 477.59l9.13 9.13M404.22 477.59l-9.13 9.13M449.86 514.1l9.12 9.13M458.98 514.1l-9.12 9.13M294.7 231.17l9.13 9.13M303.83 231.17l-9.13 9.13M166.93 276.8l9.12 9.13M176.05 276.8l-9.12 9.13M176.05 231.17l9.13 9.13M185.18 231.17l-9.13 9.13M449.86 231.17l9.12 9.13M458.98 231.17l-9.12 9.13M221.69 249.42l9.12 9.13M230.81 249.42l-9.12 9.13M221.69 276.8l9.12 9.13M230.81 276.8l-9.12 9.13M249.07 231.17l9.12 9.13M258.19 231.17l-9.12 9.13M486.36 240.3l9.13 9.12M495.49 240.3l-9.13 9.12M486.36 276.8l9.13 9.13M495.49 276.8l-9.13 9.13M522.87 267.68l9.13 9.12M532 267.68l-9.13 9.12M121.29 258.55l9.13 9.13M130.42 258.55l-9.13 9.13M139.55 267.68l9.12 9.12M148.67 267.68l-9.12 9.12M659.77 276.8l9.13 9.13M668.9 276.8l-9.13 9.13M550.25 267.68l9.13 9.12M559.38 267.68l-9.13 9.12M586.76 258.55l9.12 9.13M595.88 258.55l-9.12 9.13M559.38 240.3l9.12 9.12M568.5 240.3l-9.12 9.12" stroke="#000"/><path d="M504.62 185.54l9.12 9.12M513.74 185.54l-9.12 9.12M532 185.54l9.12 9.12M541.12 185.54l-9.12 9.12M532 158.16l9.12 9.12M541.12 158.16l-9.12 9.12M513.74 149.03l9.13 9.13M522.87 149.03l-9.13 9.13M650.64 194.66l-9.12-9.12M641.52 194.66l9.12-9.12M623.26 167.28l-9.12-9.12M614.14 167.28l9.12-9.12M623.26 203.79l-9.12-9.13M614.14 203.79l9.12-9.13M641.52 158.16l-9.13-9.13M632.39 158.16l9.13-9.13" stroke="#34D0A9"/><path d="M230.81 21.25l9.13 9.13M239.94 21.25l-9.13 9.13M203.43 57.76l9.13 9.13M212.56 57.76l-9.13 9.13M239.94 57.76l9.13 9.13M249.07 57.76l-9.13 9.13M258.19 57.76l9.13 9.13M267.32 57.76l-9.13 9.13M267.32 3l9.13 9.13M276.45 3l-9.13 9.13M303.83 112.52l9.12 9.13M312.95 112.52l-9.12 9.13M239.94 3l-9.13 9.13M230.81 3l9.13 9.13M212.56 121.65l9.13-9.13M221.69 121.65l-9.13-9.13M239.94 121.65l-9.13-9.13M230.81 121.65l9.13-9.13M66.53 368.07l-9.13 9.13M66.53 377.2l-9.13-9.13M20.9 431.96l-9.13 9.12M20.9 441.08l-9.13-9.12M30.02 450.21l-9.12 9.13M30.02 459.34l-9.12-9.13M93.91 477.59l-9.13 9.13M93.91 486.72l-9.13-9.13M760.17 377.2l9.12 9.12M760.17 386.32l9.12-9.12M741.91 368.07l9.13 9.13M741.91 377.2l9.13-9.13M723.66 468.46l9.13 9.13M723.66 477.59l9.13-9.13M678.02 514.1l9.13 9.13M678.02 523.23l9.13-9.13M687.15 523.23l9.13 9.12M687.15 532.35l9.13-9.12M751.04 532.35l9.13 9.13M751.04 541.48l9.13-9.13" stroke="#000"/><path d="M166.93 66.89l9.12 9.12M176.05 66.89l-9.12 9.12M57.4 267.68l9.13 9.12M66.53 267.68l-9.13 9.12M48.28 267.68l-9.13 9.12M39.15 267.68l9.13 9.12" stroke="#FE36FB"/><path d="M714.53 340.69l-9.13 9.13M48.28 149.03l9.12 9.13M57.4 149.03l-9.12 9.13M66.53 167.28l9.13 9.13M75.66 167.28l-9.13 9.13M93.91 167.28l9.13 9.13M103.04 167.28l-9.13 9.13" stroke="#34D0A9"/><path d="M522.87 21.25l9.13 9.13M532 21.25l-9.13 9.13M532 39.51l9.12 9.12M541.12 39.51L532 48.63M57.4 459.34l-9.12 9.12M57.4 468.46l-9.12-9.12M30.02 486.72l-9.12 9.12M30.02 495.84l-9.12-9.12" stroke="#000"/></g></svg>