<svg width="1582" height="1308" viewBox="0 0 791 654" xmlns="http://www.w3.org/2000/svg"><title>rip-stitches</title><g stroke-width="5.07" fill="none" fill-rule="evenodd" stroke-linecap="round" stroke-linejoin="round"><path d="M577.63 623.62l9.13 9.13M586.76 623.62l-9.13 9.13M212.56 605.37l9.13 9.12M221.69 605.37l-9.13 9.12M212.56 623.62l9.13 9.13M221.69 623.62l-9.13 9.13M376.84 3l9.13 9.13M385.97 3l-9.13 9.13M395.09 30.38l9.13 9.13M404.22 30.38l-9.13 9.13M440.73 3l-9.13 9.13M431.6 3l9.13 9.13" stroke="#000"/><path d="M687.15 322.44l9.13 9.12M696.28 322.44l-9.13 9.12M84.78 313.31l9.13 9.13M93.91 313.31l-9.13 9.13M93.91 368.07l9.13 9.13M103.04 368.07l-9.13 9.13M112.16 386.32l9.13 9.13M121.29 386.32l-9.13 9.13M103.04 395.45l9.12 9.13M112.16 395.45l-9.12 9.13M103.04 431.96l9.12-9.13M112.16 431.96l-9.12-9.13M203.43 377.2l9.13 9.12M212.56 377.2l-9.13 9.12" stroke="#34D0A9"/><path d="M504.62 3l9.12 9.13M513.74 3l-9.12 9.13M522.87 57.76l9.13 9.13M532 57.76l-9.13 9.13M550.25 57.76l9.13 9.13M559.38 57.76l-9.13 9.13M586.76 21.25l9.12 9.13M595.88 21.25l-9.12 9.13M605.01 21.25l9.13 9.13M614.14 21.25l-9.13 9.13M577.63 3l9.13 9.13M586.76 3l-9.13 9.13M568.5 3l-9.12 9.13M559.38 3l9.12 9.13M513.74 112.52l9.13-9.12M522.87 112.52l-9.13-9.12" stroke="#000"/><path d="M20.9 167.28l9.12 9.13M30.02 167.28l-9.12 9.13M20.9 194.66l9.12 9.13M30.02 194.66l-9.12 9.13M66.53 185.54l9.13 9.12M75.66 185.54l-9.13 9.12M322.08 185.54l9.13 9.12M331.21 185.54l-9.13 9.12M312.95 194.66l9.13 9.13M322.08 194.66l-9.13 9.13" stroke="#34D0A9"/><path d="M303.83 641.87L294.7 651M294.7 641.87l9.13 9.13M303.83 249.42l9.12 9.13M312.95 249.42l-9.12 9.13M112.16 231.17l9.13 9.13M121.29 231.17l-9.13 9.13M276.45 94.27l9.12 9.12M285.57 94.27l-9.12 9.12M212.56 94.27l9.13 9.12M221.69 94.27l-9.13 9.12M121.29 504.97l-9.13 9.13M121.29 514.1l-9.13-9.13M57.4 541.48l-9.12 9.13M57.4 550.61l-9.12-9.13M20.9 514.1l-9.13 9.13M20.9 523.23l-9.13-9.13" stroke="#000"/><path d="M349.46 66.89l9.13 9.12M358.59 66.89l-9.13 9.12M340.33 66.89l-9.12 9.12M331.21 66.89l9.12 9.12M641.52 66.89l-9.13 9.12M632.39 66.89l9.13 9.12M48.28 66.89l-9.13 9.12M39.15 66.89l9.13 9.12" stroke="#FE36FB"/></g></svg>