<svg xmlns="http://www.w3.org/2000/svg" width="4482" height="226" viewBox="0 0 4482 226"><defs><style>.cls-1,.cls-2,.cls-3{fill:#27f8fe}.cls-2{opacity:0}.cls-3{fill-rule:evenodd}</style></defs><path class="cls-1" d="M249 0h10v10h-10z"/><path id="Shape_1_copy_13" data-name="Shape 1 copy 13" class="cls-2" d="M0 0h10v10H0z"/><path id="Shape_1_copy" data-name="Shape 1 copy" class="cls-3" d="M498 0h10v10h-10V0zm10 10h10v10h-10V10z"/><path id="Shape_1_copy_2" data-name="Shape 1 copy 2" class="cls-3" d="M747 0h10v10h-10V0zm20 20h10v10h-10V20zm-10-10h10v10h-10V10z"/><path id="Shape_1_copy_3" data-name="Shape 1 copy 3" class="cls-3" d="M996 0h10v10h-10V0zm20 20h10v10h-10V20zm-10-10h10v10h-10V10zm20 20h10v10h-10V30z"/><path id="Shape_1_copy_4" data-name="Shape 1 copy 4" class="cls-3" d="M1245 0h10v10h-10V0zm40 40h10v10h-10V40zm-20-20h10v10h-10V20zm-10-10h10v10h-10V10zm20 20h10v10h-10V30z"/><path id="Shape_1_copy_5" data-name="Shape 1 copy 5" class="cls-3" d="M1494 0h10v10h-10V0zm40 40h10v10h-10V40zm-20-20h10v10h-10V20zm-10-10h10v10h-10V10zm40 40h10v10h-10V50zm-20-20h10v10h-10V30z"/><path id="Shape_1_copy_6" data-name="Shape 1 copy 6" class="cls-3" d="M1743 0h10v10h-10V0zm40 40h10v10h-10V40zm-20-20h10v10h-10V20zm40 40h10v10h-10V60zm-50-50h10v10h-10V10zm40 40h10v10h-10V50zm-20-20h10v10h-10V30z"/><path id="Shape_1_copy_7" data-name="Shape 1 copy 7" class="cls-3" d="M1992 0h10v10h-10V0zm40 40h10v10h-10V40zm-20-20h10v10h-10V20zm40 40h10v10h-10V60zm-50-50h10v10h-10V10zm40 40h10v10h-10V50zm-20-20h10v10h-10V30zm40 40h10v10h-10V70z"/><path id="Shape_1_copy_8" data-name="Shape 1 copy 8" class="cls-3" d="M2241 0h10v10h-10V0zm40 40h10v10h-10V40zm-20-20h10v10h-10V20zm81 74h10v10h-10V94zm-41-34h10v10h-10V60zm-50-50h10v10h-10V10zm40 40h10v10h-10V50zm-20-20h10v10h-10V30zm40 40h10v10h-10V70z"/><path id="Shape_1_copy_9" data-name="Shape 1 copy 9" class="cls-3" d="M2490 0h10v10h-10V0zm40 40h10v10h-10V40zm-20-20h10v10h-10V20zm81 74h10v10h-10V94zm-41-34h10v10h-10V60zm-50-50h10v10h-10V10zm40 40h10v10h-10V50zm-20-20h10v10h-10V30zm81 74h10v10h-10v-10zm-41-34h10v10h-10V70z"/><path id="Shape_1_copy_10" data-name="Shape 1 copy 10" class="cls-3" d="M2739 0h10v10h-10V0zm40 40h10v10h-10V40zm81 74h10v10h-10v-10zm-101-94h10v10h-10V20zm81 74h10v10h-10V94zm-41-34h10v10h-10V60zm-50-50h10v10h-10V10zm40 40h10v10h-10V50zm-20-20h10v10h-10V30zm81 74h10v10h-10v-10zm-41-34h10v10h-10V70z"/><path id="Shape_1_copy_10-2" data-name="Shape 1 copy 10" class="cls-3" d="M2988 0h10v10h-10V0zm40 40h10v10h-10V40zm81 74h10v10h-10v-10zm-101-94h10v10h-10V20zm81 74h10v10h-10V94zm-41-34h10v10h-10V60zm-50-50h10v10h-10V10zm40 40h10v10h-10V50zm81 74h10v10h-10v-10zm-101-94h10v10h-10V30zm81 74h10v10h-10v-10zm-41-34h10v10h-10V70z"/><path id="Shape_1_copy_11" data-name="Shape 1 copy 11" class="cls-3" d="M3237 0h10v10h-10V0zm40 40h10v10h-10V40zm81 74h10v10h-10v-10zm-101-94h10v10h-10V20zm81 74h10v10h-10V94zm-41-34h10v10h-10V60zm-50-50h10v10h-10V10zm40 40h10v10h-10V50zm81 74h10v10h-10v-10zm-101-94h10v10h-10V30zm81 74h10v10h-10v-10zm-41-34h10v10h-10V70zm83 70h10v10h-10v-10z"/><path id="Shape_1_copy_11-2" data-name="Shape 1 copy 11" class="cls-3" d="M3486 0h10v10h-10V0zm163 150h10v10h-10v-10zM3526 40h10v10h-10V40zm81 74h10v10h-10v-10zm-101-94h10v10h-10V20zm81 74h10v10h-10V94zm-41-34h10v10h-10V60zm-50-50h10v10h-10V10zm40 40h10v10h-10V50zm81 74h10v10h-10v-10zm-101-94h10v10h-10V30zm81 74h10v10h-10v-10zm-41-34h10v10h-10V70zm83 70h10v10h-10v-10z"/><path id="Shape_1_copy_11-3" data-name="Shape 1 copy 11" class="cls-3" d="M3735 0h10v10h-10V0zm163 150h10v10h-10v-10zM3775 40h10v10h-10V40zm81 74h10v10h-10v-10zm-101-94h10v10h-10V20zm81 74h10v10h-10V94zm-41-34h10v10h-10V60zm-50-50h10v10h-10V10zm163 150h10v10h-10v-10zM3785 50h10v10h-10V50zm81 74h10v10h-10v-10zm-101-94h10v10h-10V30zm81 74h10v10h-10v-10zm-41-34h10v10h-10V70zm83 70h10v10h-10v-10z"/><path id="Shape_1_copy_11-4" data-name="Shape 1 copy 11" class="cls-3" d="M3984 0h10v10h-10V0zm163 150h10v10h-10v-10zM4024 40h10v10h-10V40zm81 74h10v10h-10v-10zm-101-94h10v10h-10V20zm219 196h10v10h-10v-10zM4085 94h10v10h-10V94zm-41-34h10v10h-10V60zm-50-50h10v10h-10V10zm163 150h10v10h-10v-10zM4034 50h10v10h-10V50zm81 74h10v10h-10v-10zm-101-94h10v10h-10V30zm81 74h10v10h-10v-10zm-41-34h10v10h-10V70zm83 70h10v10h-10v-10z"/><path id="Shape_1_copy_12" data-name="Shape 1 copy 12" class="cls-3" d="M4233 0h10v10h-10V0zm163 150h10v10h-10v-10zM4273 40h10v10h-10V40zm81 74h10v10h-10v-10zm-101-94h10v10h-10V20zm219 196h10v10h-10v-10zM4334 94h10v10h-10V94zm-41-34h10v10h-10V60zm-50-50h10v10h-10V10zm163 150h10v10h-10v-10zM4283 50h10v10h-10V50zm81 74h10v10h-10v-10zm-101-94h10v10h-10V30zm81 74h10v10h-10v-10zm-41-34h10v10h-10V70zm83 70h10v10h-10v-10z"/></svg>