<svg xmlns="http://www.w3.org/2000/svg" width="9020" height="558" viewBox="0 0 9020 558"><defs><style>.cls-1{fill:#27f8fe;fill-rule:evenodd}</style></defs><path id="Shape_1_copy_4" data-name="Shape 1 copy 4" class="cls-1" d="M296 0h10v9h-10V0zm606 136h10v9h-10v-9zM1198 0h10v9h-10V0zm606 136h10v9h-10v-9zm236 0h10v9h-10v-9zm60-136h10v9h-10V0zm606 136h10v9h-10v-9zm236 0h10v9h-10v-9zm60-136h10v9h-10V0zm-81 328h10v9h-10v-9zm687-192h10v9h-10v-9zm236 0h10v9h-10v-9zm60-136h10v9h-10V0zm-230 409h10v9h-10v-9zm149-81h10v9h-10v-9zm687-192h10v9h-10v-9zm236 0h10v9h-10v-9zm60-136h10v9h-10V0zm202 454h10v9h-10v-9zm-432-45h10v9h-10v-9zm149-81h10v9h-10v-9zm687-192h10v9h-10v-9zm236 0h10v9h-10v-9zm60-136h10v9h-10V0zm202 454h10v9h-10v-9zm-432-45h10v9h-10v-9zm787-123h10v9h-10v-9zm-638 42h10v9h-10v-9zm687-192h10v9h-10v-9zm236 0h10v9h-10v-9zm60-136h10v9h-10V0zm202 454h10v9h-10v-9zm-432-45h10v9h-10v-9zm826-132h10v9h-10v-9zm-39 9h10v9h-10v-9zm-638 42h10v9h-10v-9zm1017 212h10v9h-10v-9zm-330-404h10v9h-10v-9zm236 0h10v9h-10v-9zm60-136h10v9h-10V0zm202 454h10v9h-10v-9zm-432-45h10v9h-10v-9zm826-132h10v9h-10v-9zm-39 9h10v9h-10v-9zm-638 42h10v9h-10v-9zm1005 221h10v9h-10v-9zm12-9h10v9h-10v-9zm-330-404h10v9h-10v-9zm236 0h10v9h-10v-9zm60-136h10v9h-10V0zm202 454h10v9h-10v-9zm-432-45h10v9h-10v-9zm826-132h10v9h-10v-9zm-39 9h10v9h-10v-9zm-638 42h10v9h-10v-9z"/></svg>