<svg xmlns="http://www.w3.org/2000/svg" width="1278" height="226" viewBox="0 0 1278 226"><defs><style>.cls-1,.cls-2{fill:#27f8fe;fill-rule:evenodd}.cls-1{opacity:0}</style></defs><path class="cls-1" d="M108.007 0h9.985v10.012h-9.985V0zm94.981 83.005H213v9.982h-10.012v-9.982zm-127 0H86v9.982H75.991v-9.982zm-9.985 9.982h9.985V103h-9.982V92.987zM0 215.988h10.012V226H0v-10.012zM131.008 23.007h9.984v9.982h-9.984v-9.982z"/><path id="Shape_2_copy" data-name="Shape 2 copy" class="cls-2" d="M321.007 0h9.985v10.012h-9.985V0z"/><path id="Shape_2_copy_2" data-name="Shape 2 copy 2" class="cls-2" d="M534.007 0h9.985v10.012h-9.985V0zm23 23.006h9.984v9.982h-9.984v-9.981z"/><path id="Shape_2_copy_3" data-name="Shape 2 copy 3" class="cls-2" d="M747.007 0h9.985v10.012h-9.985V0zm-32.016 83.005H725v9.982h-10.009v-9.982zm-9.985 9.982h9.985V103h-9.985V92.987zm65-69.98h9.984v9.982h-9.984v-9.982z"/><path id="Shape_2_copy_4" data-name="Shape 2 copy 4" class="cls-2" d="M960.007 0h9.985v10.012h-9.985V0zm94.983 83.005H1065v9.982h-10.01v-9.982zm-127 0H938v9.982h-10.009v-9.982zm-9.985 9.982h9.985V103h-9.985V92.987zm65-69.98h9.984v9.982h-9.984v-9.982z"/><path id="Shape_2_copy_5" data-name="Shape 2 copy 5" class="cls-2" d="M1173.01 0h9.98v10.012h-9.98V0zm94.98 83.005H1278v9.982h-10.01v-9.982zm-127 0H1151v9.982h-10.01v-9.982zm-9.98 9.982h9.98V103h-9.98V92.987zm-66.01 123h10.01V226H1065v-10.012zm131.01-192.98h9.98v9.982h-9.98v-9.982z"/></svg>