<svg xmlns="http://www.w3.org/2000/svg" width="1585" height="226" viewBox="0 0 1585 226"><defs><style>.cls-1,.cls-2{fill:#27f8fe;fill-rule:evenodd}.cls-1{opacity:0}</style></defs><path class="cls-1" d="M0 216.013h9.985V226H0v-9.987zm244.014 0H254V226h-9.985v-9.987zM223.01 0H233v9.987h-9.99V0zm84.005 73H317v10.014h-9.985V73z"/><path id="Shape_1_copy" data-name="Shape 1 copy" class="cls-2" d="M540.01 0H550v9.987h-9.99V0z"/><path id="Shape_1_copy_2" data-name="Shape 1 copy 2" class="cls-2" d="M857.01 0H867v9.987h-9.99V0zm84.005 73H951v10.014h-9.985V73z"/><path id="Shape_1_copy_3" data-name="Shape 1 copy 3" class="cls-2" d="M951 216.013h9.985V226H951v-9.987zM1174.01 0h9.98v9.987h-9.98V0zm84 73h9.99v10.014h-9.99V73z"/><path id="Shape_1_copy_4" data-name="Shape 1 copy 4" class="cls-2" d="M1268 216.013h9.99V226H1268v-9.987zm244.01 0h9.99V226h-9.99v-9.987zM1491.01 0h9.98v9.987h-9.98V0zm84 73h9.99v10.014h-9.99V73z"/></svg>