<svg width="209" height="129" viewBox="0 0 209 129" xmlns="http://www.w3.org/2000/svg" xmlns:xlink="http://www.w3.org/1999/xlink"><title>boomer-hours</title><defs><path id="a" d="M47.687 117V0H0v117h47.687z"/></defs><g fill="none" fill-rule="evenodd"><path d="M129.478 65.26c1.178 0 2.136.959 2.136 2.137v28.11a2.139 2.139 0 0 1-2.136 2.137 2.139 2.139 0 0 1-2.135-2.137v-28.11c0-1.178.958-2.137 2.135-2.137zM154 7.904L153.96 0h-25.688L105 23.286v72.22C105 109.013 115.98 120 129.478 120c13.498 0 24.479-10.988 24.479-24.493v-28.11c0-13.505-10.981-24.493-24.479-24.493-.447 0-.918.015-1.44.046l-.695.04v-8.413L154 7.904zM78.094 96.096c0 1.15-.94 2.086-2.094 2.086a2.092 2.092 0 0 1-2.094-2.086V23.904c0-1.15.94-2.086 2.094-2.086 1.155 0 2.094.936 2.094 2.086v72.192zM76 0C62.766 0 52 10.723 52 23.904v72.192C52 109.276 62.766 120 76 120s24-10.723 24-23.904V23.904C100 10.724 89.234 0 76 0z" fill="#000"/><g transform="translate(0 2)"><mask id="b" fill="#fff"><use xlink:href="#a"/></mask><path d="M.007 48.673v7.834h25.92L25.92 93.12a2.084 2.084 0 0 1-2.08 2.084 2.084 2.084 0 0 1-2.08-2.084V60.753H0v32.366C0 106.287 10.695 117 23.84 117s23.84-10.712 23.84-23.88V67.245c0-9.152-5.097-17.36-13.303-21.417l-.814-.402L47.68 31.73 47.687 0H.007v21.797h26.818L.007 48.673z" fill="#000" mask="url(#b)"/></g></g></svg>