<svg width="169" height="122" viewBox="0 0 169 122" xmlns="http://www.w3.org/2000/svg" xmlns:xlink="http://www.w3.org/1999/xlink"><title>boomer-roi</title><defs><path id="a" d="M49.317 121V0H0v121h49.317z"/></defs><g fill="none" fill-rule="evenodd"><path d="M24.682 66.804c1.188 0 2.154.967 2.154 2.155v28.344a2.157 2.157 0 0 1-2.154 2.155 2.157 2.157 0 0 1-2.153-2.155V68.959c0-1.188.966-2.155 2.153-2.155zM49.408 8.97L49.368 1H23.466L0 24.48v72.823C0 110.92 11.072 122 24.682 122s24.683-11.08 24.683-24.697V68.959c0-13.618-11.073-24.697-24.683-24.697-.45 0-.926.015-1.451.046l-.702.041v-8.484L49.409 8.97z" fill="#000"/><g transform="translate(65 1)"><mask id="b" fill="#fff"><use xlink:href="#a"/></mask><path d="M.007 50.337v8.102h26.806l-.007 37.864a2.155 2.155 0 0 1-2.15 2.154 2.155 2.155 0 0 1-2.152-2.154V62.83H0v33.473C0 109.92 11.06 121 24.655 121S49.31 109.92 49.31 96.303V69.544c0-9.465-5.272-17.953-13.758-22.149l-.842-.416 14.6-14.164L49.317 0H.007v22.542h27.735L.007 50.337z" fill="#000" mask="url(#b)"/></g><g transform="translate(120)" fill="#000"><path d="M29.81 0L8.165 62h11.228L41.04 0z"/><ellipse cx="8.965" cy="21" rx="8.965" ry="9"/><ellipse cx="40.035" cy="43.4" rx="8.965" ry="9"/></g><circle fill="#000" cx="57" cy="114" r="6"/></g></svg>