<svg xmlns="http://www.w3.org/2000/svg" viewBox="0 0 607.19 560.96"><defs><style>.cls-1,.cls-5{fill:#fff}.cls-1,.cls-2,.cls-4{stroke:#1446ff}.cls-1,.cls-2,.cls-3,.cls-4,.cls-6{stroke-linecap:round;stroke-linejoin:round}.cls-1,.cls-2,.cls-3{stroke-width:1.25px}.cls-2,.cls-4{fill:#fe36fb}.cls-3,.cls-6{fill:#1446ff;stroke:#fff}.cls-4,.cls-6{stroke-width:1.26px}</style></defs><title>ftw-fallback</title><g id="Layer_2" data-name="Layer 2"><g id="ARTWORK"><path class="cls-1" d="M606.57 417.81l-22.44-12.95-22.44 12.95 22.44 12.96 22.44-12.96z"/><path class="cls-2" d="M561.69 417.81v25.92l22.44 12.95v-25.91l-22.44-12.96z"/><path class="cls-3" d="M606.57 417.81l-22.44 12.96v25.91l22.44-12.95v-25.92z"/><path class="cls-1" d="M606.57 391.9l-22.44-12.96-22.44 12.96 22.44 12.96 22.44-12.96z"/><path class="cls-2" d="M561.69 391.9v25.91l22.44 12.96v-25.91l-22.44-12.96z"/><path class="cls-3" d="M606.57 391.9l-22.44 12.96v25.91l22.44-12.96V391.9z"/><path class="cls-1" d="M606.57 365.99l-22.44-12.96-22.44 12.96 22.44 12.95 22.44-12.95z"/><path class="cls-2" d="M561.69 365.99v25.91l22.44 12.96v-25.92l-22.44-12.95z"/><path class="cls-3" d="M606.57 365.99l-22.44 12.95v25.92l22.44-12.96v-25.91z"/><path class="cls-1" d="M606.57 340.08l-22.44-12.96-22.44 12.96 22.44 12.95 22.44-12.95z"/><path class="cls-2" d="M561.69 340.08v25.91l22.44 12.95v-25.91l-22.44-12.95z"/><path class="cls-3" d="M606.57 340.08l-22.44 12.95v25.91l22.44-12.95v-25.91z"/><path class="cls-1" d="M606.57 314.16l-22.44-12.96-22.44 12.96 22.44 12.96 22.44-12.96z"/><path class="cls-2" d="M561.69 314.16v25.92l22.44 12.95v-25.91l-22.44-12.96z"/><path class="cls-3" d="M606.57 314.16l-22.44 12.96v25.91l22.44-12.95v-25.92z"/><path class="cls-1" d="M606.57 288.25l-22.44-12.96-22.44 12.96 22.44 12.96 22.44-12.96z"/><path class="cls-2" d="M561.69 288.25v25.91l22.44 12.96v-25.91l-22.44-12.96z"/><path class="cls-3" d="M606.57 288.25l-22.44 12.96v25.91l22.44-12.96v-25.91z"/><path class="cls-1" d="M606.57 262.34l-22.44-12.96-22.44 12.96 22.44 12.96 22.44-12.96z"/><path class="cls-2" d="M561.69 262.34v25.91l22.44 12.96V275.3l-22.44-12.96z"/><path class="cls-3" d="M606.57 262.34l-22.44 12.96v25.91l22.44-12.96v-25.91z"/><path class="cls-1" d="M584.13 430.77l-22.44-12.96-22.44 12.96 22.44 12.96 22.44-12.96z"/><path class="cls-2" d="M539.25 430.77v25.91l22.44 12.96v-25.91l-22.44-12.96z"/><path class="cls-3" d="M584.13 430.77l-22.44 12.96v25.91l22.44-12.96v-25.91z"/><path class="cls-1" d="M561.69 417.81l-22.44-12.95-22.45 12.95 22.45 12.96 22.44-12.96z"/><path class="cls-2" d="M516.8 417.81v25.92l22.45 12.95v-25.91l-22.45-12.96z"/><path class="cls-3" d="M561.69 417.81l-22.44 12.96v25.91l22.44-12.95v-25.92z"/><path class="cls-1" d="M539.25 404.86L516.8 391.9l-22.44 12.96 22.44 12.95 22.45-12.95z"/><path class="cls-2" d="M494.36 404.86v25.91l22.44 12.96v-25.92l-22.44-12.95z"/><path class="cls-3" d="M539.25 404.86l-22.45 12.95v25.92l22.45-12.96v-25.91z"/><path class="cls-1" d="M494.36 430.77l-22.44-12.96-22.45 12.96 22.45 12.96 22.44-12.96z"/><path class="cls-2" d="M449.47 430.77v25.91l22.45 12.96v-25.91l-22.45-12.96z"/><path class="cls-3" d="M494.36 430.77l-22.44 12.96v25.91l22.44-12.96v-25.91z"/><path class="cls-1" d="M471.92 469.64l-22.45-12.96-22.44 12.96 22.44 12.96 22.45-12.96z"/><path class="cls-2" d="M427.03 469.64v25.91l22.44 12.96V482.6l-22.44-12.96z"/><path class="cls-3" d="M471.92 469.64l-22.45 12.96v25.91l22.45-12.96v-25.91z"/><path class="cls-1" d="M449.47 508.51l-22.44-12.96-22.44 12.96 22.44 12.96 22.44-12.96z"/><path class="cls-2" d="M404.59 508.51v25.91l22.44 12.96v-25.91l-22.44-12.96z"/><path class="cls-3" d="M449.47 508.51l-22.44 12.96v25.91l22.44-12.96v-25.91z"/><path class="cls-1" d="M427.03 521.47l-22.44-12.96-22.44 12.96 22.44 12.95 22.44-12.95z"/><path class="cls-2" d="M382.15 521.47v25.91l22.44 12.96v-25.92l-22.44-12.95z"/><path class="cls-3" d="M427.03 521.47l-22.44 12.95v25.92l22.44-12.96v-25.91z"/><path class="cls-1" d="M427.03 495.55l-22.44-12.95-22.44 12.95 22.44 12.96 22.44-12.96z"/><path class="cls-2" d="M382.15 495.55v25.92l22.44 12.95v-25.91l-22.44-12.96z"/><path class="cls-3" d="M427.03 495.55l-22.44 12.96v25.91l22.44-12.95v-25.92z"/><path class="cls-1" d="M427.03 469.64l-22.44-12.96-22.44 12.96 22.44 12.96 22.44-12.96z"/><path class="cls-2" d="M382.15 469.64v25.91l22.44 12.96V482.6l-22.44-12.96z"/><path class="cls-3" d="M427.03 469.64l-22.44 12.96v25.91l22.44-12.96v-25.91z"/><path class="cls-1" d="M427.03 443.73l-22.44-12.96-22.44 12.96 22.44 12.96 22.44-12.96z"/><path class="cls-2" d="M382.15 443.73v25.91l22.44 12.96v-25.91l-22.44-12.96z"/><path class="cls-3" d="M427.03 443.73l-22.44 12.96v25.91l22.44-12.96v-25.91z"/><path class="cls-1" d="M427.03 417.81l-22.44-12.95-22.44 12.95 22.44 12.96 22.44-12.96z"/><path class="cls-2" d="M382.15 417.81v25.92l22.44 12.96v-25.92l-22.44-12.96z"/><path class="cls-3" d="M427.03 417.81l-22.44 12.96v25.92l22.44-12.96v-25.92z"/><path class="cls-1" d="M427.03 391.9l-22.44-12.96-22.44 12.96 22.44 12.96 22.44-12.96z"/><path class="cls-2" d="M382.15 391.9v25.91l22.44 12.96v-25.91l-22.44-12.96z"/><path class="cls-3" d="M427.03 391.9l-22.44 12.96v25.91l22.44-12.96V391.9z"/><path class="cls-1" d="M516.8 391.9l-22.44-12.96-22.44 12.96 22.44 12.96 22.44-12.96z"/><path class="cls-2" d="M471.92 391.9v25.91l22.44 12.96v-25.91l-22.44-12.96z"/><path class="cls-3" d="M516.8 391.9l-22.44 12.96v25.91l22.44-12.96V391.9z"/><path class="cls-1" d="M516.8 365.99l-22.44-12.96-22.44 12.96 22.44 12.95 22.44-12.95z"/><path class="cls-2" d="M471.92 365.99v25.91l22.44 12.96v-25.92l-22.44-12.95z"/><path class="cls-3" d="M516.8 365.99l-22.44 12.95v25.92l22.44-12.96v-25.91z"/><path class="cls-1" d="M516.8 340.07l-22.44-12.96-22.44 12.96 22.44 12.96 22.44-12.96z"/><path class="cls-2" d="M471.92 340.07v25.92l22.44 12.95v-25.91l-22.44-12.96z"/><path class="cls-3" d="M516.8 340.07l-22.44 12.96v25.91l22.44-12.95v-25.92z"/><path class="cls-1" d="M427.03 365.99l-22.44-12.96-22.44 12.96 22.44 12.96 22.44-12.96z"/><path class="cls-2" d="M382.15 365.99v25.91l22.44 12.96v-25.91l-22.44-12.96z"/><path class="cls-3" d="M427.03 365.99l-22.44 12.96v25.91l22.44-12.96v-25.91z"/><path class="cls-1" d="M516.8 314.16l-22.44-12.96-22.44 12.96 22.44 12.96 22.44-12.96z"/><path class="cls-2" d="M471.92 314.16v25.91l22.44 12.96v-25.91l-22.44-12.96z"/><path class="cls-3" d="M516.8 314.16l-22.44 12.96v25.91l22.44-12.96v-25.91z"/><path class="cls-1" d="M606.57 236.42l-22.44-12.95-22.44 12.95 22.44 12.96 22.44-12.96z"/><path class="cls-2" d="M561.69 236.42v25.92l22.44 12.96v-25.92l-22.44-12.96z"/><path class="cls-3" d="M606.57 236.42l-22.44 12.96v25.92l22.44-12.96v-25.92z"/><path class="cls-1" d="M427.03 340.08l-22.44-12.96-22.44 12.96 22.44 12.95 22.44-12.95z"/><path class="cls-2" d="M382.15 340.08v25.91l22.44 12.96v-25.92l-22.44-12.95z"/><path class="cls-3" d="M427.03 340.08l-22.44 12.95v25.92l22.44-12.96v-25.91z"/><path class="cls-1" d="M516.8 288.25l-22.44-12.96-22.44 12.96 22.44 12.95 22.44-12.95z"/><path class="cls-2" d="M471.92 288.25v25.91l22.44 12.96V301.2l-22.44-12.95z"/><path class="cls-3" d="M516.8 288.25l-22.44 12.95v25.92l22.44-12.96v-25.91z"/><path class="cls-1" d="M292.38 443.73l-22.45-12.95-22.44 12.95 22.44 12.96 22.45-12.96z"/><path class="cls-2" d="M247.49 443.73v25.92l22.44 12.96v-25.92l-22.44-12.96z"/><path class="cls-3" d="M292.38 443.73l-22.45 12.96v25.92l22.45-12.96v-25.92z"/><path class="cls-1" d="M382.15 262.34l-22.45-12.95-22.44 12.95 22.44 12.96 22.45-12.96z"/><path class="cls-2" d="M337.26 262.34v25.92l22.44 12.95V275.3l-22.44-12.96z"/><path class="cls-3" d="M382.15 262.34L359.7 275.3v25.91l22.45-12.95v-25.92z"/><path class="cls-1" d="M359.7 275.3l-22.44-12.96-22.44 12.96 22.44 12.96 22.44-12.96z"/><path class="cls-2" d="M314.82 275.3v25.91l22.44 12.96v-25.91l-22.44-12.96z"/><path class="cls-3" d="M359.7 275.3l-22.44 12.96v25.91l22.44-12.96V275.3z"/><path class="cls-1" d="M247.49 236.43l-22.44-12.96-22.44 12.96 22.44 12.96 22.44-12.96z"/><path class="cls-2" d="M202.61 236.43v25.91l22.44 12.96v-25.91l-22.44-12.96z"/><path class="cls-3" d="M247.49 236.43l-22.44 12.96v25.91l22.44-12.96v-25.91z"/><path class="cls-1" d="M225.05 249.39l-22.44-12.96-22.45 12.96 22.45 12.96 22.44-12.96z"/><path class="cls-2" d="M180.16 249.39v25.91l22.45 12.96v-25.91l-22.45-12.96z"/><path class="cls-3" d="M225.05 249.39l-22.44 12.96v25.91l22.44-12.96v-25.91z"/><path class="cls-1" d="M202.61 262.34l-22.45-12.95-22.44 12.95 22.44 12.96 22.45-12.96z"/><path class="cls-2" d="M157.72 262.34v25.92l22.44 12.95V275.3l-22.44-12.96z"/><path class="cls-3" d="M202.61 262.34l-22.45 12.96v25.91l22.45-12.95v-25.92z"/><path class="cls-1" d="M269.93 249.39l-22.44-12.96-22.44 12.96 22.44 12.96 22.44-12.96z"/><path class="cls-2" d="M225.05 249.39v25.91l22.44 12.96v-25.91l-22.44-12.96z"/><path class="cls-3" d="M269.93 249.39l-22.44 12.96v25.91l22.44-12.96v-25.91z"/><path class="cls-1" d="M292.38 417.82l-22.45-12.96-22.44 12.96 22.44 12.96 22.45-12.96z"/><path class="cls-2" d="M247.49 417.82v25.91l22.44 12.96v-25.91l-22.44-12.96z"/><path class="cls-3" d="M292.38 417.82l-22.45 12.96v25.91l22.45-12.96v-25.91z"/><path class="cls-1" d="M292.38 391.91l-22.45-12.96-22.44 12.96 22.44 12.96 22.45-12.96z"/><path class="cls-2" d="M247.49 391.91v25.91l22.44 12.96v-25.91l-22.44-12.96z"/><path class="cls-3" d="M292.38 391.91l-22.45 12.96v25.91l22.45-12.96v-25.91z"/><path class="cls-1" d="M292.38 366l-22.45-12.96L247.49 366l22.44 12.95L292.38 366z"/><path class="cls-2" d="M247.49 366v25.91l22.44 12.96v-25.92L247.49 366z"/><path class="cls-3" d="M292.38 366l-22.45 12.95v25.92l22.45-12.96V366z"/><path class="cls-1" d="M292.38 340.08l-22.45-12.95-22.44 12.95 22.44 12.96 22.45-12.96z"/><path class="cls-2" d="M247.49 340.08V366l22.44 12.95v-25.91l-22.44-12.96z"/><path class="cls-3" d="M292.38 340.08l-22.45 12.96v25.91L292.38 366v-25.92z"/><path class="cls-1" d="M292.38 314.17l-22.45-12.96-22.44 12.96 22.44 12.96 22.45-12.96z"/><path class="cls-2" d="M247.49 314.17v25.91l22.44 12.96v-25.91l-22.44-12.96z"/><path class="cls-3" d="M292.38 314.17l-22.45 12.96v25.91l22.45-12.96v-25.91z"/><path class="cls-1" d="M292.38 288.26l-22.45-12.96-22.44 12.96 22.44 12.95 22.45-12.95z"/><path class="cls-2" d="M247.49 288.26v25.91l22.44 12.96v-25.92l-22.44-12.95z"/><path class="cls-3" d="M292.38 288.26l-22.45 12.95v25.92l22.45-12.96v-25.91z"/><path class="cls-1" d="M292.38 262.35l-22.45-12.96-22.44 12.96 22.44 12.95 22.45-12.95z"/><path class="cls-2" d="M247.49 262.35v25.91l22.44 12.95V275.3l-22.44-12.95z"/><path class="cls-3" d="M292.38 262.35l-22.45 12.95v25.91l22.45-12.95v-25.91z"/><path class="cls-1" d="M314.82 275.3l-22.44-12.96-22.45 12.96 22.45 12.96 22.44-12.96z"/><path class="cls-2" d="M269.93 275.3v25.91l22.45 12.96v-25.91l-22.45-12.96z"/><path class="cls-3" d="M314.82 275.3l-22.44 12.96v25.91l22.44-12.96V275.3z"/><path class="cls-1" d="M337.26 288.26l-22.44-12.96-22.44 12.96 22.44 12.95 22.44-12.95z"/><path class="cls-2" d="M292.38 288.26v25.91l22.44 12.96v-25.92l-22.44-12.95z"/><path class="cls-3" d="M337.26 288.26l-22.44 12.95v25.92l22.44-12.96v-25.91z"/><path class="cls-1" d="M135.28 171.65l-22.45-12.96-22.44 12.96 22.44 12.95 22.45-12.95z"/><path class="cls-2" d="M90.39 171.65v25.91l22.44 12.96V184.6l-22.44-12.95z"/><path class="cls-3" d="M135.28 171.65l-22.45 12.95v25.92l22.45-12.96v-25.91z"/><path class="cls-1" d="M45.51 404.86l-22.44-12.95L.62 404.86l22.45 12.96 22.44-12.96z"/><path class="cls-2" d="M.62 404.86v25.92l22.45 12.95v-25.91L.62 404.86z"/><path class="cls-3" d="M45.51 404.86l-22.44 12.96v25.91l22.44-12.95v-25.92z"/><path class="cls-1" d="M135.28 275.3l-22.45-12.96-22.44 12.96 22.44 12.95 22.45-12.95z"/><path class="cls-2" d="M90.39 275.3v25.91l22.44 12.96v-25.92L90.39 275.3z"/><path class="cls-3" d="M135.28 275.3l-22.45 12.95v25.92l22.45-12.96V275.3z"/><path class="cls-1" d="M112.83 184.6l-22.44-12.95-22.44 12.95 22.44 12.96 22.44-12.96z"/><path class="cls-2" d="M67.95 184.6v25.92l22.44 12.95v-25.91L67.95 184.6z"/><path class="cls-3" d="M112.83 184.6l-22.44 12.96v25.91l22.44-12.95V184.6z"/><path class="cls-1" d="M90.39 197.56L67.95 184.6l-22.44 12.96 22.44 12.96 22.44-12.96z"/><path class="cls-2" d="M45.51 197.56v25.91l22.44 12.96v-25.91l-22.44-12.96z"/><path class="cls-3" d="M90.39 197.56l-22.44 12.96v25.91l22.44-12.96v-25.91z"/><path class="cls-1" d="M67.95 210.52l-22.44-12.96-22.44 12.96 22.44 12.96 22.44-12.96z"/><path class="cls-2" d="M23.07 210.52v25.91l22.44 12.96v-25.91l-22.44-12.96z"/><path class="cls-3" d="M67.95 210.52l-22.44 12.96v25.91l22.44-12.96v-25.91z"/><path class="cls-1" d="M45.51 378.95L23.07 366 .62 378.95l22.45 12.96 22.44-12.96z"/><path class="cls-2" d="M.62 378.95v25.91l22.45 12.96v-25.91L.62 378.95z"/><path class="cls-3" d="M45.51 378.95l-22.44 12.96v25.91l22.44-12.96v-25.91z"/><path class="cls-1" d="M45.51 353.04l-22.44-12.96L.62 353.04 23.07 366l22.44-12.96z"/><path class="cls-2" d="M.62 353.04v25.91l22.45 12.96V366L.62 353.04z"/><path class="cls-3" d="M45.51 353.04L23.07 366v25.91l22.44-12.96v-25.91z"/><path class="cls-1" d="M45.51 327.13l-22.44-12.96L.62 327.13l22.45 12.95 22.44-12.95z"/><path class="cls-2" d="M.62 327.13v25.91L23.07 366v-25.92L.62 327.13z"/><path class="cls-3" d="M45.51 327.13l-22.44 12.95V366l22.44-12.96v-25.91z"/><path class="cls-1" d="M45.51 301.21l-22.44-12.95L.62 301.21l22.45 12.96 22.44-12.96z"/><path class="cls-2" d="M.62 301.21v25.92l22.45 12.95v-25.91L.62 301.21z"/><path class="cls-3" d="M45.51 301.21l-22.44 12.96v25.91l22.44-12.95v-25.92z"/><path class="cls-1" d="M45.51 275.3l-22.44-12.96L.62 275.3l22.45 12.96 22.44-12.96z"/><path class="cls-2" d="M.62 275.3v25.91l22.45 12.96v-25.91L.62 275.3z"/><path class="cls-3" d="M45.51 275.3l-22.44 12.96v25.91l22.44-12.96V275.3z"/><path class="cls-1" d="M45.51 249.39l-22.44-12.96L.62 249.39l22.45 12.96 22.44-12.96z"/><path class="cls-2" d="M.62 249.39v25.91l22.45 12.96v-25.91L.62 249.39z"/><path class="cls-3" d="M45.51 249.39l-22.44 12.96v25.91l22.44-12.96v-25.91z"/><path class="cls-1" d="M45.51 223.48l-22.44-12.96L.62 223.48l22.45 12.96 22.44-12.96z"/><path class="cls-2" d="M.62 223.48v25.91l22.45 12.96v-25.91L.62 223.48z"/><path class="cls-3" d="M45.51 223.48l-22.44 12.96v25.91l22.44-12.96v-25.91z"/><path class="cls-1" d="M112.83 288.25L90.39 275.3l-22.44 12.95 22.44 12.96 22.44-12.96z"/><path class="cls-2" d="M67.95 288.25v25.92l22.44 12.96v-25.92l-22.44-12.96z"/><path class="cls-3" d="M112.83 288.25l-22.44 12.96v25.92l22.44-12.96v-25.92z"/><path class="cls-1" d="M67.95 288.26L45.51 275.3l-22.44 12.96 22.44 12.95 22.44-12.95z"/><path class="cls-2" d="M23.07 288.26v25.91l22.44 12.96v-25.92l-22.44-12.95z"/><path class="cls-3" d="M67.95 288.26l-22.44 12.95v25.92l22.44-12.96v-25.91z"/><path class="cls-1" d="M90.39 301.21l-22.44-12.96-22.44 12.96 22.44 12.96 22.44-12.96z"/><path class="cls-2" d="M45.51 301.21v25.92l22.44 12.95v-25.91l-22.44-12.96z"/><path class="cls-3" d="M90.39 301.21l-22.44 12.96v25.91l22.44-12.95v-25.92z"/><path class="cls-4" d="M98.85.63h36.27V36.9H98.85z"/><path class="cls-5" d="M107.6 7h5.4l7.92 14.76V7h5v22.78h-5.41L112.65 15v14.78h-5.05z"/><path class="cls-4" d="M135.12.63h36.27V36.9h-36.27z"/><path class="cls-5" d="M146.22 7h13.94v4.2h-8.66v5.19h8.66v4.14h-8.66v5h8.66v4.24h-13.94z"/><path class="cls-4" d="M171.38.63h36.27V36.9h-36.27z"/><path class="cls-5" d="M178.93 7h5.67l4.72 16.1L194.05 7h5.67l-7.66 22.81h-5.47z"/><path class="cls-4" d="M207.65.63h36.27V36.9h-36.27z"/><path class="cls-5" d="M218.75 7h13.94v4.2H224v5.19h8.66v4.14H224v5h8.66v4.24h-13.91z"/><path class="cls-4" d="M243.91.63h36.26V36.9h-36.26z"/><path class="cls-5" d="M267.1 22.54l4 7.24h-6l-3.59-6.32h-2.77v6.32h-5.28V7h9.71a7.92 7.92 0 0 1 8.18 8.24 7.92 7.92 0 0 1-4.25 7.3zm-8.34-3.38h3.62a3.69 3.69 0 0 0 3.62-3.95 3.68 3.68 0 0 0-3.65-3.94h-3.62z"/><path class="cls-4" d="M280.18.63h36.27V36.9h-36.27z"/><path class="cls-5" d="M289.35 18.86h17.54v3.33h-17.54z"/><path class="cls-6" d="M243.91 36.9h36.26v36.27h-36.26z"/><path class="cls-5" d="M255 43.24h14v4.23h-8.67v5.18H269v4.14h-8.67v5H269v4.24h-14z"/><path class="cls-6" d="M280.18 36.9h36.27v36.27h-36.27z"/><path class="cls-5" d="M288.93 43.24h5.41L302.26 58V43.24h5.05v22.81h-5.41L294 51.28v14.77h-5.05z"/><path class="cls-6" d="M316.45 36.9h36.26v36.27h-36.26z"/><path class="cls-5" d="M325 43.24h8.6c7.33 0 11.63 5.24 11.63 11.4S341 66.05 333.59 66.05H325zm8.11 18.37c4.49 0 6.68-3.35 6.68-7s-2.19-7-6.68-7h-2.84v14z"/><path class="cls-6" d="M352.71 36.9h36.27v36.27h-36.27z"/><path class="cls-5" d="M368 43.24h5.28v22.81H368z"/><path class="cls-6" d="M388.98 36.9h36.26v36.27h-36.26z"/><path class="cls-5" d="M397.73 43.24h5.41L411.06 58V43.24h5.05v22.81h-5.41l-7.92-14.77v14.77h-5z"/><path class="cls-6" d="M425.24 36.9h36.26v36.27h-36.26z"/><path class="cls-5" d="M456.25 58h-2.15c-1.17 5.44-5.21 8.67-11.54 8.67-7.3 0-12.09-5.09-12.05-12 0-6.65 4.46-12.16 12.35-12.16 6.13 0 10.39 3.29 10.79 7.73h-5.77c-.43-1.89-2.22-3.29-5-3.29-4.66 0-6.91 3.32-6.88 7.62s2.58 7.46 6.68 7.46c3.13 0 5.19-1.33 6-4.07h-4.08v-4h11.67z"/><path class="cls-4" d="M171.38 109.43h36.27v36.27h-36.27z"/><path class="cls-5" d="M180.39 130.72h5.28c0 2.35 1 3.92 3 3.92s3.1-1.54 3.1-3.79v-15.08h5.25v14.76c0 5.6-3.13 8.63-8.35 8.63-5.47 0-8.28-3.55-8.28-8.44z"/><path class="cls-4" d="M207.65 109.43h36.26v36.27h-36.26z"/><path class="cls-5" d="M213.42 127.17c0-6.48 4.53-12.06 12.19-12.06s12.18 5.58 12.18 12.06-4.53 12.06-12.18 12.06-12.19-5.57-12.19-12.06zm18.86 0c0-4-2.34-7.33-6.67-7.33s-6.72 3.36-6.68 7.33 2.31 7.33 6.68 7.33 6.67-3.35 6.67-7.33z"/><path class="cls-4" d="M243.91 109.43h36.27v36.27h-36.27z"/><path class="cls-5" d="M271 132.26c0 3.91-2.77 6.32-7.3 6.32h-9.74v-22.81h9.38c4.53 0 7.34 2.25 7.34 5.93a5 5 0 0 1-4.37 5.21 5 5 0 0 1 4.69 5.35zm-11.8-12.68v5.54h2.93c2 0 3.23-1 3.23-2.77s-1.18-2.77-3.23-2.77zm6.45 12c0-1.69-1.27-2.8-3.16-2.8h-3.29v5.8h3.29a2.84 2.84 0 0 0 3.16-3.01z"/><path class="cls-6" d="M207.65 145.69h36.27v36.27h-36.27z"/><path class="cls-5" d="M223 152h5.27v22.81H223z"/><path class="cls-6" d="M243.91 145.69h36.27v36.27h-36.27z"/><path class="cls-5" d="M252.66 152h5.41l7.93 14.79V152h5v22.81h-5.41l-7.92-14.76v14.76h-5z"/><path class="cls-6" d="M280.18 145.69h36.26v36.27h-36.26z"/><path class="cls-5" d="M289.4 167.38h5.28c0 2.48 1.4 3.94 3.72 3.94 2 0 3.06-.91 3.06-2.51 0-1.4-.72-2.11-2.77-2.93l-4.11-1.59c-3.06-1.14-4.62-3.26-4.62-6.23 0-4 3.16-6.68 8.11-6.68s8.34 2.83 8.34 7.23h-5.28c0-2.11-1.11-3.29-3.16-3.29-1.72 0-2.74.88-2.74 2.25s.89 2.06 3.13 3l3.78 1.49c3.17 1.24 4.6 3.36 4.6 6.42 0 4.28-3.33 7-8.38 7-5.6.01-8.96-2.99-8.96-8.1z"/><path class="cls-6" d="M316.44 145.69h36.27v36.27h-36.27z"/><path class="cls-5" d="M327.54 152h13.95v4.24h-8.67v5.18h8.67v4.14h-8.67v5h8.67v4.23h-13.95z"/><path class="cls-6" d="M352.71 145.69h36.27v36.27h-36.27z"/><path class="cls-5" d="M358.77 163.44c0-7 4.76-12.06 12.25-12.06 6.68 0 11 3.55 11.64 8.93h-5.61c-.58-2.58-2.73-4.2-6-4.2-4.29 0-6.77 2.86-6.77 7.33s2.48 7.33 6.77 7.33c3.27 0 5.42-1.63 6-4.2h5.61c-.62 5.37-5 8.92-11.64 8.92-7.49 0-12.25-5.05-12.25-12.05z"/><path class="cls-6" d="M388.98 145.69h36.26v36.27h-36.26z"/><path class="cls-5" d="M397.71 167.12V152H403v14.76c0 2.61 1.56 4.08 3.94 4.08s4-1.47 4-4.08V152h5.27v15.09c0 5.31-3.61 8.31-9.22 8.31s-9.28-2.97-9.28-8.28z"/><path class="cls-6" d="M425.24 145.69h36.27v36.27h-36.27z"/><path class="cls-5" d="M448.43 167.61l4 7.23h-6l-3.58-6.32h-2.77v6.32h-5.28V152h9.71a8.32 8.32 0 0 1 3.91 15.58zm-8.34-3.39h3.61a4 4 0 0 0 0-7.89h-3.61z"/><path class="cls-6" d="M461.51 145.69h36.27v36.27h-36.27z"/><path class="cls-5" d="M476.81 152h5.28v22.81h-5.28z"/><path class="cls-6" d="M497.77 145.69h36.26v36.27h-36.26z"/><path class="cls-5" d="M513.07 156.72h-6.25V152h17.79v4.69h-6.29v18.12h-5.25z"/><path class="cls-6" d="M534.04 145.69h36.27v36.27h-36.27z"/><path class="cls-5" d="M562.6 152l-11.3 22.81h-5.87l4.23-8.6-8.08-14.21h6.13l4.85 9 4.21-9z"/></g></g></svg>