<svg width="162" height="122" viewBox="0 0 162 122" xmlns="http://www.w3.org/2000/svg"><title>millennial-roi</title><g fill-rule="evenodd"><path d="M83.638 63.506A2.148 2.148 0 0 1 81.5 65.66a2.148 2.148 0 0 1-2.138-2.154V24.688c0-1.188.96-2.154 2.138-2.154 1.179 0 2.138.966 2.138 2.154v38.818zM81.5 0C67.99 0 57 11.075 57 24.688v38.818c0 13.613 10.99 24.688 24.5 24.688.436 0 .908-.016 1.442-.047l.696-.04V121H106V24.688C106 11.075 95.01 0 81.5 0zM0 24.697v20.708h22.546V24.697c0-1.188.967-2.155 2.156-2.155 1.188 0 2.155.967 2.155 2.155v19.668L0 71.229V121h49.403V98.458H22.546V80.559l26.857-26.864V24.697C49.403 11.08 38.323 0 24.702 0S0 11.08 0 24.697z"/><g transform="translate(113 4)"><path d="M29.81 0L8.165 62h11.228L41.04 0z"/><ellipse cx="8.965" cy="21" rx="8.965" ry="9"/><ellipse cx="40.035" cy="43.4" rx="8.965" ry="9"/></g><circle cx="66" cy="116" r="6"/></g></svg>