<svg width="209" height="129" viewBox="0 0 209 129" xmlns="http://www.w3.org/2000/svg"><title>millennial-hours</title><path d="M186.638 63.506a2.148 2.148 0 0 1-2.138 2.154 2.148 2.148 0 0 1-2.138-2.154V24.688c0-1.188.96-2.154 2.138-2.154 1.179 0 2.138.966 2.138 2.154v38.818zM184.5 0C170.99 0 160 11.075 160 24.688v38.818c0 13.613 10.99 24.688 24.5 24.688.436 0 .908-.016 1.442-.047l.696-.04V121H209V24.688C209 11.075 198.01 0 184.5 0zm-49.862 64v35.507a2.14 2.14 0 0 1-2.138 2.137 2.14 2.14 0 0 1-2.138-2.137v-33.37H108v33.37C108 113.012 118.99 124 132.5 124S157 113.012 157 99.507V64c0-13.505-10.99-24.493-24.5-24.493-.438 0-.911.013-1.447.04l-.69.034V26.356H157V4h-49v57.863h24.5A2.14 2.14 0 0 1 134.638 64m-108-60v47.326h-4.276V4H0v69.674h26.638V121H49V4zM59 115h7.689v7.736H59zm2.46 13.66l.58-5.832 4.753-.001zM80.638 4v47.326h-4.276V4H54v69.674h26.638V121H103V4z" fill-rule="evenodd"/></svg>