<svg width="202" height="214" viewBox="0 0 202 214" xmlns="http://www.w3.org/2000/svg"><title>skull and crossbones@2x</title><g fill="#010101" fill-rule="evenodd"><path d="M67 102h8v15h-8zm61 0h8v15h-8zm-61 15h69v8H67zm8-106h53v8H75z"/><path d="M60 18h23v8H60zm-8 8h16v8H52zm7 68h16v8H59zm-7-60h8v15h-8z"/><path d="M52 87h8v15h-8zm-27 22h10v20H25zm142 0h10v20h-10zM15 119h10v10H15zm41 71h10v10H56zm80 0h10v10h-10zm41-71h10v10h-10zM35 129h21v10H35zm21 10h20v10H56zm20 10h20v10H76zm0 20h20v11H76zm-30 11h30v10H46zm80 0h30v10h-30zm-20-31h20v10h-20zm0 20h20v11h-20zm20-30h20v10h-20zm20-10h21v10h-21zm-60 30h30v10H86zm57-72h8v15h-8z"/><path d="M45 41h8v54h-8zm105 0h8v54h-8z"/><path d="M143 34h8v15h-8zM83 56h8v17h-8zm29 0h8v17h-8zM98 72h8v8h-8zm-16 38h8v8h-8zm15 0h8v8h-8zm15 0h8v8h-8zM60 56h23v24H60zm30 24h23v15H90zm30-24h23v24h-23zm15-30h16v8h-16zm-7 68h16v8h-16zm-8-76h23v8h-23z"/></g></svg>