<svg width="209" height="176" viewBox="0 0 209 176" xmlns="http://www.w3.org/2000/svg" xmlns:xlink="http://www.w3.org/1999/xlink"><title>Group 6</title><defs><path id="a" d="M71.969 0v175.27H.449V0z"/></defs><g fill="none" fill-rule="evenodd"><g transform="translate(148)" fill="#000"><path d="M37.111 0L10.163 78h13.978L51.09 0z"/><ellipse cx="11.16" cy="26.419" rx="11.16" ry="11.html"/><ellipse cx="49.84" cy="54.6" rx="11.16" ry="11.html"/></g><mask id="b" fill="#fff"><use xlink:href="#a"/></mask><path d="M39.329 87.635v51.86c0 1.722-1.4 3.122-3.12 3.122-1.72 0-3.12-1.4-3.12-3.121v-48.74H.449v48.74c0 19.726 16.042 35.774 35.76 35.774 19.718 0 35.76-16.048 35.76-35.774v-51.86c0-19.727-16.042-35.775-35.76-35.775-.64 0-1.33.018-2.112.057l-1.008.051V32.653h38.88V0H.449v84.514h35.76c1.72 0 3.12 1.4 3.12 3.121" fill="#000" mask="url(#b)"/><path d="M113 96c1.654 0 3 1.391 3 3.102v40.796c0 1.71-1.346 3.102-3 3.102s-3-1.391-3-3.102V99.102c0-1.71 1.346-3.102 3-3.102zm36-84.408L148.941 0h-37.745L77 34.153v105.924C77 159.885 93.135 176 112.968 176c19.833 0 35.968-16.115 35.968-35.923V98.849c0-19.808-16.135-35.923-35.968-35.923-.657 0-1.35.022-2.115.067l-1.023.06v-12.34L149 11.593z" fill="#000"/></g></svg>