<svg xmlns="http://www.w3.org/2000/svg" viewBox="0 0 618.97 273.88"><defs><style>.cls-1{fill:#231f20}</style></defs><title>Asset 1</title><g id="Layer_2" data-name="Layer 2"><path class="cls-1" d="M133.31 21h4.83V4.32h5.79V0h-16.38v4.32h5.76V21zm22.08-14.85a4.91 4.91 0 0 0-4.68 2.49V0h-4.59v21h4.59v-7.56c0-2.22 1-3.42 2.79-3.42s2.55 1.11 2.55 3.54V21h4.62v-8.94c0-3.93-1.77-5.91-5.28-5.91zM178.7 13a15.67 15.67 0 0 1-.12 2H167.9c.09 1.89 1.35 3 3.39 3q2.11 0 2.7-1.35h4.5c-.45 2.85-3.36 4.8-7.2 4.8-4.92 0-7.95-2.85-7.95-7.68s3.09-7.65 7.8-7.65c4.5 0 7.56 2.82 7.56 6.88zm-10.8-.84h6.27a2.76 2.76 0 0 0-3.06-3 2.94 2.94 0 0 0-3.21 3.02zm23.37-5.64v7.17c0 2.22-.93 3.66-2.79 3.66s-2.55-1.26-2.55-3.12V6.54h-4.59v8.4c0 3.6 1.65 6.06 5.34 6.06a4.84 4.84 0 0 0 4.59-2.4v2.25c0 2.25-1.11 3.24-2.79 3.24s-2.43-.72-2.52-1.95h-4.62a5.14 5.14 0 0 0 1.8 3.81 8 8 0 0 0 5.34 1.5 7.57 7.57 0 0 0 5.31-1.68 6.83 6.83 0 0 0 2.07-5.22v-14zM210.05 21l-5.22-14.46h4.8l2.61 8.76 2.46-8.76h4.47l2.46 8.76 2.61-8.76H229L223.82 21h-4.11l-2.79-8.79-2.76 8.79zm34.14-8a15.67 15.67 0 0 1-.12 2h-10.68c.09 1.89 1.35 3 3.39 3q2.11 0 2.7-1.35H244c-.45 2.85-3.36 4.8-7.2 4.8-4.92 0-7.95-2.85-7.95-7.68s3.09-7.65 7.8-7.65c4.48 0 7.54 2.82 7.54 6.88zm-10.8-.84h6.27a2.76 2.76 0 0 0-3.06-3 2.94 2.94 0 0 0-3.21 3.02zm13 8.82H251v-5.56c0-3.48 1.56-4.83 3.81-4.83a10.32 10.32 0 0 1 1.38.09V6.42A4.48 4.48 0 0 0 255 6.3a4 4 0 0 0-4 3.27v-3h-4.59zm25.92-8a15.67 15.67 0 0 1-.12 2H261.5c.09 1.89 1.35 3 3.39 3q2.12 0 2.7-1.35h4.5c-.45 2.85-3.36 4.8-7.2 4.8-4.92 0-7.95-2.85-7.95-7.68s3.09-7.65 7.8-7.65c4.5 0 7.56 2.82 7.56 6.9zm-10.8-.84h6.27a2.76 2.76 0 0 0-3.06-3 2.94 2.94 0 0 0-3.22 3.04zM284.88 21h12.66v-4.32h-7.8V0h-4.86v21zm38.46-8a15.67 15.67 0 0 1-.12 2h-10.68c.09 1.89 1.35 3 3.39 3q2.11 0 2.7-1.35h4.5c-.45 2.85-3.36 4.8-7.2 4.8-4.92 0-7.95-2.85-7.95-7.68s3.09-7.65 7.8-7.65c4.5 0 7.56 2.82 7.56 6.88zm-10.8-.84h6.27a2.76 2.76 0 0 0-3.06-3 2.94 2.94 0 0 0-3.21 3.02zm33.66-5.62h4.59V20c0 2.85-1 4.92-2.79 6.15a8.86 8.86 0 0 1-5.16 1.29 10 10 0 0 1-5.22-1.17 5.21 5.21 0 0 1-2.58-4h4.68c.21 1.14 1.2 1.83 3.06 1.83 2.13 0 3.42-.93 3.42-3.51v-1.93a5.1 5.1 0 0 1-4.53 2.34c-4.29 0-6.87-3.12-6.87-7.38s2.76-7.47 6.93-7.47a4.86 4.86 0 0 1 4.47 2.46zm-3.27 10.92a3.47 3.47 0 0 0 3.48-3.78 3.47 3.47 0 0 0-3.48-3.78c-2.07 0-3.42 1.59-3.42 3.78s1.35 3.78 3.42 3.78zm27.69 4c-5 0-8-3.27-8-7.68s3.06-7.65 8-7.65 8 3.24 8 7.65-3.05 7.67-8 7.67zm0-3.9c2.16 0 3.45-1.59 3.45-3.78S372.78 10 370.62 10s-3.45 1.59-3.45 3.78 1.26 3.77 3.45 3.77zm33.84 3.9c4.32 0 7.14-2.31 7.5-5.82h-4.59c-.33 1.26-1.2 1.92-2.88 1.92-2 0-3.18-1.38-3.18-3.78s1.2-3.78 3.18-3.78c1.68 0 2.55.69 2.88 2H412c-.36-3.6-3.18-5.91-7.5-5.91-4.77 0-7.74 3.09-7.74 7.65s2.93 7.71 7.7 7.71zm25.77-.06c-4.32 0-6.81-3.27-6.81-7.62s2.67-7.62 6.87-7.62a5 5 0 0 1 4.53 2.46V6.54h4.56V21h-4.56v-2a5.2 5.2 0 0 1-4.59 2.39zm1.32-3.81c2.28 0 3.45-1.71 3.45-3.81S433.83 10 431.55 10s-3.45 1.59-3.45 3.78 1.32 3.8 3.45 3.8zm26.58 3.87c4 0 6.33-2 6.33-5 0-2.07-1.44-3.42-3.66-4l-3.42-.93c-.78-.21-1.23-.63-1.23-1.29S456.81 9 457.8 9c1.23 0 2 .57 2 1.59h4.53c0-2.73-2.22-4.5-6.45-4.5-3.81 0-6.18 1.89-6.18 4.59 0 2.07 1.23 3.57 3.63 4.17l3.54.9a1.18 1.18 0 0 1 1 1.23c0 .84-.69 1.35-1.68 1.35-1.41 0-2.37-.72-2.37-1.71h-4.56c0 2.73 2.61 4.8 6.84 4.8zm25.5-4c-1.14 0-2-.33-2-2.46v-4.8h3.27V6.54h-3.27V2.25H477v4.29h-2.28v3.63H477v5.76c0 4.83 3 5.31 5.13 5.31a17.91 17.91 0 0 0 3.06-.24v-3.66a12.32 12.32 0 0 1-1.59.09zM497 21h4.59V0H497zm31.74-8a15.67 15.67 0 0 1-.12 2H518c.09 1.89 1.35 3 3.39 3q2.11 0 2.7-1.35h4.5c-.45 2.85-3.36 4.8-7.2 4.8-4.92 0-8-2.85-8-7.68s3.09-7.65 7.8-7.65c4.5 0 7.56 2.82 7.56 6.88zM518 12.18h6.27a2.76 2.76 0 0 0-3.06-3 2.94 2.94 0 0 0-3.21 3zm28.5 9.27c4 0 6.33-2 6.33-5 0-2.07-1.44-3.42-3.66-4l-3.42-.93c-.78-.21-1.23-.63-1.23-1.29s.66-1.2 1.65-1.2c1.23 0 2 .57 2 1.59h4.53c0-2.73-2.22-4.5-6.45-4.5-3.88 0-6.25 1.88-6.25 4.59 0 2.07 1.23 3.57 3.63 4.17l3.54.9a1.18 1.18 0 0 1 1.05 1.22c0 .84-.69 1.35-1.68 1.35-1.41 0-2.37-.72-2.37-1.71h-4.56c0 2.73 2.61 4.8 6.84 4.8zm18.21 3.75c3.36 0 5.19-2 5.19-5.46 0-2.91-1.68-4.23-3.42-4.23a2.85 2.85 0 0 0-3 2.88 2.72 2.72 0 0 0 2.79 2.88 1.88 1.88 0 0 0 1.44-.51 3.05 3.05 0 0 1-.78 1.86 2.74 2.74 0 0 1-2.07.81 8.83 8.83 0 0 1-1.32-.09v1.77a7 7 0 0 0 1.14.09zM162.57 56.45c4.32 0 7.14-2.31 7.5-5.82h-4.59c-.33 1.26-1.2 1.92-2.88 1.92-2 0-3.18-1.38-3.18-3.78s1.2-3.77 3.18-3.77c1.68 0 2.55.69 2.88 2h4.59c-.36-3.6-3.18-5.91-7.5-5.91-4.77 0-7.74 3.09-7.74 7.65s2.97 7.71 7.74 7.71zm10.19-.45h4.59V35h-4.59zm13.61.39a4.73 4.73 0 0 0 4.5-2.46V56h4.56V41.54h-4.56v7.77c0 1.95-.84 3.21-2.79 3.21-1.74 0-2.4-1.08-2.4-3.06v-7.92H181v8.94c0 3.75 1.86 5.91 5.34 5.91zm18.71.06c4 0 6.33-2 6.33-5 0-2.07-1.44-3.42-3.66-4l-3.42-.93c-.78-.21-1.23-.63-1.23-1.29s.66-1.2 1.65-1.2c1.23 0 2 .57 2 1.59h4.53c0-2.73-2.22-4.5-6.45-4.5-3.81 0-6.18 1.89-6.18 4.59 0 2.07 1.23 3.57 3.63 4.17l3.54.9a1.18 1.18 0 0 1 1 1.23c0 .84-.69 1.35-1.68 1.35-1.41 0-2.37-.72-2.37-1.71h-4.56c0 2.73 2.61 4.8 6.84 4.8zm16.4-4c-1.14 0-2-.33-2-2.46v-4.8h3.27v-3.65h-3.27v-4.29h-4.59v4.29h-2.29v3.63h2.28v5.76c0 4.83 3 5.31 5.13 5.31a17.91 17.91 0 0 0 3.06-.24v-3.66a12.32 12.32 0 0 1-1.59.09zM240 48a15.67 15.67 0 0 1-.12 2h-10.7c.09 1.89 1.35 3 3.39 3q2.12 0 2.7-1.35h4.5c-.45 2.85-3.36 4.8-7.2 4.8-4.92 0-7.95-2.85-7.95-7.68s3.09-7.65 7.8-7.65c4.5 0 7.58 2.82 7.58 6.88zm-10.8-.84h6.27a2.76 2.76 0 0 0-3.06-3 2.94 2.94 0 0 0-3.23 3.02zM242.67 56h4.59v-5.58c0-3.48 1.56-4.83 3.81-4.83a10.32 10.32 0 0 1 1.38.09v-4.26a4.48 4.48 0 0 0-1.2-.12 4 4 0 0 0-4 3.27v-3h-4.59zm17.66.45c4 0 6.33-2 6.33-5 0-2.07-1.44-3.42-3.66-4l-3.42-.93c-.78-.21-1.23-.63-1.23-1.29S259 44 260 44c1.23 0 2 .57 2 1.59h4.53c0-2.73-2.22-4.5-6.45-4.5-3.81 0-6.18 1.89-6.18 4.59 0 2.07 1.23 3.57 3.63 4.17l3.54.9A1.18 1.18 0 0 1 262.1 52c0 .84-.69 1.35-1.68 1.35-1.41 0-2.37-.72-2.37-1.71h-4.56c0 2.73 2.61 4.8 6.84 4.8zm23.23 0c-5 0-8-3.27-8-7.68s3.06-7.65 8-7.65 8 3.24 8 7.65-3.05 7.68-8 7.68zm0-3.9c2.16 0 3.45-1.59 3.45-3.78S285.72 45 283.56 45s-3.45 1.59-3.45 3.78 1.26 3.77 3.45 3.77zm18.11-14.31c.42 0 .78.06 1.26.09v-3.27a8.82 8.82 0 0 0-2.64-.33c-2.16 0-5.31 1-5.31 5.4v1.41h-2.58v3.63h2.6V56h4.59V45.17h3.36v-3.63h-3.36v-1.47c0-1.59 1.11-1.83 2.1-1.83zM8.88 162.43c-1.14 0-2-.33-2-2.46v-4.8h3.27v-3.63H6.87v-4.29H2.28v4.29H0v3.63h2.28v5.76c0 4.83 3 5.31 5.13 5.31a17.91 17.91 0 0 0 3.06-.24v-3.66a12.32 12.32 0 0 1-1.59.09zm13.65-11.28a4.91 4.91 0 0 0-4.68 2.49V145h-4.59v21h4.59v-7.56c0-2.22 1-3.42 2.79-3.42s2.55 1.11 2.55 3.54V166h4.62v-8.94c0-3.93-1.81-5.91-5.28-5.91zm14.85 15.24c-4.32 0-6.81-3.27-6.81-7.62s2.67-7.62 6.87-7.62a5 5 0 0 1 4.56 2.46v-2.07h4.56V166H42v-2a5.2 5.2 0 0 1-4.62 2.39zm1.32-3.81c2.28 0 3.45-1.71 3.45-3.81S41 155 38.7 155s-3.45 1.59-3.45 3.78 1.32 3.8 3.45 3.8zm19.38-.15c-1.14 0-2-.33-2-2.46v-4.8h3.27v-3.63h-3.28v-4.29h-4.59v4.29H49.2v3.63h2.28v5.76c0 4.83 3 5.31 5.13 5.31a17.91 17.91 0 0 0 3.06-.24v-3.66a12.32 12.32 0 0 1-1.59.09zm19.32 4c4.32 0 7.14-2.31 7.5-5.82h-4.59c-.33 1.26-1.2 1.92-2.88 1.92-2 0-3.18-1.38-3.18-3.78s1.2-3.78 3.18-3.78c1.68 0 2.55.69 2.88 2h4.59c-.36-3.6-3.18-5.91-7.5-5.91-4.77 0-7.74 3.09-7.74 7.65s3 7.68 7.74 7.68zm18.21 0c-5 0-8-3.27-8-7.68s3.06-7.65 8-7.65 8 3.24 8 7.65-3.05 7.7-8 7.7zm0-3.9c2.16 0 3.45-1.59 3.45-3.78S97.77 155 95.61 155s-3.45 1.59-3.45 3.78 1.26 3.77 3.45 3.77zm16 3.84a4.73 4.73 0 0 0 4.5-2.46V166h4.56v-14.46h-4.57v7.77c0 1.95-.84 3.21-2.79 3.21-1.74 0-2.4-1.08-2.4-3.06v-7.92h-4.65v8.94c0 3.75 1.86 5.91 5.34 5.91zm13-.39h4.59V145h-4.59zm18.84-21h4.59v21h-4.56v-2a5.2 5.2 0 0 1-4.59 2.43c-4.32 0-6.81-3.27-6.81-7.62s2.67-7.62 6.87-7.62a5 5 0 0 1 4.53 2.46V145zm-3.24 17.58c2.28 0 3.45-1.71 3.45-3.81s-1.16-3.75-3.44-3.75c-2.13 0-3.45 1.59-3.45 3.78s1.32 3.8 3.45 3.8zm29.53-11.43c4 0 6.66 3.06 6.66 7.62s-2.79 7.62-6.78 7.62A5.17 5.17 0 0 1 165 164v2h-4.59v-21H165v8.64a5.34 5.34 0 0 1 4.71-2.46zm-1.44 11.43c2 0 3.42-1.56 3.42-3.81a3.47 3.47 0 1 0-3.42 3.81zm25.42-4.56a15.67 15.67 0 0 1-.12 2h-10.68c.09 1.89 1.35 3 3.39 3q2.12 0 2.7-1.35h4.5c-.45 2.85-3.36 4.8-7.2 4.8-4.92 0-7.95-2.85-7.95-7.68s3.09-7.65 7.8-7.65c4.5 0 7.56 2.82 7.56 6.88zm-10.8-.84h6.27a2.76 2.76 0 0 0-3.06-3 2.94 2.94 0 0 0-3.21 3.02zm35.56 9.27c4 0 6.33-2 6.33-5 0-2.07-1.44-3.42-3.66-4l-3.42-.93c-.78-.21-1.23-.63-1.23-1.29s.66-1.2 1.65-1.2c1.23 0 2 .57 2 1.59h4.53c0-2.73-2.22-4.5-6.45-4.5-3.81 0-6.18 1.89-6.18 4.59 0 2.07 1.23 3.57 3.63 4.17l3.54.9a1.18 1.18 0 0 1 1.05 1.23c0 .84-.69 1.35-1.68 1.35-1.41 0-2.37-.72-2.37-1.71h-4.56c0 2.73 2.61 4.8 6.84 4.8zm33.33-8.43a15.67 15.67 0 0 1-.12 2H241c.09 1.89 1.35 3 3.39 3q2.11 0 2.7-1.35h4.5c-.45 2.85-3.36 4.8-7.2 4.8-4.92 0-8-2.85-8-7.68s3.09-7.65 7.8-7.65c4.56 0 7.62 2.82 7.62 6.88zm-10.8-.84h6.27a2.76 2.76 0 0 0-3.06-3 2.94 2.94 0 0 0-3.22 3.02zm32.49-6c4 0 6.66 3.06 6.66 7.62s-2.79 7.62-6.78 7.62a5.17 5.17 0 0 1-4.59-2.43v8h-4.59v-20.43h4.59v2.07a5.34 5.34 0 0 1 4.71-2.46zm-1.44 11.43c2 0 3.42-1.56 3.42-3.81a3.47 3.47 0 1 0-3.42 3.81zm26.55 3.81c-4.32 0-6.81-3.27-6.81-7.62s2.67-7.62 6.87-7.62a5 5 0 0 1 4.53 2.46v-2.07h4.56V166h-4.56v-2a5.2 5.2 0 0 1-4.59 2.43zm1.32-3.81c2.28 0 3.45-1.71 3.45-3.81s-1.17-3.78-3.45-3.78-3.45 1.59-3.45 3.78 1.32 3.8 3.45 3.8zm21.39 3.41h4.59v-5.58c0-3.48 1.56-4.83 3.81-4.83a10.32 10.32 0 0 1 1.38.09v-4.26a4.48 4.48 0 0 0-1.2-.12 4 4 0 0 0-4 3.27v-3h-4.59V166zm27 .39c-4.32 0-6.81-3.27-6.81-7.62s2.67-7.62 6.87-7.62a5 5 0 0 1 4.53 2.46v-2.07h4.56V166h-4.56v-2a5.2 5.2 0 0 1-4.59 2.43zm1.32-3.81c2.28 0 3.45-1.71 3.45-3.81s-1.17-3.78-3.45-3.78-3.45 1.59-3.45 3.78 1.29 3.81 3.42 3.81zm29-.15c-1.14 0-2-.33-2-2.46v-4.8h3.27v-3.63h-3.27v-4.29H372v4.29h-2.28v3.63H372v5.76c0 4.83 3 5.31 5.13 5.31a17.91 17.91 0 0 0 3.06-.24v-3.66a12.32 12.32 0 0 1-1.59.09zm28.2-4.41a15.67 15.67 0 0 1-.12 2H396c.09 1.89 1.35 3 3.39 3q2.12 0 2.7-1.35h4.5c-.45 2.85-3.36 4.8-7.2 4.8-4.92 0-7.95-2.85-7.95-7.68s3.09-7.65 7.8-7.65c4.49-.02 7.55 2.8 7.55 6.86zm-10.8-.84h6.27a2.76 2.76 0 0 0-3.06-3 2.94 2.94 0 0 0-3.25 3zM430.22 145h4.59v21h-4.56v-2a5.2 5.2 0 0 1-4.59 2.43c-4.32 0-6.81-3.27-6.81-7.62s2.67-7.62 6.87-7.62a5 5 0 0 1 4.53 2.46v-1.23zM427 162.58c2.28 0 3.45-1.71 3.45-3.81S429.26 155 427 155s-3.45 1.59-3.45 3.78 1.3 3.8 3.45 3.8zm22.29 7.62c3.36 0 5.19-2 5.19-5.46 0-2.91-1.68-4.23-3.42-4.23a2.85 2.85 0 0 0-3 2.88 2.72 2.72 0 0 0 2.79 2.88 1.88 1.88 0 0 0 1.44-.51 3.05 3.05 0 0 1-.78 1.86 2.74 2.74 0 0 1-2.07.81 8.83 8.83 0 0 1-1.32-.09v1.77a7 7 0 0 0 1.14.09zM181 215.23c-5 0-8-3.27-8-7.68s3.06-7.65 8-7.65 8 3.24 8 7.65-3.06 7.68-8 7.68zm0-3.9c2.16 0 3.45-1.59 3.45-3.78s-1.29-3.78-3.45-3.78-3.45 1.59-3.45 3.78 1.25 3.78 3.45 3.78zm20-11.4c4 0 6.66 3.06 6.66 7.62s-2.79 7.62-6.78 7.62a5.17 5.17 0 0 1-4.59-2.43v8h-4.59v-20.42h4.59v2.07a5.34 5.34 0 0 1 4.71-2.46zm-1.44 11.43c2 0 3.42-1.56 3.42-3.81a3.47 3.47 0 1 0-3.42 3.81zm18.38-.15c-1.14 0-2-.33-2-2.46V204h3.27v-3.63h-3.27V196h-4.59v4.29h-2.28V204h2.28v5.76c0 4.83 3 5.31 5.13 5.31a17.91 17.91 0 0 0 3.06-.24v-3.66a12.32 12.32 0 0 1-1.59.09zm6.58-12.21a2.81 2.81 0 1 0-2.82-2.79 2.78 2.78 0 0 0 2.82 2.79zm-2.31 15.75h4.59v-14.43h-4.59zm8.42 0h4.59v-7.44c0-2.73 1-3.54 2.46-3.54s2.13.81 2.13 2.82v8.16h4.62v-7.44c0-2.73 1-3.54 2.43-3.54s2.16.84 2.16 2.85v8.13h4.62v-9c0-3-1-5.88-5.13-5.88a5.05 5.05 0 0 0-4.62 2.67c-.63-1.53-1.95-2.67-4.53-2.67a4.35 4.35 0 0 0-4.14 2.49v-2.1h-4.59v14.46zm29-15.75a2.81 2.81 0 1 0-2.82-2.79 2.78 2.78 0 0 0 2.82 2.79zm-2.31 15.75h4.59v-14.43h-4.59zm6.68 0l7.11-10.65h-6.42v-3.81h13.38l-7 10.68h6.45v3.78zm29.36-8a15.67 15.67 0 0 1-.12 2h-10.68c.09 1.89 1.35 3 3.39 3q2.12 0 2.7-1.35h4.5c-.45 2.85-3.36 4.8-7.2 4.8-4.92 0-7.95-2.85-7.95-7.68s3.09-7.65 7.8-7.65c4.5.03 7.56 2.85 7.56 6.93zm-10.8-.84h6.27a2.76 2.76 0 0 0-3.06-3 2.94 2.94 0 0 0-3.21 3.09zm24.53-12.18h4.59v21h-4.56v-2a5.2 5.2 0 0 1-4.59 2.43c-4.32 0-6.81-3.27-6.81-7.62s2.67-7.62 6.87-7.62a5 5 0 0 1 4.53 2.46v-1.23zm-3.24 17.58c2.28 0 3.45-1.71 3.45-3.81s-1.17-3.78-3.45-3.78-3.45 1.59-3.45 3.78 1.32 3.86 3.45 3.86zm12.59 7.69c3.36 0 5.19-2 5.19-5.46 0-2.91-1.68-4.23-3.42-4.23a2.85 2.85 0 0 0-3 2.88 2.72 2.72 0 0 0 2.79 2.88 1.88 1.88 0 0 0 1.44-.51 3 3 0 0 1-.78 1.85 2.71 2.71 0 0 1-2.07.81 8.83 8.83 0 0 1-1.32-.09v1.77a7 7 0 0 0 1.14.09zm24.91-3.75c4 0 6.33-2 6.33-5 0-2.07-1.44-3.42-3.66-4l-3.42-.93c-.78-.21-1.23-.63-1.23-1.29s.66-1.2 1.65-1.2c1.23 0 2 .57 2 1.59h4.53c0-2.73-2.22-4.5-6.45-4.5-3.81 0-6.18 1.89-6.18 4.59 0 2.07 1.23 3.57 3.63 4.17l3.54.9a1.18 1.18 0 0 1 1.05 1.23c0 .84-.69 1.35-1.68 1.35-1.41 0-2.37-.72-2.37-1.71h-4.56c0 2.73 2.61 4.8 6.84 4.8zm19.17 0c-5 0-8-3.27-8-7.68s3.06-7.65 8-7.65 8 3.24 8 7.65-3.05 7.66-8 7.66zm0-3.9c2.16 0 3.45-1.59 3.45-3.78s-1.29-3.78-3.45-3.78-3.45 1.59-3.45 3.78 1.26 3.76 3.45 3.76zm13.65 3.45h4.59v-21h-4.59zm21.69-21h4.59v21h-4.56v-2a5.2 5.2 0 0 1-4.59 2.43c-4.32 0-6.81-3.27-6.81-7.62s2.67-7.62 6.87-7.62a5 5 0 0 1 4.53 2.46v-1.23zm-3.24 17.58c2.28 0 3.45-1.71 3.45-3.81s-1.17-3.78-3.45-3.78-3.45 1.59-3.45 3.78 1.32 3.79 3.45 3.79zm31.83 3.87c-5 0-8-3.27-8-7.68s3.06-7.65 8-7.65 8 3.24 8 7.65-3.05 7.66-8 7.66zm0-3.9c2.16 0 3.45-1.59 3.45-3.78s-1.29-3.78-3.45-3.78-3.45 1.59-3.45 3.78 1.26 3.76 3.45 3.76zM446 197c.42 0 .78.06 1.26.09v-3.27a8.82 8.82 0 0 0-2.64-.33c-2.16 0-5.31 1-5.31 5.39v1.42h-2.58v3.7h2.58v10.82h4.59v-10.88h3.36v-3.63h-3.36v-1.47c0-1.59 1.11-1.83 2.1-1.83zm15.19 0c.42 0 .78.06 1.26.09v-3.27a8.82 8.82 0 0 0-2.64-.33c-2.16 0-5.31 1-5.31 5.39v1.42h-2.58v3.7h2.58v10.82h4.5v-10.88h3.36v-3.63H459v-1.47c0-1.59 1.11-1.83 2.1-1.83zm21.34 18.15c-4.32 0-6.81-3.27-6.81-7.62s2.67-7.62 6.87-7.62a5 5 0 0 1 4.53 2.46v-2.07h4.56v14.46h-4.56v-2a5.2 5.2 0 0 1-4.64 2.41zm1.32-3.81c2.28 0 3.45-1.71 3.45-3.81s-1.17-3.78-3.45-3.78-3.45 1.59-3.45 3.78 1.27 3.83 3.4 3.83zm14.69 3.42h4.59v-7.56c0-2.22 1-3.42 2.79-3.42s2.55 1.11 2.55 3.54v7.44H513v-8.94c0-3.93-1.77-5.91-5.28-5.91a4.91 4.91 0 0 0-4.68 2.49v-2.1h-4.59v14.46zm31.58-21h4.59v21h-4.61v-2a5.2 5.2 0 0 1-4.59 2.43c-4.32 0-6.81-3.27-6.81-7.62s2.67-7.62 6.87-7.62a5 5 0 0 1 4.53 2.46v-1.23zm-3.24 17.58c2.28 0 3.45-1.71 3.45-3.81s-1.17-3.78-3.45-3.78-3.45 1.59-3.45 3.78 1.27 3.83 3.4 3.83zm31.33-11.43c4 0 6.66 3.06 6.66 7.62s-2.79 7.62-6.78 7.62a5.17 5.17 0 0 1-4.59-2.43v8h-4.59v-20.4h4.59v2.07a5.34 5.34 0 0 1 4.71-2.46zm-1.44 11.43c2 0 3.42-1.56 3.42-3.81a3.47 3.47 0 1 0-3.42 3.81zm15.85 3.81a4.73 4.73 0 0 0 4.5-2.46v2.07h4.56v-14.44h-4.56v7.77c0 1.95-.84 3.21-2.79 3.21-1.74 0-2.4-1.08-2.4-3.06v-7.92h-4.65v8.94c-.05 3.74 1.81 5.91 5.29 5.91zm20.26-4c-1.14 0-2-.33-2-2.46V204h3.27v-3.63h-3.27V196h-4.59v4.29H584V204h2.28v5.76c0 4.83 3 5.31 5.13 5.31a17.91 17.91 0 0 0 3.06-.24v-3.66a12.32 12.32 0 0 1-1.59.09zM85.24 252.58c4 0 6.66 3.06 6.66 7.62s-2.79 7.62-6.78 7.62a5.17 5.17 0 0 1-4.59-2.43v2h-4.59v-21h4.59V255a5.34 5.34 0 0 1 4.71-2.46zM83.8 264c2 0 3.42-1.56 3.42-3.81A3.47 3.47 0 1 0 83.8 264zm17 3.81c-4.32 0-6.81-3.27-6.81-7.62s2.67-7.62 6.87-7.62a5 5 0 0 1 4.53 2.46V253h4.56v14.46h-4.56v-2a5.2 5.2 0 0 1-4.59 2.43zm1.32-3.81c2.28 0 3.45-1.71 3.45-3.81s-1.17-3.78-3.45-3.78c-2.13 0-3.45 1.59-3.45 3.78s1.27 3.81 3.4 3.81zm18.39 3.87c4.32 0 7.14-2.31 7.5-5.82h-4.59c-.33 1.26-1.2 1.92-2.88 1.92-2 0-3.18-1.38-3.18-3.78s1.2-3.78 3.18-3.78c1.68 0 2.55.69 2.88 2H128c-.36-3.6-3.18-5.91-7.5-5.91-4.77 0-7.74 3.09-7.74 7.65s2.93 7.73 7.7 7.73zm25.08-.45l-5.85-7.62 5.76-6.84h-5.4l-4.71 6v-12.53h-4.59v21h4.59v-6.27l4.59 6.27zm17.67-3.57c-1.14 0-2-.33-2-2.46v-4.8h3.27V253h-3.33v-4.29h-4.59V253h-2.28v3.63h2.28v5.76c0 4.83 3 5.31 5.13 5.31a17.91 17.91 0 0 0 3.06-.24v-3.66a12.32 12.32 0 0 1-1.59.09zm11.28 4c-5 0-8-3.27-8-7.68s3.06-7.65 8-7.65 8 3.24 8 7.65-3.1 7.71-8.05 7.71zm0-3.9c2.16 0 3.45-1.59 3.45-3.78s-1.29-3.78-3.45-3.78S171 258 171 260.2s1.3 3.8 3.49 3.8zm21.87-11H201v13.47c0 2.85-1 4.92-2.79 6.15a8.86 8.86 0 0 1-5.16 1.29 10 10 0 0 1-5.22-1.17 5.21 5.21 0 0 1-2.58-4h4.68c.21 1.14 1.2 1.83 3.06 1.83 2.13 0 3.42-.93 3.42-3.51v-1.92a5.1 5.1 0 0 1-4.53 2.34c-4.29 0-6.87-3.12-6.87-7.38s2.76-7.47 6.93-7.47a4.86 4.86 0 0 1 4.47 2.46V253zm-3.27 10.92a3.79 3.79 0 0 0 0-7.56c-2.07 0-3.42 1.59-3.42 3.78s1.28 3.8 3.37 3.8zm26-4.44a15.67 15.67 0 0 1-.12 2H208.3c.09 1.89 1.35 3 3.39 3q2.12 0 2.7-1.35h4.5c-.45 2.85-3.36 4.8-7.2 4.8-4.92 0-7.95-2.85-7.95-7.68s3.09-7.65 7.8-7.65c4.5 0 7.56 2.82 7.56 6.9zm-10.8-.84h6.27a2.76 2.76 0 0 0-3.06-3 2.94 2.94 0 0 0-3.25 3.02zm21.06 5.25c-1.14 0-2-.33-2-2.46v-4.8h3.27V253h-3.27v-4.29h-4.59V253h-2.28v3.63h2.28v5.76c0 4.83 3 5.31 5.13 5.31a17.91 17.91 0 0 0 3.06-.24v-3.66a12.32 12.32 0 0 1-1.59.09zm13.6-11.26a4.91 4.91 0 0 0-4.68 2.49v-8.64h-4.59v21h4.59v-7.56c0-2.22 1-3.42 2.79-3.42s2.55 1.11 2.55 3.54v7.44h4.62v-8.94c0-3.93-1.77-5.91-5.28-5.91zm23.31 6.87a15.67 15.67 0 0 1-.12 2h-10.67c.09 1.89 1.35 3 3.39 3q2.11 0 2.7-1.35h4.5c-.45 2.85-3.36 4.8-7.2 4.8-4.92 0-8-2.85-8-7.68s3.09-7.65 7.8-7.65c4.55-.02 7.61 2.8 7.61 6.88zm-10.8-.84h6.27a2.76 2.76 0 0 0-3.06-3 2.94 2.94 0 0 0-3.2 3zm13.59 8.82V253h4.59v3a4 4 0 0 1 4-3.27 4.48 4.48 0 0 1 1.2.12v4.26a10.32 10.32 0 0 0-1.38-.09c-2.25 0-3.81 1.35-3.81 4.83v5.58zm11 .3a2.94 2.94 0 1 1 3-2.94 3 3 0 0 1-3.01 2.94zM368 71.45h2V81h-2v-.93a2.37 2.37 0 0 1-2.09 1.11c-2 0-3.1-1.49-3.1-3.47a3.17 3.17 0 0 1 3.13-3.46 2.26 2.26 0 0 1 2.06 1.12v-.56zm-1.47 8a1.73 1.73 0 1 0-1.57-1.73 1.57 1.57 0 0 0 1.52 1.72zm6.4-5.6a1.28 1.28 0 1 0-1.28-1.27 1.26 1.26 0 0 0 1.23 1.26zm-1.1 7.15h2.09v-6.58h-2.09zm6.49.21c1.8 0 2.88-.92 2.88-2.27a1.92 1.92 0 0 0-1.66-1.83l-1.54-.42c-.35-.1-.56-.29-.56-.59s.3-.54.75-.54.9.26.9.72h2.06c0-1.24-1-2-2.93-2-1.73 0-2.81.86-2.81 2.09a1.91 1.91 0 0 0 1.65 1.9l1.61.41a.53.53 0 0 1 .48.56c0 .38-.32.61-.77.61-.64 0-1.07-.33-1.07-.78h-2.08c0 1.24 1.19 2.19 3.11 2.19zm7.39-1.83c-.52 0-.92-.15-.92-1.12v-2.19h1.49v-1.65h-1.49v-2h-2.09v2h-1v1.65h1v2.62c0 2.2 1.36 2.42 2.34 2.42a8.61 8.61 0 0 0 1.39-.11v-1.66c-.19.02-.43.04-.72.04zm3-5.54a1.28 1.28 0 1 0-1.29-1.27 1.26 1.26 0 0 0 1.29 1.27zM387.69 81h2.08v-6.58h-2.08V81zm3.86 0h2.09v-3.44c0-1 .43-1.55 1.27-1.55s1.16.5 1.16 1.61V81h2.1v-4.07c0-1.78-.81-2.68-2.4-2.68a2.22 2.22 0 0 0-2.13 1.13v-1h-2.09V81zm11.34.21c2 0 3.24-1.06 3.41-2.65h-2.09c-.15.57-.55.87-1.31.87s-1.45-.63-1.45-1.72S402 76 402.9 76a1.17 1.17 0 0 1 1.31.93h2.09c-.17-1.64-1.45-2.69-3.41-2.69a3.49 3.49 0 1 0 0 7zm8-1.83c-.52 0-.91-.15-.91-1.12v-2.19h1.49v-1.65H410v-2h-2.09v2h-1v1.65h1v2.62c0 2.2 1.35 2.42 2.33 2.42a8.75 8.75 0 0 0 1.4-.11v-1.66c-.18.02-.46.04-.72.04zM451.06 118h6.47v-10.48c0-3.85 1.39-5 3.47-5s3 1.14 3 4V118h6.51v-10.48c0-3.85 1.39-5 3.42-5s3 1.18 3 4V118h6.51v-12.64c0-4.27-1.4-8.28-7.23-8.28a7.12 7.12 0 0 0-6.51 3.76c-.88-2.15-2.74-3.76-6.38-3.76a6.13 6.13 0 0 0-5.83 3.51v-3h-6.47zm47.3.63c-7 0-11.32-4.6-11.32-10.82S491.35 97 498.36 97s11.29 4.56 11.29 10.77-4.31 10.86-11.29 10.86zm0-5.49c3.05 0 4.86-2.24 4.86-5.33s-1.81-5.32-4.86-5.32-4.86 2.24-4.86 5.32 1.78 5.33 4.86 5.33zm30.38-24.73h6.47V118h-6.43v-2.87a7.31 7.31 0 0 1-6.46 3.42c-6.09 0-9.6-4.61-9.6-10.74s3.76-10.73 9.68-10.73a7 7 0 0 1 6.38 3.47V88.42zm-4.56 24.77c3.21 0 4.86-2.41 4.86-5.37s-1.65-5.32-4.86-5.32c-3 0-4.86 2.24-4.86 5.32s1.86 5.37 4.86 5.37zm23.76 5.37c3.08 0 5.2-1.31 6.34-3.47V118h6.42V97.63h-6.42v11c0 2.74-1.19 4.52-3.93 4.52-2.46 0-3.39-1.52-3.39-4.31V97.63h-6.55v12.59c0 5.29 2.62 8.33 7.53 8.33zm18.18-.55h6.46V88.42h-6.46zM598 106.76a21.45 21.45 0 0 1-.17 2.83h-15c.13 2.66 1.9 4.18 4.77 4.18 2 0 3.26-.63 3.81-1.9h6.34c-.64 4-4.74 6.76-10.15 6.76-6.93 0-11.2-4-11.2-10.82S580.71 97 587.34 97c6.34 0 10.65 4 10.65 9.72zm-15.21-1.19h8.83c0-2.7-1.56-4.22-4.31-4.22s-4.49 1.73-4.53 4.22zm27.27 13.06c5.58 0 8.92-2.83 8.92-7 0-2.92-2-4.82-5.16-5.67l-4.82-1.32c-1.1-.29-1.73-.88-1.73-1.81s.93-1.69 2.33-1.69c1.73 0 2.79.8 2.79 2.24h6.38c0-3.85-3.13-6.34-9.09-6.34C604.3 97 601 99.7 601 103.5c0 2.92 1.74 5 5.12 5.88l5 1.27a1.66 1.66 0 0 1 1.48 1.73c0 1.18-1 1.9-2.36 1.9-2 0-3.34-1-3.34-2.41h-6.43c0 3.85 3.68 6.76 9.64 6.76z" id="Layer_1-2" data-name="Layer 1"/></g></svg>